<?xml version="1.0" encoding="UTF-8" standalone="no"?>
<svg
   xmlns:dc="http://purl.org/dc/elements/1.1/"
   xmlns:cc="http://creativecommons.org/ns#"
   xmlns:rdf="http://www.w3.org/1999/02/22-rdf-syntax-ns#"
   xmlns:svg="http://www.w3.org/2000/svg"
   xmlns="http://www.w3.org/2000/svg"
   xmlns:xlink="http://www.w3.org/1999/xlink"
   version="1.1"
   width="32"
   height="32"
   id="svg4715">
  <defs
     id="defs4717">
    <linearGradient
       id="linearGradient3924">
      <stop
         id="stop3926"
         style="stop-color:#ffffff;stop-opacity:1"
         offset="0" />
      <stop
         id="stop3928"
         style="stop-color:#ffffff;stop-opacity:0.23529412"
         offset="0.04166667" />
      <stop
         id="stop3930"
         style="stop-color:#ffffff;stop-opacity:0.15686275"
         offset="1" />
      <stop
         id="stop3932"
         style="stop-color:#ffffff;stop-opacity:0.39215687"
         offset="1" />
    </linearGradient>
    <radialGradient
       cx="4.9929786"
       cy="43.5"
       r="2.5"
       fx="4.9929786"
       fy="43.5"
       id="radialGradient3163"
       xlink:href="#linearGradient3688-166-749"
       gradientUnits="userSpaceOnUse"
       gradientTransform="matrix(2.003784,0,0,1.4,27.98813,-17.4)" />
    <linearGradient
       id="linearGradient3688-166-749">
      <stop
         id="stop2883"
         style="stop-color:#181818;stop-opacity:1"
         offset="0" />
      <stop
         id="stop2885"
         style="stop-color:#181818;stop-opacity:0"
         offset="1" />
    </linearGradient>
    <radialGradient
       cx="4.9929786"
       cy="43.5"
       r="2.5"
       fx="4.9929786"
       fy="43.5"
       id="radialGradient3165"
       xlink:href="#linearGradient3688-464-309"
       gradientUnits="userSpaceOnUse"
       gradientTransform="matrix(2.003784,0,0,1.4,-20.01187,-104.4)" />
    <linearGradient
       id="linearGradient3688-464-309">
      <stop
         id="stop2889"
         style="stop-color:#181818;stop-opacity:1"
         offset="0" />
      <stop
         id="stop2891"
         style="stop-color:#181818;stop-opacity:0"
         offset="1" />
    </linearGradient>
    <linearGradient
       x1="25.058096"
       y1="47.027729"
       x2="25.058096"
       y2="39.999443"
       id="linearGradient3167"
       xlink:href="#linearGradient3702-501-757"
       gradientUnits="userSpaceOnUse" />
    <linearGradient
       id="linearGradient3702-501-757">
      <stop
         id="stop2895"
         style="stop-color:#181818;stop-opacity:0"
         offset="0" />
      <stop
         id="stop2897"
         style="stop-color:#181818;stop-opacity:1"
         offset="0.5" />
      <stop
         id="stop2899"
         style="stop-color:#181818;stop-opacity:0"
         offset="1" />
    </linearGradient>
    <linearGradient
       x1="23.99999"
       y1="6.2399888"
       x2="23.99999"
       y2="41.759991"
       id="linearGradient3027"
       xlink:href="#linearGradient3924"
       gradientUnits="userSpaceOnUse"
       gradientTransform="matrix(0.67567568,0,0,0.67567565,-0.2162133,-0.2162086)" />
    <radialGradient
       cx="6.7304144"
       cy="9.9571075"
       r="12.671875"
       fx="6.2001843"
       fy="9.9571075"
       id="radialGradient3157-16-1"
       xlink:href="#linearGradient2867-449-88-871-390-598-476-591-434-148-57-177-8-3-3-6-4-8-8-8-6-5"
       gradientUnits="userSpaceOnUse"
       gradientTransform="matrix(0,6.5752285,-8.07228,0,96.951911,-56.111448)" />
    <linearGradient
       id="linearGradient2867-449-88-871-390-598-476-591-434-148-57-177-8-3-3-6-4-8-8-8-6-5">
      <stop
         id="stop3750-1-0-7-6-6-1-3-9-9-2"
         style="stop-color:#9e71ef;stop-opacity:1"
         offset="0" />
      <stop
         id="stop3752-3-7-4-0-32-8-923-0-7-7"
         style="stop-color:#9538e6;stop-opacity:1"
         offset="0.26238" />
      <stop
         id="stop3754-1-8-5-2-7-6-7-1-0-0"
         style="stop-color:#430096;stop-opacity:1"
         offset="0.704952" />
      <stop
         id="stop3756-1-6-2-6-6-1-96-6-24-3"
         style="stop-color:#30006a;stop-opacity:1"
         offset="1" />
    </linearGradient>
  </defs>
  <metadata
     id="metadata4720">
    <rdf:RDF>
      <cc:Work
         rdf:about="">
        <dc:format>image/svg+xml</dc:format>
        <dc:type
           rdf:resource="http://purl.org/dc/dcmitype/StillImage" />
        <dc:title></dc:title>
      </cc:Work>
    </rdf:RDF>
  </metadata>
  <g
     transform="matrix(0.6999997,0,0,0.44444486,-0.8000003,10.111104)"
     id="g2036"
     style="display:inline">
    <g
       transform="matrix(1.052632,0,0,1.285713,-1.263158,-13.42854)"
       id="g3712"
       style="opacity:0.4">
      <rect
         width="5"
         height="7"
         x="38"
         y="40"
         id="rect2801"
         style="fill:url(#radialGradient3163);fill-opacity:1;stroke:none" />
      <rect
         width="5"
         height="7"
         x="-10"
         y="-47"
         transform="scale(-1,-1)"
         id="rect3696"
         style="fill:url(#radialGradient3165);fill-opacity:1;stroke:none" />
      <rect
         width="28"
         height="7.0000005"
         x="10"
         y="40"
         id="rect3700"
         style="fill:url(#linearGradient3167);fill-opacity:1;stroke:none" />
    </g>
  </g>
  <rect
     style="color:#000000;display:inline;overflow:visible;visibility:visible;fill:url(#radialGradient3157-16-1);fill-opacity:1;fill-rule:nonzero;stroke:none;stroke-width:0.99999994;marker:none;enable-background:accumulate"
     id="rect5505-21-2-3"
     y="2.5"
     x="2.4999995"
     ry="2"
     rx="2"
     height="27"
     width="27" />
  <rect
     width="27"
     height="27"
     rx="2.1600001"
     ry="2.1600001"
     x="2.5"
     y="2.5"
     id="rect5505-6-6"
     style="color:#000000;display:inline;overflow:visible;visibility:visible;fill:none;stroke:#401a67;stroke-width:1;stroke-linecap:round;stroke-linejoin:round;stroke-miterlimit:4;stroke-dasharray:none;stroke-dashoffset:0;stroke-opacity:1;marker:none;enable-background:accumulate;clip-rule:nonzero;opacity:0.8;isolation:auto;mix-blend-mode:normal;color-interpolation:sRGB;color-interpolation-filters:linearRGB;solid-color:#000000;solid-opacity:1;fill-opacity:1;fill-rule:nonzero;filter-blend-mode:normal;filter-gaussianBlur-deviation:0;color-rendering:auto;image-rendering:auto;shape-rendering:auto;text-rendering:auto" />
  <rect
     width="25"
     height="25"
     rx="1.0869565"
     ry="1.0869563"
     x="3.5"
     y="3.5"
     id="rect6741-7"
     style="fill:none;stroke:url(#linearGradient3027);stroke-width:0.99999994;stroke-linecap:round;stroke-linejoin:round;stroke-miterlimit:4;stroke-dasharray:none;stroke-dashoffset:0;stroke-opacity:1;opacity:0.4" />
  <path
     d="M 8.4394531,6.984375 A 0.71274583,0.71274583 0 0 0 7.8691406,8.0859375 l 0.097656,0.1503906 a 0.71274583,0.71274583 0 0 0 0.00195,0.00195 c 1.0585556,1.6160073 2.604841,4.2040358 4.830078,8.0839848 l 1.457031,2.539062 -0.02734,1.304688 a 0.71274583,0.71274583 0 0 0 0,0.002 c -0.02698,1.334445 -0.104543,4.484431 -0.148438,6.027343 -0.0044,0.155637 -0.0072,0.296416 -0.0098,0.400391 -0.0013,0.05199 -0.0033,0.09494 -0.0039,0.126953 -2.85e-4,0.016 5.3e-5,0.02872 0,0.04297 -2.6e-5,0.0071 -3.75e-4,0.01203 0,0.02734 1.88e-4,0.0077 -2.31e-4,0.01595 0.002,0.04297 0.0011,0.01351 0.0117,0.078 0.01172,0.07812 1.2e-5,6.2e-5 0.041,0.140595 0.04102,0.140626 0,0 0.144531,0.218749 0.144531,0.21875 0,0 0.08398,0.07422 0.08398,0.07422 0,0 0.515592,0.138676 0.515625,0.138672 3.4e-5,-4e-6 0.02339,-0.0019 0.02344,-0.002 1.05e-4,-1.6e-5 0.01235,-0.0033 0.01563,-0.0039 0.0065,-0.0012 0.0092,-0.0015 0.01172,-0.002 0.0049,-9.49e-4 0.0082,-0.0013 0.01172,-0.002 0.007,-0.0014 0.0137,-0.0039 0.02344,-0.0059 0.01948,-0.004 0.04738,-0.0088 0.08008,-0.01563 0.0654,-0.01363 0.154562,-0.0321 0.251953,-0.05273 0.246198,-0.05215 1.255019,-0.05036 1.480469,-0.002 0.09603,0.0206 0.184366,0.03786 0.255859,0.05078 0.03575,0.0065 0.06675,0.01077 0.101563,0.01563 0.01741,0.0024 0.0335,0.0053 0.06836,0.0078 0.01743,0.0012 0.03673,0.004 0.08594,0.002 0.02461,-0.001 0.116757,-0.01553 0.117187,-0.01562 2.15e-4,-4.5e-5 0.126808,-0.039 0.126953,-0.03906 1.44e-4,-6e-5 0.227938,-0.151263 0.232422,-0.154297 l 0.002,-0.002 c 0.0028,-0.0045 0.169904,-0.27729 0.169922,-0.277344 1.8e-5,-5.4e-5 0.02342,-0.09171 0.02344,-0.0918 3.4e-5,-1.77e-4 0.0085,-0.05363 0.0098,-0.06641 0.0025,-0.02556 0.0036,-0.03466 0.0039,-0.04297 6.55e-4,-0.01661 -7e-5,-0.0229 0,-0.03125 1.39e-4,-0.01671 1.56e-4,-0.03332 0,-0.05273 -3.13e-4,-0.03882 -8.4e-4,-0.08964 -0.002,-0.15625 -0.0022,-0.133225 -0.0066,-0.323135 -0.01172,-0.556641 -0.01016,-0.467011 -0.02442,-1.109737 -0.04297,-1.814453 -0.03703,-1.40681 -0.08324,-3.224026 -0.101563,-4.035156 l -0.0293,-1.28125 1.453124,-2.539063 c 2.201085,-3.843533 3.823361,-6.553342 4.828126,-8.0761714 0.03451,-0.052292 0.06312,-0.09836 0.09375,-0.15625 0.01531,-0.028945 0.03021,-0.05276 0.05664,-0.1289062 0.0066,-0.019037 0.01347,-0.041793 0.02148,-0.076172 0.008,-0.034379 0.01952,-0.1572975 0.01953,-0.1582031 4e-6,-4.528e-4 -0.01555,-0.1559063 -0.01563,-0.15625 -7.4e-5,-3.438e-4 -0.10141,-0.2439088 -0.101563,-0.2441406 -1.52e-4,-2.319e-4 -0.275158,-0.2459766 -0.27539,-0.2460938 -2.33e-4,-1.172e-4 -0.321951,-0.076172 -0.322266,-0.076172 -6.29e-4,5e-7 -0.08243,0.0044 -0.09375,0.00586 -0.01132,0.00145 -0.01885,0.00291 -0.02539,0.00391 -0.01307,0.00199 -0.02393,0.00363 -0.03711,0.00586 -0.02636,0.00446 -0.05892,0.010598 -0.09766,0.017578 -0.07748,0.013961 -0.180386,0.033507 -0.291016,0.054688 -0.374783,0.071719 -0.979697,0.073705 -1.404297,-0.00195 -0.130213,-0.023216 -0.250888,-0.039953 -0.361328,-0.048828 -0.05522,-0.00444 -0.105432,-0.00781 -0.173828,-0.00586 -0.0342,9.737e-4 -0.07036,0.00153 -0.136719,0.013672 -0.03318,0.00607 -0.07417,0.015053 -0.136718,0.039063 -0.03127,0.012005 -0.06787,0.027509 -0.113282,0.054687 -0.04542,0.027179 -0.159591,0.1282963 -0.160156,0.1289062 -0.0011,0.00122 -0.06517,0.082253 -0.07422,0.095703 -0.009,0.01345 -0.01639,0.024066 -0.02344,0.035156 -0.01409,0.02218 -0.0284,0.045975 -0.04687,0.076172 -0.03696,0.060394 -0.08611,0.1423727 -0.144531,0.2402344 -0.116839,0.1957233 -0.271385,0.4573729 -0.4375,0.7421875 -0.324367,0.5561497 -1.153689,1.9479336 -1.835938,3.0761716 -0.684077,1.131263 -1.523005,2.517541 -1.865234,3.083985 -0.02069,0.03425 -0.03438,0.05443 -0.05469,0.08789 -0.101002,-0.163249 -0.1814,-0.289466 -0.294922,-0.476562 C 13.998533,11.388944 12.34808,8.64108 12,8.0351562 11.854837,7.7824553 11.753611,7.6100902 11.646484,7.4628906 11.592921,7.3892908 11.541592,7.321811 11.445312,7.2382812 11.349033,7.1547515 11.163423,7.0164944 10.869141,7.0351562 a 0.71274583,0.71274583 0 0 0 -0.002,0 c -0.172659,0.011594 -0.299605,0.034456 -0.496094,0.068359 -0.4236258,0.073168 -1.1677894,0.045786 -1.5820315,-0.058594 l -0.00195,0 -0.1367188,-0.037109 A 0.71274583,0.71274583 0 0 0 8.4394531,6.984375 Z"
     id="path4635"
     style="color:#000000;clip-rule:nonzero;display:inline;overflow:visible;visibility:visible;opacity:0.15;isolation:auto;mix-blend-mode:normal;color-interpolation:sRGB;color-interpolation-filters:linearRGB;solid-color:#000000;solid-opacity:1;fill:#042658;fill-opacity:1;fill-rule:nonzero;stroke:none;stroke-width:1;stroke-linecap:butt;stroke-linejoin:miter;stroke-miterlimit:4;stroke-dasharray:none;stroke-dashoffset:0;stroke-opacity:1;marker:none;color-rendering:auto;image-rendering:auto;shape-rendering:auto;text-rendering:auto;enable-background:accumulate;filter-blend-mode:normal;filter-gaussianBlur-deviation:0" />
  <path
     style="fill:#042658;color:#000000;clip-rule:nonzero;display:inline;overflow:visible;visibility:visible;opacity:0.3;isolation:auto;mix-blend-mode:normal;color-interpolation:sRGB;color-interpolation-filters:linearRGB;solid-color:#000000;solid-opacity:1;fill-opacity:1;fill-rule:nonzero;stroke:none;stroke-width:1;stroke-linecap:butt;stroke-linejoin:miter;stroke-miterlimit:4;stroke-dasharray:none;stroke-dashoffset:0;stroke-opacity:1;marker:none;filter-blend-mode:normal;filter-gaussianBlur-deviation:0;color-rendering:auto;image-rendering:auto;shape-rendering:auto;text-rendering:auto;enable-background:accumulate"
     id="path4483-73-9"
     d="m 8.466629,7.69802 0.09722,0.148957 c 1.075003,1.641116 2.626248,4.235428 4.85438,8.120423 l 1.553839,2.709422 -0.03136,1.505237 c -0.02708,1.33931 -0.103387,4.486832 -0.147388,6.033482 -0.0088,0.310451 -0.0159,0.564459 -0.01411,0.564459 0.0018,0 0.162764,-0.03434 0.355925,-0.07526 0.440261,-0.09325 1.350926,-0.09345 1.779626,-0.0014 0.17911,0.03842 0.329177,0.06445 0.333974,0.05961 0.0048,-0.0048 -0.02097,-1.159345 -0.05802,-2.566737 -0.03705,-1.407393 -0.08196,-3.224963 -0.100349,-4.039048 l -0.0345,-1.480147 1.552272,-2.709422 c 2.204268,-3.849092 3.826814,-6.563084 4.851246,-8.115722 0.05007,-0.07588 0.0822,-0.137984 0.07213,-0.137977 -0.01007,7e-6 -0.194508,0.03385 -0.410804,0.07526 -0.489386,0.09365 -1.139036,0.09347 -1.663597,0 -0.220532,-0.03932 -0.416239,-0.05559 -0.434324,-0.03607 -0.01808,0.01952 -0.303505,0.498926 -0.633452,1.064638 -0.329948,0.565719 -1.158165,1.954302 -1.842345,3.085733 -0.684179,1.131431 -1.524071,2.520014 -1.865863,3.085733 -0.341793,0.565712 -0.63871,1.033588 -0.65854,1.039548 -0.01983,0.0062 -0.428591,-0.637525 -0.909412,-1.429968 C 13.388027,11.755554 11.75104,9.03189 11.383014,8.391243 11.101677,7.90149 10.985367,7.740737 10.9142,7.74525 10.86208,7.74875 10.671792,7.77543 10.492417,7.80638 9.935907,7.9025 9.160963,7.87416 8.614016,7.73582 Z" />
  <path
     style="fill:#f1f1f6"
     id="path4483-73"
     d="m 8.466629,6.6985067 0.09722,0.148957 c 1.075003,1.641116 2.626248,4.2354283 4.85438,8.1204233 l 1.553839,2.709422 -0.03136,1.505237 c -0.02708,1.33931 -0.103387,4.486832 -0.147388,6.033482 -0.0088,0.310451 -0.0159,0.564459 -0.01411,0.564459 0.0018,0 0.162764,-0.03434 0.355925,-0.07526 0.440261,-0.09325 1.350926,-0.09345 1.779626,-0.0014 0.17911,0.03842 0.329177,0.06445 0.333974,0.05961 0.0048,-0.0048 -0.02097,-1.159345 -0.05802,-2.566737 -0.03705,-1.407393 -0.08196,-3.224963 -0.100349,-4.039048 l -0.0345,-1.480147 1.552272,-2.709422 c 2.204268,-3.849092 3.826814,-6.5630843 4.851246,-8.1157223 0.05007,-0.07588 0.0822,-0.137984 0.07213,-0.137977 -0.01007,7e-6 -0.194508,0.03385 -0.410804,0.07526 -0.489386,0.09365 -1.139036,0.09347 -1.663597,0 -0.220532,-0.03932 -0.416239,-0.05559 -0.434324,-0.03607 -0.01808,0.01952 -0.303505,0.498926 -0.633452,1.064638 -0.329948,0.565719 -1.158165,1.954302 -1.842345,3.0857333 -0.684179,1.131431 -1.524071,2.520014 -1.865863,3.085733 -0.341793,0.565712 -0.63871,1.033588 -0.65854,1.039548 -0.01983,0.0062 -0.428591,-0.637525 -0.909412,-1.429968 -1.72515,-2.843217 -3.362137,-5.5668813 -3.730163,-6.2075283 -0.281337,-0.489753 -0.397647,-0.650506 -0.468814,-0.645993 -0.05212,0.0035 -0.242408,0.03018 -0.421783,0.06113 -0.55651,0.09612 -1.331454,0.06778 -1.878401,-0.07056 z" />
  <path
     style="fill:#dad9e0"
     id="path4481-5"
     d="m 8.466629,6.6985067 0.09722,0.148957 c 1.075003,1.641116 2.626248,4.2354283 4.85438,8.1204233 l 1.553839,2.709422 -0.03136,1.505237 c -0.02708,1.33931 -0.103387,4.486832 -0.147388,6.033482 -0.0088,0.310451 -0.0159,0.564459 -0.01411,0.564459 0.0018,0 0.162764,-0.03434 0.355925,-0.07526 0.440261,-0.09325 1.350926,-0.09345 1.779626,-0.0014 0.17911,0.03842 0.329177,0.06445 0.333974,0.05961 0.0048,-0.0048 -0.02097,-1.159345 -0.05802,-2.566737 -0.03705,-1.407393 -0.08196,-3.224963 -0.100349,-4.039048 l -0.0345,-1.480147 1.552272,-2.709422 c 2.204268,-3.849092 3.826814,-6.5630843 4.851246,-8.1157223 0.05007,-0.07588 0.0822,-0.137984 0.07213,-0.137977 -0.01007,7e-6 -0.194508,0.03385 -0.410804,0.07526 -0.0934,0.01786 -0.194828,0.0297 -0.297911,0.04078 0.181909,-0.0055 0.332582,-0.01253 0.41394,-0.02506 l 0.225785,-0.03607 -0.250873,0.120731 c -0.13798,0.06598 -0.465368,0.179765 -0.72753,0.252443 -0.262161,0.07267 -0.500164,0.138469 -0.529968,0.147386 -0.07382,0.02208 -5.906196,9.8983733 -5.875118,9.9486623 0.0136,0.02201 0.238297,0.117062 0.498609,0.211673 l 0.473521,0.170903 0.02979,1.884683 c 0.01688,1.036281 0.05707,2.765236 0.08781,3.841477 0.03074,1.076248 0.04817,2.056022 0.0392,2.177889 -0.01396,0.189575 -0.02596,0.210178 -0.08153,0.142685 -0.03572,-0.04341 -0.301023,-0.243485 -0.58955,-0.445299 l -0.525264,-0.366903 0,-3.792877 0,-3.792877 -2.913254,-4.939047 C 11.495318,9.6140277 10.157536,7.3670317 10.12553,7.3368957 10.09352,7.3067757 9.840157,7.2243677 9.564198,7.1534407 c -0.505669,-0.12996 -1.011277,-0.32148 -0.967425,-0.36533 0.01303,-0.01302 0.156514,0.0028 0.319863,0.03448 0.391928,0.07601 1.372849,0.06321 1.759242,-0.02195 l 0.250872,-0.0549 c -0.0043,-6.92e-4 -0.0086,-2.49e-4 -0.01254,0 -0.05212,0.0035 -0.242408,0.03018 -0.421782,0.06113 -0.556511,0.09612 -1.331455,0.06778 -1.878402,-0.07056 z m 12.600068,0.04701 c -0.02429,6.23e-4 -0.03938,0.0028 -0.04391,0.0078 -0.01808,0.01952 -0.303505,0.498919 -0.633452,1.064638 -0.329948,0.565719 -1.158165,1.954294 -1.842345,3.0857333 -0.684179,1.131431 -1.524071,2.520013 -1.865863,3.085726 -0.341793,0.565719 -0.63871,1.033594 -0.65854,1.039555 -0.01983,0.0062 -0.428591,-0.637525 -0.909412,-1.429975 -1.72515,-2.843211 -3.362137,-5.5668743 -3.730163,-6.2075213 -0.144999,-0.252416 -0.245949,-0.41731 -0.319862,-0.517424 l 0.235198,0.413937 c 0.404693,0.711907 1.905873,3.2110133 3.479284,5.7935843 1.320165,2.166895 1.268773,2.057628 1.237115,2.646706 -0.0046,0.0869 0.0102,0.17001 0.0345,0.185019 0.02429,0.01502 1.190477,-2.01773 2.591825,-4.517273 1.98292,-3.5368753 2.53295,-4.5559103 2.480501,-4.5925333 -0.04258,-0.02977 0.02492,-0.03233 0.183451,-0.0062 0.08262,0.01357 0.242224,0.02465 0.432754,0.03136 -0.09597,-0.01052 -0.190619,-0.02312 -0.280663,-0.03918 -0.165399,-0.02949 -0.317545,-0.04576 -0.39042,-0.04389 z" />
</svg>
