<?xml version="1.0" encoding="UTF-8" standalone="no"?>
<svg
   xmlns:dc="http://purl.org/dc/elements/1.1/"
   xmlns:cc="http://creativecommons.org/ns#"
   xmlns:rdf="http://www.w3.org/1999/02/22-rdf-syntax-ns#"
   xmlns:svg="http://www.w3.org/2000/svg"
   xmlns="http://www.w3.org/2000/svg"
   xmlns:xlink="http://www.w3.org/1999/xlink"
   width="32"
   height="32"
   id="svg2"
   version="1.1">
  <metadata
     id="metadata10">
    <rdf:RDF>
      <cc:Work
         rdf:about="">
        <dc:format>image/svg+xml</dc:format>
        <dc:type
           rdf:resource="http://purl.org/dc/dcmitype/StillImage" />
        <dc:title></dc:title>
      </cc:Work>
    </rdf:RDF>
  </metadata>
  <defs
     id="defs8">
    <radialGradient
       gradientTransform="matrix(2.003784,0,0,1.4,27.98813,-17.4)"
       gradientUnits="userSpaceOnUse"
       xlink:href="#linearGradient3688-166-749"
       id="radialGradient3163"
       fy="43.5"
       fx="4.9929786"
       r="2.5"
       cy="43.5"
       cx="4.9929786" />
    <linearGradient
       id="linearGradient3688-166-749">
      <stop
         offset="0"
         style="stop-color:#181818;stop-opacity:1"
         id="stop2883" />
      <stop
         offset="1"
         style="stop-color:#181818;stop-opacity:0"
         id="stop2885" />
    </linearGradient>
    <radialGradient
       gradientTransform="matrix(2.003784,0,0,1.4,-20.01187,-104.4)"
       gradientUnits="userSpaceOnUse"
       xlink:href="#linearGradient3688-166-749"
       id="radialGradient3165"
       fy="43.5"
       fx="4.9929786"
       r="2.5"
       cy="43.5"
       cx="4.9929786" />
    <linearGradient
       gradientUnits="userSpaceOnUse"
       xlink:href="#linearGradient3702-501-757"
       id="linearGradient3167"
       y2="39.999443"
       x2="25.058096"
       y1="47.027729"
       x1="25.058096" />
    <linearGradient
       id="linearGradient3702-501-757">
      <stop
         offset="0"
         style="stop-color:#181818;stop-opacity:0"
         id="stop2895" />
      <stop
         offset="0.5"
         style="stop-color:#181818;stop-opacity:1"
         id="stop2897" />
      <stop
         offset="1"
         style="stop-color:#181818;stop-opacity:0"
         id="stop2899" />
    </linearGradient>
    <linearGradient
       gradientTransform="matrix(0.67567568,0,0,0.67567567,-0.2162133,-0.21621)"
       gradientUnits="userSpaceOnUse"
       xlink:href="#linearGradient3924"
       id="linearGradient3027"
       y2="41.759991"
       x2="23.999996"
       y1="6.2399888"
       x1="23.999996" />
    <linearGradient
       id="linearGradient3924">
      <stop
         offset="0"
         style="stop-color:#ffffff;stop-opacity:1"
         id="stop3926" />
      <stop
         offset="0.04026115"
         style="stop-color:#ffffff;stop-opacity:0.23529412"
         id="stop3928" />
      <stop
         offset="0.95833331"
         style="stop-color:#ffffff;stop-opacity:0.15686275"
         id="stop3930" />
      <stop
         offset="1"
         style="stop-color:#ffffff;stop-opacity:0.39215687"
         id="stop3932" />
    </linearGradient>
    <linearGradient
       xlink:href="#linearGradient1123"
       id="linearGradient20133"
       x1="14.535162"
       y1="-2.4891365"
       x2="14.535162"
       y2="-29.510864"
       gradientUnits="userSpaceOnUse" />
    <linearGradient
       id="linearGradient1123">
      <stop
         offset="0"
         style="stop-color:#42baea;stop-opacity:1"
         id="stop1117" />
      <stop
         offset="1"
         style="stop-color:#3689e6;stop-opacity:1"
         id="stop1119" />
    </linearGradient>
  </defs>
  <g
     style="display:inline"
     id="g2036"
     transform="matrix(0.6999997,0,0,0.44444486,-0.8000003,10.1111)">
    <g
       style="opacity:0.4"
       id="g3712"
       transform="matrix(1.052632,0,0,1.285713,-1.263158,-13.42854)">
      <rect
         style="fill:url(#radialGradient3163);fill-opacity:1;stroke:none"
         id="rect2801"
         y="40"
         x="38"
         height="7"
         width="5" />
      <rect
         style="fill:url(#radialGradient3165);fill-opacity:1;stroke:none"
         id="rect3696"
         transform="scale(-1)"
         y="-47"
         x="-10"
         height="7"
         width="5" />
      <rect
         style="fill:url(#linearGradient3167);fill-opacity:1;stroke:none"
         id="rect3700"
         y="40"
         x="10"
         height="7.0000005"
         width="28" />
    </g>
  </g>
  <rect
     style="color:#000000;display:inline;overflow:visible;visibility:visible;fill:url(#linearGradient20133);fill-opacity:1.0;fill-rule:nonzero;stroke:none;stroke-width:1.03846157;marker:none;enable-background:accumulate"
     id="rect5505"
     y="-29.5"
     x="2.5"
     ry="2"
     rx="2"
     height="27"
     width="27"
     transform="scale(1,-1)" />
  <rect
     style="color:#000000;display:inline;overflow:visible;visibility:visible;opacity:0.5;fill:#000000;stroke:#00537d;stroke-width:1;stroke-linecap:round;stroke-linejoin:round;stroke-miterlimit:4;stroke-dasharray:none;stroke-dashoffset:0;stroke-opacity:1;marker:none;enable-background:accumulate;font-variant-east_asian:normal;vector-effect:none;fill-opacity:0"
     id="rect5505-6-6"
     y="2.5"
     x="2.5"
     ry="2.1600001"
     rx="2.1600001"
     height="27"
     width="27" />
  <rect
     style="fill:none;stroke:url(#linearGradient3027);stroke-width:0.99999994;stroke-linecap:round;stroke-linejoin:round;stroke-miterlimit:4;stroke-dasharray:none;stroke-dashoffset:0;stroke-opacity:1;opacity:0.4"
     id="rect6741-7"
     y="3.5"
     x="3.5"
     ry="1.1904761"
     rx="1.0869565"
     height="25"
     width="25" />
  <path
     style="opacity:0.07000002;vector-effect:none;fill:#00537d;fill-opacity:1;stroke:none;stroke-width:19.39118209;stroke-linecap:butt;stroke-linejoin:miter;stroke-miterlimit:4;stroke-dasharray:none;stroke-dashoffset:0;stroke-opacity:1;marker:none;font-variant-east_asian:normal"
     id="path3461-6-7-5-5"
     d="M 180,30.6875 C 97.715101,30.6875 30.6875,97.715101 30.6875,180 30.6875,262.2849 97.715101,329.3125 180,329.3125 262.2849,329.3125 329.3125,262.2849 329.3125,180 329.3125,97.715101 262.2849,30.6875 180,30.6875 Z m 50.51758,47.175781 0.29297,0.300781 c -0.004,-0.0044 -0.01,-0.0073 -0.0137,-0.01172 a 13.57518,13.57518 0 0 0 -0.2793,-0.289063 z m 9.36523,13.056641 c 19.24538,12.963078 33.99108,31.983528 41.625,54.324218 -11.37588,21.76739 -26.87531,41.477 -45.42969,57.58203 -9.65079,8.34694 -19.85518,15.4713 -30.60937,20.31641 -8.0708,3.63616 -16.58107,5.97119 -24.91211,6.64062 13.28198,-10.07451 25.65949,-21.36429 36.54297,-34.10742 0.004,-0.005 0.009,-0.009 0.0137,-0.0137 a 13.57518,13.57518 0 0 0 0.0898,-0.11719 c 12.50718,-14.62995 24.23119,-32.07285 28.95313,-53.11914 2.42009,-10.65874 2.85076,-21.98546 0.53711,-33.16406 -1.31644,-6.36045 -3.64639,-12.539163 -6.81055,-18.341798 z m -59.36328,6.478516 c 0.0606,0.0046 0.22461,0.01367 0.24609,0.01367 5.52519,0 11.03216,1.769583 14.91602,4.714841 a 13.57518,13.57518 0 0 0 0.0156,0.0117 c 3.53966,2.67661 6.51452,6.83619 8.15429,11.48828 l -0.17383,-0.58398 a 13.57518,13.57518 0 0 0 0.19336,0.63672 c 1.70733,4.7905 2.25107,10.41226 1.59961,16.07226 a 13.57518,13.57518 0 0 0 -0.0117,0.16993 l 0.01,-0.16016 c -1.30686,11.40854 -7.47655,23.29991 -15.93555,34.42383 -14.47288,19.013 -33.77273,34.57827 -55.35937,45.80664 -1.30275,-1.68024 -2.54755,-3.39033 -3.56836,-5.19141 -7.1e-4,-0.001 -0.001,-0.003 -0.002,-0.004 -5.45944,-9.68003 -7.55397,-21.98674 -6.4004,-34.14844 a 13.57518,13.57518 0 0 0 0,-0.002 c 1.19463,-12.29467 5.50913,-24.74702 11.69336,-36.70898 a 13.57518,13.57518 0 0 0 0.002,-0.006 c 7.11363,-13.77189 16.39231,-25.58995 27.59765,-31.78125 a 13.57518,13.57518 0 0 0 0.0215,-0.0137 c 5.43803,-3.005056 11.43394,-4.688764 17.00195,-4.738282 z M 98.646484,109.95703 C 84.192193,131.84641 76.128576,158.0809 78.285156,184.96289 a 13.57518,13.57518 0 0 0 0.002,0.008 c 1.155225,14.2893 5.293462,28.32995 12.167969,41.07813 -2.154053,0.499 -4.337941,0.80815 -6.505859,1.22851 -7.075469,-14.2997 -11.244141,-30.23676 -11.244141,-47.30664 0,-26.83551 9.797449,-51.24067 25.941406,-70.01367 z m 180.472656,111.4043 c -16.13328,38.8082 -54.30064,65.96289 -99.08984,65.96289 -24.46697,0 -46.87505,-8.19008 -64.86133,-21.94141 3.0443,-1.07593 6.03506,-2.29042 9.0332,-3.49023 4.69942,2.92198 9.59495,5.60491 14.91211,7.64062 23.34691,8.95128 48.79,7.48131 71.16211,-0.25781 a 13.57518,13.57518 0 0 0 0.01,-0.004 c 22.18416,-7.68876 41.16529,-21.12815 57.31445,-36.25 3.99828,-3.73627 7.80738,-7.65689 11.51953,-11.66015 z"
     transform="matrix(0.07367119,0,0,0.07367119,2.7391858,3.7391855)" />
  <path
     style="fill:#00537d;fill-opacity:1;font-variant-east_asian:normal;opacity:0.2;vector-effect:none;stroke:none;stroke-width:19.39118209;stroke-linecap:butt;stroke-linejoin:miter;stroke-miterlimit:4;stroke-dasharray:none;stroke-dashoffset:0;stroke-opacity:1;marker:none"
     id="path3461-6-7-5"
     d="M 180,44.261719 C 105.05573,44.261719 44.261719,105.05573 44.261719,180 44.261719,254.94427 105.05573,315.73828 180,315.73828 254.94427,315.73828 315.73828,254.94427 315.73828,180 315.73828,105.05573 254.94427,44.261719 180,44.261719 Z m -0.2207,14.787109 A 1.8243956,1.8243956 0 0 0 180,59.064453 c 55.16518,0 101.66106,36.910337 116.19141,87.353517 -12.35756,25.34312 -29.91643,48.17137 -51.21485,66.6582 -10.33465,8.94066 -21.57773,16.87558 -33.93164,22.44141 -12.3468,5.56264 -25.89662,8.69946 -39.31836,7.93554 -8.97445,-0.52351 -17.82861,-2.91111 -25.875,-6.86914 22.99624,-12.9126 43.81191,-29.67871 60.93946,-49.73632 h -0.002 c 11.77429,-13.75277 22.10669,-29.48261 26.125,-47.39844 2.04051,-8.96978 2.36252,-18.37057 0.48633,-27.43555 -1.88009,-9.08379 -6.07465,-17.728484 -12.4707,-24.542967 a 1.8243956,1.8243956 0 0 0 -0.002,-0.002 C 214.68139,80.833886 206.5231,76.141535 197.78125,73.742188 l -0.004,-0.002 c -8.71397,-2.405501 -17.97398,-2.58572 -26.82617,-0.972656 a 1.8243956,1.8243956 0 0 0 -0.002,0 c -17.7002,3.245042 -33.39524,13.481818 -45.89649,26.09961 -22.08093,22.246632 -35.754123,53.625142 -33.236324,85.009762 1.268318,15.68819 6.51247,31.10368 15.531254,44.03516 a 1.8243956,1.8243956 0 0 0 0.002,0.002 c 1.49903,2.14354 3.19753,4.11757 4.88672,6.09571 -11.60338,3.90961 -23.566516,6.76107 -35.666018,8.45898 -11.046326,-18.24883 -17.439453,-39.61584 -17.439453,-62.49805 0,-66.74187 53.960331,-120.775841 120.648441,-120.921872 z m 0.72851,24.769531 a 1.8243956,1.8243956 0 0 0 0.25781,0.01953 c 8.27834,0 16.5844,2.518626 23.11719,7.472656 a 1.8243956,1.8243956 0 0 0 0.002,0.002 c 5.88436,4.449607 10.29832,10.79182 12.76953,17.80273 a 1.8243956,1.8243956 0 0 0 0.002,0.008 c 2.50443,7.02704 3.16024,14.69755 2.29883,22.18164 a 1.8243956,1.8243956 0 0 0 0,0.002 c -1.71497,14.97121 -9.31715,28.86578 -18.61719,41.0957 -16.48435,21.65716 -38.42779,39.02233 -62.83789,51.18946 -2.11899,1.04734 -4.27445,2.04787 -6.43945,3.02734 -4.83835,-4.39022 -9.05332,-9.45224 -12.27735,-15.14648 v -0.002 c -7.09689,-12.58048 -9.46923,-27.60229 -8.09375,-42.10351 v -0.004 c 1.40643,-14.52637 6.38679,-28.58134 13.14844,-41.66016 7.82508,-15.14926 18.44166,-29.337851 33.09375,-37.433589 a 1.8243956,1.8243956 0 0 0 0,-0.002 c 7.23932,-4.004532 15.39315,-6.397522 23.57617,-6.449219 z M 300.40039,169.3418 c 0.30881,3.50369 0.52539,7.03357 0.52539,10.61914 0,66.81319 -54.08404,120.9375 -120.89648,120.9375 -36.44963,0 -69.05117,-16.20148 -91.189456,-41.70508 12.630056,-3.06115 24.993676,-7.2236 36.898436,-12.43164 5.60575,4.12815 11.70332,7.59748 18.22852,10.0957 19.74124,7.5709 42.03517,6.45163 61.87109,-0.41015 a 1.8243956,1.8243956 0 0 0 0.002,-0.002 c 19.8053,-6.86428 37.29804,-19.11235 52.49219,-33.34179 16.69964,-15.6053 30.83935,-33.86633 42.06836,-53.76172 z"
     transform="matrix(0.07367119,0,0,0.07367119,2.7391858,3.7391852)" />
  <path
     style="fill:#ffffff;fill-opacity:1"
     id="path3461-6-7"
     d="M 180,44.261719 C 105.05573,44.261719 44.261719,105.05573 44.261719,180 44.261719,254.94427 105.05573,315.73828 180,315.73828 254.94427,315.73828 315.73828,254.94427 315.73828,180 315.73828,105.05573 254.94427,44.261719 180,44.261719 Z m -0.2207,14.787109 A 1.8243956,1.8243956 0 0 0 180,59.064453 c 55.16518,0 101.66106,36.910337 116.19141,87.353517 -12.35756,25.34312 -29.91643,48.17137 -51.21485,66.6582 -10.33465,8.94066 -21.57773,16.87558 -33.93164,22.44141 -12.3468,5.56264 -25.89662,8.69946 -39.31836,7.93554 -8.97445,-0.52351 -17.82861,-2.91111 -25.875,-6.86914 22.99624,-12.9126 43.81191,-29.67871 60.93946,-49.73632 h -0.002 c 11.77429,-13.75277 22.10669,-29.48261 26.125,-47.39844 2.04051,-8.96978 2.36252,-18.37057 0.48633,-27.43555 -1.88009,-9.08379 -6.07465,-17.728484 -12.4707,-24.542967 a 1.8243956,1.8243956 0 0 0 -0.002,-0.002 C 214.68139,80.833886 206.5231,76.141535 197.78125,73.742188 l -0.004,-0.002 c -8.71397,-2.405501 -17.97398,-2.58572 -26.82617,-0.972656 a 1.8243956,1.8243956 0 0 0 -0.002,0 c -17.7002,3.245042 -33.39524,13.481818 -45.89649,26.09961 -22.08093,22.246632 -35.754123,53.625142 -33.236324,85.009762 1.268318,15.68819 6.51247,31.10368 15.531254,44.03516 a 1.8243956,1.8243956 0 0 0 0.002,0.002 c 1.49903,2.14354 3.19753,4.11757 4.88672,6.09571 -11.60338,3.90961 -23.566516,6.76107 -35.666018,8.45898 -11.046326,-18.24883 -17.439453,-39.61584 -17.439453,-62.49805 0,-66.74187 53.960331,-120.775841 120.648441,-120.921872 z m 0.72851,24.769531 a 1.8243956,1.8243956 0 0 0 0.25781,0.01953 c 8.27834,0 16.5844,2.518626 23.11719,7.472656 a 1.8243956,1.8243956 0 0 0 0.002,0.002 c 5.88436,4.449607 10.29832,10.79182 12.76953,17.80273 a 1.8243956,1.8243956 0 0 0 0.002,0.008 c 2.50443,7.02704 3.16024,14.69755 2.29883,22.18164 a 1.8243956,1.8243956 0 0 0 0,0.002 c -1.71497,14.97121 -9.31715,28.86578 -18.61719,41.0957 -16.48435,21.65716 -38.42779,39.02233 -62.83789,51.18946 -2.11899,1.04734 -4.27445,2.04787 -6.43945,3.02734 -4.83835,-4.39022 -9.05332,-9.45224 -12.27735,-15.14648 v -0.002 c -7.09689,-12.58048 -9.46923,-27.60229 -8.09375,-42.10351 v -0.004 c 1.40643,-14.52637 6.38679,-28.58134 13.14844,-41.66016 7.82508,-15.14926 18.44166,-29.337851 33.09375,-37.433589 a 1.8243956,1.8243956 0 0 0 0,-0.002 c 7.23932,-4.004532 15.39315,-6.397522 23.57617,-6.449219 z M 300.40039,169.3418 c 0.30881,3.50369 0.52539,7.03357 0.52539,10.61914 0,66.81319 -54.08404,120.9375 -120.89648,120.9375 -36.44963,0 -69.05117,-16.20148 -91.189456,-41.70508 12.630056,-3.06115 24.993676,-7.2236 36.898436,-12.43164 5.60575,4.12815 11.70332,7.59748 18.22852,10.0957 19.74124,7.5709 42.03517,6.45163 61.87109,-0.41015 a 1.8243956,1.8243956 0 0 0 0.002,-0.002 c 19.8053,-6.86428 37.29804,-19.11235 52.49219,-33.34179 16.69964,-15.6053 30.83935,-33.86633 42.06836,-53.76172 z"
     transform="matrix(0.07367119,0,0,0.07367119,2.7391858,2.7391858)" />
</svg>
