<?xml version="1.0" encoding="UTF-8" standalone="no"?>
<svg
   xmlns:dc="http://purl.org/dc/elements/1.1/"
   xmlns:cc="http://creativecommons.org/ns#"
   xmlns:rdf="http://www.w3.org/1999/02/22-rdf-syntax-ns#"
   xmlns:svg="http://www.w3.org/2000/svg"
   xmlns="http://www.w3.org/2000/svg"
   xmlns:xlink="http://www.w3.org/1999/xlink"
   version="1.1"
   width="32"
   height="32"
   id="svg4715">
  <defs
     id="defs4717">
    <linearGradient
       id="linearGradient4549">
      <stop
         id="stop4551"
         style="stop-color:#000000;stop-opacity:0.27205881"
         offset="0" />
      <stop
         id="stop4553"
         style="stop-color:#000000;stop-opacity:0.36764705"
         offset="1" />
    </linearGradient>
    <linearGradient
       id="linearGradient3924">
      <stop
         id="stop3926"
         style="stop-color:#ffffff;stop-opacity:1"
         offset="0" />
      <stop
         id="stop3928"
         style="stop-color:#ffffff;stop-opacity:0.23529412"
         offset="0" />
      <stop
         id="stop3930"
         style="stop-color:#ffffff;stop-opacity:0.15686275"
         offset="1" />
      <stop
         id="stop3932"
         style="stop-color:#ffffff;stop-opacity:0.39215687"
         offset="1" />
    </linearGradient>
    <radialGradient
       cx="4.9929786"
       cy="43.5"
       r="2.5"
       fx="4.9929786"
       fy="43.5"
       id="radialGradient3163"
       xlink:href="#linearGradient3688-166-749"
       gradientUnits="userSpaceOnUse"
       gradientTransform="matrix(2.003784,0,0,1.4,27.98813,-17.4)" />
    <linearGradient
       id="linearGradient3688-166-749">
      <stop
         id="stop2883"
         style="stop-color:#181818;stop-opacity:1"
         offset="0" />
      <stop
         id="stop2885"
         style="stop-color:#181818;stop-opacity:0"
         offset="1" />
    </linearGradient>
    <radialGradient
       cx="4.9929786"
       cy="43.5"
       r="2.5"
       fx="4.9929786"
       fy="43.5"
       id="radialGradient3165"
       xlink:href="#linearGradient3688-464-309"
       gradientUnits="userSpaceOnUse"
       gradientTransform="matrix(2.003784,0,0,1.4,-20.01187,-104.4)" />
    <linearGradient
       id="linearGradient3688-464-309">
      <stop
         id="stop2889"
         style="stop-color:#181818;stop-opacity:1"
         offset="0" />
      <stop
         id="stop2891"
         style="stop-color:#181818;stop-opacity:0"
         offset="1" />
    </linearGradient>
    <linearGradient
       x1="25.058096"
       y1="47.027729"
       x2="25.058096"
       y2="39.999443"
       id="linearGradient3167"
       xlink:href="#linearGradient3702-501-757"
       gradientUnits="userSpaceOnUse" />
    <linearGradient
       id="linearGradient3702-501-757">
      <stop
         id="stop2895"
         style="stop-color:#181818;stop-opacity:0"
         offset="0" />
      <stop
         id="stop2897"
         style="stop-color:#181818;stop-opacity:1"
         offset="0.5" />
      <stop
         id="stop2899"
         style="stop-color:#181818;stop-opacity:0"
         offset="1" />
    </linearGradient>
    <linearGradient
       x1="30.643436"
       y1="3.915791"
       x2="30.643436"
       y2="30.093096"
       id="linearGradient3024"
       xlink:href="#linearGradient4549"
       gradientUnits="userSpaceOnUse"
       gradientTransform="matrix(1.08,0,0,1.08,-30.781639,-2.36)" />
    <linearGradient
       x1="23.99999"
       y1="6.2399888"
       x2="23.99999"
       y2="41.759991"
       id="linearGradient3027"
       xlink:href="#linearGradient3924"
       gradientUnits="userSpaceOnUse"
       gradientTransform="matrix(0.67567568,0,0,0.67567565,-0.2162133,-0.2162086)" />
    <linearGradient
       id="linearGradient3600-1-6">
      <stop
         offset="0"
         style="stop-color:#f4f4f4;stop-opacity:1"
         id="stop3602-5-1" />
      <stop
         offset="1"
         style="stop-color:#dbdbdb;stop-opacity:1"
         id="stop3604-2-0" />
    </linearGradient>
    <linearGradient
       gradientTransform="matrix(0.78195308,0,0,0.59467084,-251.37137,115.90096)"
       gradientUnits="userSpaceOnUse"
       xlink:href="#linearGradient3600-1-6"
       id="linearGradient3016-7-4"
       y2="47.013336"
       x2="25.132275"
       y1="0.98520643"
       x1="25.132275" />
    <linearGradient
       x1="23.99999"
       y1="6.2399888"
       x2="23.99999"
       y2="41.759991"
       id="linearGradient3027-6"
       xlink:href="#linearGradient3924-4"
       gradientUnits="userSpaceOnUse"
       gradientTransform="matrix(0.67567568,0,0,0.67567565,-0.2162133,-0.2162086)" />
    <linearGradient
       id="linearGradient3924-4">
      <stop
         id="stop3926-8"
         style="stop-color:#ffffff;stop-opacity:1"
         offset="0" />
      <stop
         id="stop3928-8"
         style="stop-color:#ffffff;stop-opacity:0.23529412"
         offset="0" />
      <stop
         id="stop3930-8"
         style="stop-color:#ffffff;stop-opacity:0.15686275"
         offset="1" />
      <stop
         id="stop3932-0"
         style="stop-color:#ffffff;stop-opacity:0.39215687"
         offset="1" />
    </linearGradient>
  </defs>
  <metadata
     id="metadata4720">
    <rdf:RDF>
      <cc:Work
         rdf:about="">
        <dc:format>image/svg+xml</dc:format>
        <dc:type
           rdf:resource="http://purl.org/dc/dcmitype/StillImage" />
        <dc:title></dc:title>
      </cc:Work>
    </rdf:RDF>
  </metadata>
  <g
     transform="matrix(0.6999997,0,0,0.44444486,-0.8000003,10.111104)"
     id="g2036"
     style="display:inline">
    <g
       transform="matrix(1.052632,0,0,1.285713,-1.263158,-13.42854)"
       id="g3712"
       style="opacity:0.4">
      <rect
         width="5"
         height="7"
         x="38"
         y="40"
         id="rect2801"
         style="fill:url(#radialGradient3163);fill-opacity:1;stroke:none" />
      <rect
         width="5"
         height="7"
         x="-10"
         y="-47"
         transform="scale(-1,-1)"
         id="rect3696"
         style="fill:url(#radialGradient3165);fill-opacity:1;stroke:none" />
      <rect
         width="28"
         height="7.0000005"
         x="10"
         y="40"
         id="rect3700"
         style="fill:url(#linearGradient3167);fill-opacity:1;stroke:none" />
    </g>
  </g>
  <rect
     width="26"
     height="26"
     rx="1.6154056"
     ry="1.6154056"
     x="3"
     y="-29"
     transform="scale(1,-1)"
     id="rect5505"
     style="color:#000000;display:inline;overflow:visible;visibility:visible;fill:url(#linearGradient3016-7-4);fill-opacity:1;fill-rule:nonzero;stroke:none;stroke-width:0.99999994;marker:none;enable-background:accumulate;clip-rule:nonzero;opacity:1;isolation:auto;mix-blend-mode:normal;color-interpolation:sRGB;color-interpolation-filters:linearRGB;solid-color:#000000;solid-opacity:1;stroke-linecap:butt;stroke-linejoin:miter;stroke-miterlimit:4;stroke-dasharray:none;stroke-dashoffset:0;stroke-opacity:1;filter-blend-mode:normal;filter-gaussianBlur-deviation:0;color-rendering:auto;image-rendering:auto;shape-rendering:auto;text-rendering:auto" />
  <rect
     width="27"
     height="27"
     rx="2.1600001"
     ry="2.1600001"
     x="2.5"
     y="2.5"
     id="rect5505-6-6"
     style="color:#000000;display:inline;overflow:visible;visibility:visible;fill:none;stroke:url(#linearGradient3024);stroke-width:1;stroke-linecap:round;stroke-linejoin:round;stroke-miterlimit:4;stroke-dasharray:none;stroke-dashoffset:0;stroke-opacity:1;marker:none;enable-background:accumulate" />
  <rect
     width="25"
     height="25"
     rx="1.0869565"
     ry="1.0869563"
     x="3.5"
     y="3.5"
     id="rect6741-7"
     style="fill:none;stroke:url(#linearGradient3027);stroke-width:0.99999994;stroke-linecap:round;stroke-linejoin:round;stroke-miterlimit:4;stroke-dasharray:none;stroke-dashoffset:0;stroke-opacity:1" />
  <path
     d="m 6.0000002,9.9297508 4.5906228,4.0016882 c 2.524845,2.200924 4.655719,4.059941 4.735278,4.131153 0.342271,0.306349 0.773325,0.373129 1.155189,0.178961 0.0728,-0.037 2.078232,-1.766487 4.66237,-4.020794 2.494046,-2.17571 4.607063,-4.01788 4.695586,-4.093702 L 26,9.9891978 26,22.363346 25.91471,22.531802 c -0.09573,0.189114 -0.228589,0.317723 -0.417137,0.403831 l -0.127386,0.05818 -9.3212,0.0051 c -7.2548339,0.004 -9.3491595,-0.0024 -9.4472969,-0.02854 C 6.3350172,22.899183 6.1072833,22.678228 6.026081,22.411906 Z M 15.839051,16.242123 C 15.702055,16.197593 15.543058,16.103383 15.399939,15.981915 15.320079,15.914135 13.320264,14.382267 10.9559,12.577758 7.818358,10.183146 6.6523967,9.2784806 6.639789,9.2289138 6.628236,9.1833798 6.641129,9.1367598 6.678187,9.0874265 l 0.055626,-0.073574 9.284424,-0.00693 9.284419,-0.00693 0.06876,0.067854 c 0.07583,0.074847 0.08719,0.1470208 0.03378,0.2145411 -0.01922,0.024334 -1.962211,1.5144074 -4.317706,3.3112974 -2.355489,1.796888 -4.344251,3.319969 -4.419464,3.384623 -0.212809,0.182921 -0.388422,0.265749 -0.587214,0.276928 -0.09447,0.0053 -0.20326,-5.73e-4 -0.241744,-0.01307 z"
     id="path4081"
     style="fill:#43557d" />
  <path
     style="fill:#efb841"
     d="M 26.017578 10.054688 L 23.970703 11.863281 C 25.031815 10.925913 25.820649 10.231275 25.871094 10.1875 L 26.017578 10.058594 L 26.017578 10.054688 z M 26.03125 12.646484 L 26.03125 15.220703 L 25.632812 15.222656 C 25.070543 15.224056 24.499961 15.335462 23.759766 15.591797 C 22.746739 15.942616 21.826577 16.436821 20.195312 17.505859 C 18.409562 18.676133 17.819463 19.029363 16.78125 19.541016 C 14.794464 20.520148 12.929763 21.086548 10.832031 21.349609 C 10.419773 21.401309 8.7625727 21.425462 8.1738281 21.388672 C 7.4004877 21.340352 6.1121878 21.205177 6.0488281 21.166016 C 6.0271741 21.152616 6.0203376 19.553374 6.0253906 15.568359 L 6.0253906 14.78125 L 6.0175781 19.574219 L 5.9414062 19.560547 C 5.8991143 19.552547 5.7757186 19.537074 5.6679688 19.527344 C 5.2980282 19.493924 4.4363947 19.372348 3.9609375 19.287109 C 3.5677459 19.216617 3.2875745 19.144272 3 19.070312 L 3 19.369141 C 3.7969673 19.729113 4.7900345 20.017489 5.9140625 20.199219 L 6.0175781 20.216797 L 6.0175781 20.691406 C 6.0175781 20.952429 6.0095539 21.166043 5.9980469 21.166016 C 5.9462538 21.165862 5.1032353 21.017164 4.7910156 20.953125 C 4.2018762 20.832286 3.6781082 20.656971 3.3652344 20.474609 C 3.1521932 20.350434 3.240108 20.429829 3.5195312 20.615234 C 4.1562862 21.037763 4.9366595 21.372119 5.8632812 21.619141 L 6.0039062 21.65625 L 6.015625 22.027344 C 6.017885 21.833056 6.0324967 21.669922 6.0585938 21.669922 C 6.0804728 21.669922 6.2018429 21.694269 6.3300781 21.724609 C 7.0864248 21.903611 8.0255259 22.004665 9.1386719 22.025391 C 12.266874 22.083641 14.949588 21.501944 18.208984 20.058594 C 19.369947 19.544489 20.654788 18.88202 23.064453 17.558594 C 24.785532 16.613347 25.244395 16.414046 25.826172 16.361328 L 26.03125 16.34375 L 26.03125 16.355469 L 26.150391 16.371094 C 26.606019 16.429294 26.956359 16.773445 27 17.205078 C 27.02082 17.411099 26.961707 17.686247 26.841797 17.9375 C 26.738923 18.153052 26.466452 18.520568 26.304688 18.662109 L 26.185547 18.765625 L 26.298828 18.6875 C 26.683867 18.416211 27.221032 17.890655 27.40625 17.607422 C 27.544784 17.395572 27.601911 17.235356 27.619141 17.007812 C 27.651971 16.574282 27.476461 16.166205 27.097656 15.791016 C 26.823781 15.519758 26.575313 15.371674 26.25 15.289062 L 26.046875 15.238281 L 26.03125 12.646484 z M 15.357422 18.226562 C 15.378802 18.245963 15.401768 18.26375 15.423828 18.28125 C 15.401768 18.26375 15.378812 18.245962 15.357422 18.226562 z M 6.0625 22.644531 C 6.088418 22.726174 6.1300399 22.801175 6.1796875 22.871094 C 6.1267743 22.79697 6.0836827 22.733529 6.0625 22.644531 z M 6.1796875 22.871094 C 6.1896525 22.885053 6.1897043 22.899023 6.2011719 22.914062 C 6.2291229 22.950692 6.2677109 22.987051 6.3125 23.023438 C 6.2614726 22.978717 6.2190903 22.926585 6.1796875 22.871094 z M 6.6328125 23.199219 C 6.637897 23.20062 6.6434981 23.203917 6.6484375 23.205078 C 6.6578175 23.207378 6.7555112 23.209037 6.9023438 23.210938 C 6.7370671 23.207438 6.650467 23.203979 6.6328125 23.199219 z "
     id="path3466" />
  <rect
     width="25"
     height="25"
     rx="1.0869565"
     ry="1.0869563"
     x="3.5"
     y="3.5"
     id="rect6741-7-0"
     style="fill:none;stroke:url(#linearGradient3027-6);stroke-width:0.99999994;stroke-linecap:round;stroke-linejoin:round;stroke-miterlimit:4;stroke-dasharray:none;stroke-dashoffset:0;stroke-opacity:1" />
</svg>
