<?xml version="1.0" encoding="UTF-8" standalone="no"?>
<!-- Created with Inkscape (http://www.inkscape.org/) -->

<svg
   xmlns:dc="http://purl.org/dc/elements/1.1/"
   xmlns:cc="http://creativecommons.org/ns#"
   xmlns:rdf="http://www.w3.org/1999/02/22-rdf-syntax-ns#"
   xmlns:svg="http://www.w3.org/2000/svg"
   xmlns="http://www.w3.org/2000/svg"
   xmlns:xlink="http://www.w3.org/1999/xlink"
   xmlns:sodipodi="http://sodipodi.sourceforge.net/DTD/sodipodi-0.dtd"
   xmlns:inkscape="http://www.inkscape.org/namespaces/inkscape"
   width="48px"
   height="48px"
   id="svg4731"
   version="1.1"
   inkscape:version="0.48.4 r9939"
   sodipodi:docname="elementary.svg">
  <defs
     id="defs4733">
    <linearGradient
       inkscape:collect="always"
       xlink:href="#linearGradient5803-4-6-0-7-7-6"
       id="linearGradient3708-5-0-8"
       gradientUnits="userSpaceOnUse"
       gradientTransform="matrix(0.71090703,0,0,0.71090703,173.11753,-189.86023)"
       x1="-124.80709"
       y1="1589.6294"
       x2="-124.80709"
       y2="1725.1224" />
    <linearGradient
       id="linearGradient5803-4-6-0-7-7-6">
      <stop
         offset="0"
         style="stop-color:#ffffff;stop-opacity:1"
         id="stop5805-6-4-3-0-3-3" />
      <stop
         offset="1"
         style="stop-color:#ecf9fe;stop-opacity:1"
         id="stop5807-5-0-5-5-7-79" />
    </linearGradient>
    <linearGradient
       y2="1725.1224"
       x2="-124.80709"
       y1="1589.6294"
       x1="-124.80709"
       gradientTransform="matrix(0.71090703,0,0,0.71090703,173.11753,-189.86023)"
       gradientUnits="userSpaceOnUse"
       id="linearGradient5822"
       xlink:href="#linearGradient5803-4-6-0-7-7-6"
       inkscape:collect="always" />
    <linearGradient
       inkscape:collect="always"
       xlink:href="#linearGradient3924-1-4-1-6-67"
       id="linearGradient3710-0-4"
       gradientUnits="userSpaceOnUse"
       gradientTransform="translate(4e-6,1.0000059)"
       x1="23.99999"
       y1="4.999989"
       x2="23.99999"
       y2="43" />
    <linearGradient
       id="linearGradient3924-1-4-1-6-67">
      <stop
         offset="0"
         style="stop-color:#ffffff;stop-opacity:1"
         id="stop3926-3-5-2-5-0" />
      <stop
         offset="0.06316455"
         style="stop-color:#ffffff;stop-opacity:0.23529412"
         id="stop3928-91-2-2-7-5" />
      <stop
         offset="0.95056331"
         style="stop-color:#ffffff;stop-opacity:0.15686275"
         id="stop3930-6-2-7-0-7" />
      <stop
         offset="1"
         style="stop-color:#ffffff;stop-opacity:0.39215687"
         id="stop3932-6-2-0-9-4" />
    </linearGradient>
    <radialGradient
       inkscape:collect="always"
       xlink:href="#linearGradient2867-449-88-871-390-598-476-591-434-148-57-177-8-3-9-7"
       id="radialGradient3841-8-5"
       gradientUnits="userSpaceOnUse"
       gradientTransform="matrix(-1.8476883e-7,6.0009309,-9.2482204,-1.801318e-7,116.07329,-50.056214)"
       cx="7.8060555"
       cy="9.9571075"
       fx="7.2758255"
       fy="9.9571075"
       r="12.671875" />
    <linearGradient
       id="linearGradient2867-449-88-871-390-598-476-591-434-148-57-177-8-3-9-7">
      <stop
         id="stop3750-1-0-0-3"
         style="stop-color:#90dbec;stop-opacity:1"
         offset="0" />
      <stop
         id="stop3752-3-7-9-1"
         style="stop-color:#55c1ec;stop-opacity:1"
         offset="0.26238" />
      <stop
         id="stop3754-1-8-8-97"
         style="stop-color:#3689e6;stop-opacity:1"
         offset="0.704952" />
      <stop
         id="stop3756-1-6-2-7"
         style="stop-color:#2b63a0;stop-opacity:1"
         offset="1" />
    </linearGradient>
    <radialGradient
       inkscape:collect="always"
       xlink:href="#linearGradient3688-166-749-8-0-0-9"
       id="radialGradient3714-7-6"
       gradientUnits="userSpaceOnUse"
       gradientTransform="matrix(2.003784,0,0,1.4,27.98813,-17.4)"
       cx="4.9929786"
       cy="43.5"
       fx="4.9929786"
       fy="43.5"
       r="2.5" />
    <linearGradient
       id="linearGradient3688-166-749-8-0-0-9">
      <stop
         offset="0"
         style="stop-color:#181818;stop-opacity:1"
         id="stop2883-3-0-9-1" />
      <stop
         offset="1"
         style="stop-color:#181818;stop-opacity:0"
         id="stop2885-6-6-9-6" />
    </linearGradient>
    <radialGradient
       inkscape:collect="always"
       xlink:href="#linearGradient3688-464-309-68-8-0-8"
       id="radialGradient3716-6-4"
       gradientUnits="userSpaceOnUse"
       gradientTransform="matrix(2.003784,0,0,1.4,-20.01187,-104.4)"
       cx="4.9929786"
       cy="43.5"
       fx="4.9929786"
       fy="43.5"
       r="2.5" />
    <linearGradient
       id="linearGradient3688-464-309-68-8-0-8">
      <stop
         offset="0"
         style="stop-color:#181818;stop-opacity:1"
         id="stop2889-0-7-3-3" />
      <stop
         offset="1"
         style="stop-color:#181818;stop-opacity:0"
         id="stop2891-9-4-0-0" />
    </linearGradient>
    <linearGradient
       id="linearGradient3702-501-757-3-7-0-4">
      <stop
         offset="0"
         style="stop-color:#181818;stop-opacity:0"
         id="stop2895-0-7-7-17" />
      <stop
         offset="0.5"
         style="stop-color:#181818;stop-opacity:1"
         id="stop2897-2-7-4-3" />
      <stop
         offset="1"
         style="stop-color:#181818;stop-opacity:0"
         id="stop2899-8-5-2-9" />
    </linearGradient>
    <linearGradient
       y2="39.999443"
       x2="25.058096"
       y1="47.027729"
       x1="25.058096"
       gradientUnits="userSpaceOnUse"
       id="linearGradient4729"
       xlink:href="#linearGradient3702-501-757-3-7-0-4"
       inkscape:collect="always" />
  </defs>
  <sodipodi:namedview
     id="base"
     pagecolor="#ffffff"
     bordercolor="#666666"
     borderopacity="1.0"
     inkscape:pageopacity="0.0"
     inkscape:pageshadow="2"
     inkscape:zoom="7"
     inkscape:cx="24"
     inkscape:cy="24"
     inkscape:current-layer="layer1"
     showgrid="true"
     inkscape:grid-bbox="true"
     inkscape:document-units="px"
     inkscape:window-width="1280"
     inkscape:window-height="747"
     inkscape:window-x="0"
     inkscape:window-y="28"
     inkscape:window-maximized="1" />
  <metadata
     id="metadata4736">
    <rdf:RDF>
      <cc:Work
         rdf:about="">
        <dc:format>image/svg+xml</dc:format>
        <dc:type
           rdf:resource="http://purl.org/dc/dcmitype/StillImage" />
        <dc:title></dc:title>
      </cc:Work>
    </rdf:RDF>
  </metadata>
  <g
     id="layer1"
     inkscape:label="Layer 1"
     inkscape:groupmode="layer">
    <g
       transform="matrix(1.1578952,0,0,0.6428571,-3.789476,16.035716)"
       id="g3712-5-7-9-7-1"
       style="opacity:0.5">
      <rect
         width="5"
         height="7"
         x="38"
         y="40"
         id="rect2801-3-8-9-8-0"
         style="fill:url(#radialGradient3714-7-6);fill-opacity:1;stroke:none" />
      <rect
         width="5"
         height="7"
         x="-10"
         y="-47"
         transform="scale(-1,-1)"
         id="rect3696-6-3-2-9-9"
         style="fill:url(#radialGradient3716-6-4);fill-opacity:1;stroke:none" />
      <rect
         width="28"
         height="7.0000005"
         x="10"
         y="40"
         id="rect3700-4-1-7-6-7"
         style="fill:url(#linearGradient4729);fill-opacity:1;stroke:none" />
    </g>
    <rect
       width="39"
       height="39"
       rx="2"
       ry="2"
       x="4.5000348"
       y="5.4999957"
       id="rect5505-21-4-3-8-9"
       style="color:#000000;fill:url(#radialGradient3841-8-5);fill-opacity:1;fill-rule:nonzero;stroke:none;stroke-width:1;marker:none;visibility:visible;display:inline;overflow:visible;enable-background:accumulate" />
    <rect
       width="37"
       height="37"
       rx="1"
       ry="1"
       x="5.5000348"
       y="6.4999957"
       id="rect6741-0-0-7-6"
       style="opacity:0.5;fill:none;stroke:url(#linearGradient3710-0-4);stroke-width:1;stroke-linecap:round;stroke-linejoin:round;stroke-miterlimit:4;stroke-opacity:1;stroke-dasharray:none;stroke-dashoffset:0" />
    <rect
       width="39"
       height="39"
       rx="2"
       ry="2"
       x="4.5000348"
       y="5.4999957"
       id="rect5505-21-3-2-6-7-7-9"
       style="opacity:0.3;color:#000000;fill:none;stroke:#000000;stroke-width:1;stroke-linecap:round;stroke-linejoin:round;stroke-miterlimit:4;stroke-opacity:1;stroke-dasharray:none;stroke-dashoffset:0;marker:none;visibility:visible;display:inline;overflow:visible;enable-background:accumulate" />
    <path
       transform="translate(-183,192)"
       sodipodi:type="inkscape:offset"
       inkscape:radius="0.99332553"
       inkscape:original="M 207 -180.53125 C 199.26801 -180.53125 193 -174.26324 193 -166.53125 C 193 -158.79925 199.26801 -152.53125 207 -152.53125 C 214.73198 -152.53125 221 -158.79925 221 -166.53125 C 221 -174.26324 214.73198 -180.53125 207 -180.53125 z M 207 -179.34375 C 212.87848 -179.34375 217.82405 -175.3924 219.34375 -170 C 218.03484 -167.30022 216.17444 -164.87052 213.90625 -162.90625 C 212.81665 -161.96265 211.6266 -161.12353 210.3125 -160.53125 C 208.99841 -159.93896 207.56404 -159.60499 206.125 -159.6875 C 205.04382 -159.7495 203.97808 -160.06881 203.03125 -160.59375 C 205.54052 -161.95344 207.80292 -163.76672 209.65625 -165.9375 C 210.87273 -167.36235 211.93394 -168.98436 212.34375 -170.8125 C 212.54865 -171.72657 212.59778 -172.67678 212.40625 -173.59375 C 212.21475 -174.51072 211.76661 -175.37997 211.125 -176.0625 C 210.49819 -176.72929 209.69469 -177.19412 208.8125 -177.4375 C 207.9303 -177.68089 206.99399 -177.69578 206.09375 -177.53125 C 204.29326 -177.20221 202.66429 -176.17413 201.375 -174.875 C 199.10242 -172.58509 197.71104 -169.34087 197.96875 -166.125 C 198.09761 -164.51706 198.63915 -162.94767 199.5625 -161.625 C 199.7686 -161.32977 199.97623 -161.04772 200.21875 -160.78125 C 198.87364 -160.3105 197.50629 -159.96998 196.09375 -159.78125 C 194.88098 -161.7409 194.15625 -164.05733 194.15625 -166.53125 C 194.15625 -173.61891 199.91234 -179.34375 207 -179.34375 z M 207.09375 -176.75 C 207.99589 -176.749 208.90519 -176.4813 209.625 -175.9375 C 210.27352 -175.44757 210.72759 -174.76576 211 -174 C 211.27241 -173.23423 211.34294 -172.4012 211.25 -171.59375 C 211.06411 -169.97886 210.2655 -168.48121 209.28125 -167.1875 C 207.53853 -164.89683 205.23251 -163.06467 202.65625 -161.78125 C 202.39255 -161.64988 202.1128 -161.52627 201.84375 -161.40625 C 201.28318 -161.8968 200.80374 -162.47656 200.4375 -163.125 C 199.67223 -164.47995 199.41403 -166.10721 199.5625 -167.65625 C 199.71098 -169.20528 200.25465 -170.67989 200.96875 -172.0625 C 201.79672 -173.66557 202.9201 -175.19112 204.5 -176.0625 C 205.28995 -176.4982 206.19162 -176.75122 207.09375 -176.75 z M 219.71875 -168.25 C 219.79395 -167.68802 219.84375 -167.11381 219.84375 -166.53125 C 219.84375 -159.4436 214.08765 -153.6875 207 -153.6875 C 203.0195 -153.6875 199.44767 -155.49936 197.09375 -158.34375 C 198.54665 -158.67375 199.98169 -159.14668 201.34375 -159.75 C 201.93939 -159.29637 202.582 -158.92432 203.28125 -158.65625 C 205.29496 -157.88423 207.58703 -158.01324 209.625 -158.71875 C 211.66296 -159.42427 213.48706 -160.68351 215.0625 -162.15625 C 216.93927 -163.91069 218.51412 -165.98087 219.71875 -168.25 z "
       style="opacity:0.15;color:#000000;fill:#0981ae;fill-opacity:1;fill-rule:nonzero;stroke:none;stroke-width:3.4285717;marker:none;visibility:visible;display:inline;overflow:visible;enable-background:accumulate"
       id="path4050-4"
       d="m 207,-181.53125 c -8.26882,0 -15,6.73118 -15,15 0,8.26883 6.73118,15 15,15 8.26881,0 15,-6.73117 15,-15 0,-8.26882 -6.73119,-15 -15,-15 z m 3.03125,3.6875 c 3.90119,1.0425 6.97412,3.95547 8.1875,7.78125 -1.23708,2.42264 -2.91323,4.62616 -4.96875,6.40625 -1.03933,0.90007 -2.14526,1.67858 -3.34375,2.21875 -1.19475,0.5385 -2.4703,0.82158 -3.71875,0.75 -0.29047,-0.0167 -0.5563,-0.19065 -0.84375,-0.25 1.86388,-1.23751 3.60643,-2.63828 5.0625,-4.34375 1.27296,-1.49101 2.44381,-3.24958 2.90625,-5.3125 0.22963,-1.02437 0.28906,-2.10281 0.0625,-3.1875 -0.22922,-1.09756 -0.75946,-2.14774 -1.53125,-2.96875 -0.49647,-0.52814 -1.17432,-0.78523 -1.8125,-1.09375 z m -6.25,0.125 c -1.16195,0.55279 -2.24245,1.26696 -3.125,2.15625 -2.46021,2.47898 -3.9722,5.97858 -3.6875,9.53125 0.13201,1.64721 0.69815,3.22328 1.59375,4.625 -0.63021,0.17549 -1.26257,0.3578 -1.90625,0.46875 -0.91351,-1.67894 -1.5,-3.55666 -1.5,-5.59375 0,-5.41065 3.67363,-9.77301 8.625,-11.1875 z m 3.3125,1.96875 c 0.70637,7.8e-4 1.41362,0.19797 1.9375,0.59375 0.47279,0.35717 0.81326,0.88722 1.03125,1.5 0.21431,0.60246 0.26504,1.26386 0.1875,1.9375 -0.15691,1.36312 -0.83265,2.73173 -1.75,3.9375 -1.64159,2.15775 -3.83096,3.90433 -6.28125,5.125 -0.0271,0.0135 -0.0658,0.0177 -0.0937,0.0312 -0.29406,-0.31701 -0.60214,-0.62755 -0.8125,-1 -0.64484,-1.14173 -0.88173,-2.5631 -0.75,-3.9375 0.13222,-1.37938 0.60497,-2.72186 1.28125,-4.03125 0.77777,-1.50588 1.80006,-2.86299 3.125,-3.59375 0.65245,-0.35986 1.4095,-0.56347 2.125,-0.5625 z m 11.3125,11.375 c -1.043,5.4805 -5.61985,9.6875 -11.40625,9.6875 -3.13199,0 -5.94443,-1.23956 -8.0625,-3.21875 0.77975,-0.23561 1.56156,-0.46839 2.3125,-0.78125 0.53379,0.35889 1.07262,0.73303 1.6875,0.96875 2.2835,0.87545 4.77983,0.70608 7,-0.0625 2.21009,-0.76511 4.16398,-2.1152 5.8125,-3.65625 0.96872,-0.90557 1.85127,-1.8868 2.65625,-2.9375 z" />
    <g
       id="layer1-2-7-5"
       transform="matrix(0.29166667,0,0,0.29166661,5.333364,-262.79525)"
       style="opacity:0.3;color:#000000;fill:#0981ae;fill-opacity:1;fill-rule:nonzero;stroke:none;stroke-width:3.4285717;marker:none;visibility:visible;display:inline;overflow:visible;enable-background:accumulate">
      <path
         style="color:#000000;fill:#0981ae;fill-opacity:1;fill-rule:nonzero;stroke:none;stroke-width:3.4285717;marker:none;visibility:visible;display:inline;overflow:visible;enable-background:accumulate"
         id="path2993-5-3"
         inkscape:connector-curvature="0"
         d="m 64,940.36218 c -26.509667,0 -48,21.49034 -48,48 0,26.50972 21.490333,48.00002 48,48.00002 26.509664,0 48,-21.4903 48,-48.00002 0,-26.50966 -21.490336,-48 -48,-48 z m 0,4 c 20.15479,0 37.14462,13.55176 42.355,32.04 -4.4877,9.25637 -10.873381,17.59038 -18.650002,24.32502 -3.735795,3.2352 -7.814534,6.1193 -12.32,8.15 -4.505465,2.0307 -9.461145,3.1829 -14.394998,2.9 -3.706902,-0.2126 -7.368725,-1.2452 -10.615,-3.045 8.603218,-4.6618 16.365742,-10.87737 22.720002,-18.32002 4.170803,-4.88521 7.819942,-10.43709 9.224998,-16.705 0.702528,-3.13395 0.821581,-6.4161 0.164998,-9.56 -0.656582,-3.1439 -2.110188,-6.1399 -4.309996,-8.48 -2.149082,-2.28613 -4.97033,-3.90553 -7.995002,-4.74 -3.024672,-0.83446 -6.24345,-0.89907 -9.33,-0.335 -6.173101,1.12814 -11.684554,4.71584 -16.105,9.17 -7.79168,7.8511 -12.608581,18.92915 -11.725,29.955 0.441789,5.51292 2.289248,10.93012 5.455,15.46502 0.706642,1.0122 1.483501,1.9764 2.315,2.89 -4.611828,1.614 -9.386995,2.7629 -14.23,3.41 -4.15805,-6.7188 -6.56,-14.638 -6.56,-23.12002 0,-24.30053 19.69947,-44 44,-44 z m 0.28,8.89 c 3.093024,0.004 6.207066,0.94057 8.675002,2.805 2.223488,1.67977 3.871027,4.06951 4.804998,6.695 0.933971,2.62549 1.173658,5.47662 0.855002,8.245 -0.637319,5.53677 -3.430458,10.61442 -6.804999,15.05 -5.975053,7.85375 -13.917093,14.13972 -22.750003,18.54002 -0.904118,0.4504 -1.822565,0.8785 -2.745,1.29 -1.921973,-1.6819 -3.569314,-3.6768 -4.825,-5.90002 -2.623798,-4.64556 -3.489056,-10.16402 -2.98,-15.475 0.509056,-5.31097 2.331648,-10.42962 4.78,-15.17 2.838755,-5.49625 6.70822,-10.70239 12.125,-13.69 2.70839,-1.4938 5.771973,-2.39419 8.865,-2.39 z m 43.325,29.22 c 0.25778,1.9268 0.395,3.89265 0.395,5.89 0,24.30052 -19.699469,44.00002 -44,44.00002 -13.647425,0 -25.844438,-6.2128 -33.915,-15.965 4.98138,-1.1314 9.850072,-2.7565 14.52,-4.825 2.042194,1.5553 4.297558,2.8309 6.695,3.75 6.904163,2.6469 14.742694,2.2639 21.730003,-0.155 6.987303,-2.4189 13.183469,-6.7606 18.584999,-11.81 6.434617,-6.01522 11.859848,-13.10515 15.989998,-20.88502 z" />
    </g>
    <g
       id="layer1-2-2"
       transform="matrix(0.29166667,0,0,0.29166661,5.333364,-263.79553)"
       style="color:#000000;fill:url(#linearGradient3708-5-0-8);fill-opacity:1;fill-rule:nonzero;stroke:none;stroke-width:3.4285717;marker:none;visibility:visible;display:inline;overflow:visible;enable-background:accumulate">
      <path
         style="color:#000000;fill:url(#linearGradient5822);fill-opacity:1;fill-rule:nonzero;stroke:none;stroke-width:3.4285717;marker:none;visibility:visible;display:inline;overflow:visible;enable-background:accumulate"
         id="path2993-4"
         inkscape:connector-curvature="0"
         d="m 64,940.36218 c -26.509667,0 -48,21.49034 -48,48 0,26.50972 21.490333,48.00002 48,48.00002 26.509664,0 48,-21.4903 48,-48.00002 0,-26.50966 -21.490336,-48 -48,-48 z m 0,4 c 20.15479,0 37.14462,13.55176 42.355,32.04 -4.4877,9.25637 -10.873381,17.59038 -18.650002,24.32502 -3.735795,3.2352 -7.814534,6.1193 -12.32,8.15 -4.505465,2.0307 -9.461145,3.1829 -14.394998,2.9 -3.706902,-0.2126 -7.368725,-1.2452 -10.615,-3.045 8.603218,-4.6618 16.365742,-10.87737 22.720002,-18.32002 4.170803,-4.88521 7.819942,-10.43709 9.224998,-16.705 0.702528,-3.13395 0.821581,-6.4161 0.164998,-9.56 -0.656582,-3.1439 -2.110188,-6.1399 -4.309996,-8.48 -2.149082,-2.28613 -4.97033,-3.90553 -7.995002,-4.74 -3.024672,-0.83446 -6.24345,-0.89907 -9.33,-0.335 -6.173101,1.12814 -11.684554,4.71584 -16.105,9.17 -7.79168,7.8511 -12.608581,18.92915 -11.725,29.955 0.441789,5.51292 2.289248,10.93012 5.455,15.46502 0.706642,1.0122 1.483501,1.9764 2.315,2.89 -4.611828,1.614 -9.386995,2.7629 -14.23,3.41 -4.15805,-6.7188 -6.56,-14.638 -6.56,-23.12002 0,-24.30053 19.69947,-44 44,-44 z m 0.28,8.89 c 3.093024,0.004 6.207066,0.94057 8.675002,2.805 2.223488,1.67977 3.871027,4.06951 4.804998,6.695 0.933971,2.62549 1.173658,5.47662 0.855002,8.245 -0.637319,5.53677 -3.430458,10.61442 -6.804999,15.05 -5.975053,7.85375 -13.917093,14.13972 -22.750003,18.54002 -0.904118,0.4504 -1.822565,0.8785 -2.745,1.29 -1.921973,-1.6819 -3.569314,-3.6768 -4.825,-5.90002 -2.623798,-4.64556 -3.489056,-10.16402 -2.98,-15.475 0.509056,-5.31097 2.331648,-10.42962 4.78,-15.17 2.838755,-5.49625 6.70822,-10.70239 12.125,-13.69 2.70839,-1.4938 5.771973,-2.39419 8.865,-2.39 z m 43.325,29.22 c 0.25778,1.9268 0.395,3.89265 0.395,5.89 0,24.30052 -19.699469,44.00002 -44,44.00002 -13.647425,0 -25.844438,-6.2128 -33.915,-15.965 4.98138,-1.1314 9.850072,-2.7565 14.52,-4.825 2.042194,1.5553 4.297558,2.8309 6.695,3.75 6.904163,2.6469 14.742694,2.2639 21.730003,-0.155 6.987303,-2.4189 13.183469,-6.7606 18.584999,-11.81 6.434617,-6.01522 11.859848,-13.10515 15.989998,-20.88502 z" />
    </g>
  </g>
</svg>
