<?xml version="1.0" encoding="UTF-8" standalone="no"?>
<!-- Created with Inkscape (http://www.inkscape.org/) -->

<svg
   xmlns:dc="http://purl.org/dc/elements/1.1/"
   xmlns:cc="http://creativecommons.org/ns#"
   xmlns:rdf="http://www.w3.org/1999/02/22-rdf-syntax-ns#"
   xmlns:svg="http://www.w3.org/2000/svg"
   xmlns="http://www.w3.org/2000/svg"
   xmlns:xlink="http://www.w3.org/1999/xlink"
   xmlns:sodipodi="http://sodipodi.sourceforge.net/DTD/sodipodi-0.dtd"
   xmlns:inkscape="http://www.inkscape.org/namespaces/inkscape"
   width="48px"
   height="48px"
   id="svg4491"
   version="1.1"
   inkscape:version="0.48.4 r9939"
   sodipodi:docname="google.svg">
  <defs
     id="defs4493">
    <linearGradient
       inkscape:collect="always"
       xlink:href="#linearGradient5803-4-8-1-7"
       id="linearGradient3501-1-1-2"
       gradientUnits="userSpaceOnUse"
       gradientTransform="matrix(0.71090703,0,0,0.71090703,-91.334977,2.139766)"
       x1="167.98311"
       y1="8.50811"
       x2="167.98311"
       y2="54.780239" />
    <linearGradient
       id="linearGradient5803-4-8-1-7">
      <stop
         offset="0"
         style="stop-color:#ffffff;stop-opacity:1;"
         id="stop5805-6-2-6-9" />
      <stop
         offset="1"
         style="stop-color:#ecf3fe;stop-opacity:1;"
         id="stop5807-5-2-6-6" />
    </linearGradient>
    <linearGradient
       inkscape:collect="always"
       xlink:href="#linearGradient3924-1-5-9-9"
       id="linearGradient3507-3-9"
       gradientUnits="userSpaceOnUse"
       gradientTransform="translate(4e-6,1.000006)"
       x1="23.99999"
       y1="4.999989"
       x2="23.99999"
       y2="43" />
    <linearGradient
       id="linearGradient3924-1-5-9-9">
      <stop
         offset="0"
         style="stop-color:#ffffff;stop-opacity:1"
         id="stop3926-3-6-4-4" />
      <stop
         offset="0.06316455"
         style="stop-color:#ffffff;stop-opacity:0.23529412"
         id="stop3928-91-3-6-7" />
      <stop
         offset="0.95056331"
         style="stop-color:#ffffff;stop-opacity:0.15686275"
         id="stop3930-6-6-1-7" />
      <stop
         offset="1"
         style="stop-color:#ffffff;stop-opacity:0.39215687"
         id="stop3932-6-0-7-5" />
    </linearGradient>
    <radialGradient
       inkscape:collect="always"
       xlink:href="#linearGradient2867-449-88-871-390-598-476-591-434-148-57-177-8-3-3-6-4-8-8-8-2-4-7"
       id="radialGradient3510-3-6"
       gradientUnits="userSpaceOnUse"
       gradientTransform="matrix(0,9.4975523,-11.65996,0,140.93055,-79.160969)"
       cx="6.7304144"
       cy="9.9571075"
       fx="6.2001843"
       fy="9.9571075"
       r="12.671875" />
    <linearGradient
       id="linearGradient2867-449-88-871-390-598-476-591-434-148-57-177-8-3-3-6-4-8-8-8-2-4-7">
      <stop
         offset="0"
         style="stop-color:#ff8c7d;stop-opacity:1;"
         id="stop3750-1-0-7-6-6-1-3-9-4-3-2" />
      <stop
         offset="0.26238"
         style="stop-color:#ec614e;stop-opacity:1;"
         id="stop3752-3-7-4-0-32-8-923-0-3-2-8" />
      <stop
         offset="0.704952"
         style="stop-color:#bb3321;stop-opacity:1;"
         id="stop3754-1-8-5-2-7-6-7-1-6-5-0" />
      <stop
         offset="1"
         style="stop-color:#ac301f;stop-opacity:1;"
         id="stop3756-1-6-2-6-6-1-96-6-6-8-0" />
    </linearGradient>
    <radialGradient
       gradientTransform="matrix(2.003784,0,0,1.4,27.98813,-17.4)"
       gradientUnits="userSpaceOnUse"
       xlink:href="#linearGradient3688-166-749-7-1-0"
       id="radialGradient3013-5-7-8"
       fy="43.5"
       fx="4.9929786"
       r="2.5"
       cy="43.5"
       cx="4.9929786" />
    <linearGradient
       id="linearGradient3688-166-749-7-1-0">
      <stop
         offset="0"
         style="stop-color:#181818;stop-opacity:1"
         id="stop2883-2-5-0" />
      <stop
         offset="1"
         style="stop-color:#181818;stop-opacity:0"
         id="stop2885-1-7-2" />
    </linearGradient>
    <radialGradient
       gradientTransform="matrix(2.003784,0,0,1.4,-20.01187,-104.4)"
       gradientUnits="userSpaceOnUse"
       xlink:href="#linearGradient3688-464-309-6-3-0"
       id="radialGradient3015-0-1-5"
       fy="43.5"
       fx="4.9929786"
       r="2.5"
       cy="43.5"
       cx="4.9929786" />
    <linearGradient
       id="linearGradient3688-464-309-6-3-0">
      <stop
         offset="0"
         style="stop-color:#181818;stop-opacity:1"
         id="stop2889-6-4-3" />
      <stop
         offset="1"
         style="stop-color:#181818;stop-opacity:0"
         id="stop2891-0-1-6" />
    </linearGradient>
    <linearGradient
       id="linearGradient3702-501-757-5-0-2">
      <stop
         offset="0"
         style="stop-color:#181818;stop-opacity:0"
         id="stop2895-1-6-6" />
      <stop
         offset="0.5"
         style="stop-color:#181818;stop-opacity:1"
         id="stop2897-3-8-8" />
      <stop
         offset="1"
         style="stop-color:#181818;stop-opacity:0"
         id="stop2899-0-7-3" />
    </linearGradient>
    <linearGradient
       y2="39.999443"
       x2="25.058096"
       y1="47.027729"
       x1="25.058096"
       gradientUnits="userSpaceOnUse"
       id="linearGradient4489"
       xlink:href="#linearGradient3702-501-757-5-0-2"
       inkscape:collect="always" />
  </defs>
  <sodipodi:namedview
     id="base"
     pagecolor="#ffffff"
     bordercolor="#666666"
     borderopacity="1.0"
     inkscape:pageopacity="0.0"
     inkscape:pageshadow="2"
     inkscape:zoom="7"
     inkscape:cx="24"
     inkscape:cy="24"
     inkscape:current-layer="layer1"
     showgrid="true"
     inkscape:grid-bbox="true"
     inkscape:document-units="px"
     inkscape:window-width="1280"
     inkscape:window-height="747"
     inkscape:window-x="0"
     inkscape:window-y="28"
     inkscape:window-maximized="1" />
  <metadata
     id="metadata4496">
    <rdf:RDF>
      <cc:Work
         rdf:about="">
        <dc:format>image/svg+xml</dc:format>
        <dc:type
           rdf:resource="http://purl.org/dc/dcmitype/StillImage" />
        <dc:title></dc:title>
      </cc:Work>
    </rdf:RDF>
  </metadata>
  <g
     id="layer1"
     inkscape:label="Layer 1"
     inkscape:groupmode="layer">
    <g
       style="opacity:0.6"
       id="g3712-5-2-9-9"
       transform="matrix(1.1578952,0,0,0.6428571,-3.789476,16.035716)">
      <rect
         style="fill:url(#radialGradient3013-5-7-8);fill-opacity:1;stroke:none"
         id="rect2801-3-3-3-3"
         y="40"
         x="38"
         height="7"
         width="5" />
      <rect
         style="fill:url(#radialGradient3015-0-1-5);fill-opacity:1;stroke:none"
         id="rect3696-6-5-1-4"
         transform="scale(-1,-1)"
         y="-47"
         x="-10"
         height="7"
         width="5" />
      <rect
         style="fill:url(#linearGradient4489);fill-opacity:1;stroke:none"
         id="rect3700-4-7-5-1"
         y="40"
         x="10"
         height="7.0000005"
         width="28" />
    </g>
    <rect
       style="color:#000000;fill:url(#radialGradient3510-3-6);fill-opacity:1;fill-rule:nonzero;stroke:none;stroke-width:0.99999994;marker:none;visibility:visible;display:inline;overflow:visible;enable-background:accumulate"
       id="rect5505-21-1-5-1"
       y="5.4999957"
       x="4.5000329"
       ry="2"
       rx="2"
       height="39"
       width="39" />
    <rect
       style="opacity:0.35;fill:none;stroke:url(#linearGradient3507-3-9);stroke-width:1;stroke-linecap:round;stroke-linejoin:round;stroke-miterlimit:4;stroke-opacity:1;stroke-dasharray:none;stroke-dashoffset:0"
       id="rect6741-4-2-0"
       y="6.4999957"
       x="5.5000329"
       ry="1"
       rx="1"
       height="37"
       width="37" />
    <rect
       style="opacity:0.4;color:#000000;fill:none;stroke:#5f0c00;stroke-width:1;stroke-linecap:round;stroke-linejoin:round;stroke-miterlimit:4;stroke-opacity:1;stroke-dasharray:none;stroke-dashoffset:0;marker:none;visibility:visible;display:inline;overflow:visible;enable-background:accumulate"
       id="rect5505-21-3-2-5-5-2"
       y="5.4999957"
       x="4.5000329"
       ry="2"
       rx="2"
       height="39"
       width="39" />
    <path
       transform="translate(-125,192)"
       sodipodi:type="inkscape:offset"
       inkscape:radius="1.0301974"
       inkscape:original="M 150.9375 -179.75 C 149.97461 -179.746 148.79688 -179.7229 147.59375 -179.6875 C 142.84129 -179.54751 141.47211 -179.18283 139.8125 -177.625 C 138.60707 -176.4935 138.0625 -175.10115 138.0625 -173.1875 C 138.0625 -169.90501 140.48943 -167.5625 143.90625 -167.5625 C 144.85081 -167.5625 144.91727 -167.4927 144.75 -166.65625 C 144.64362 -166.12439 144.74 -165.40642 145.03125 -164.84375 L 145.53125 -163.875 L 143.75 -163.65625 C 141.69589 -163.3996 139.13916 -162.48167 138.15625 -161.65625 C 137.14065 -160.80339 136.18882 -159.07579 136.1875 -158.09375 C 136.1825 -154.71785 139.32155 -152.78351 144.40625 -153 C 146.71662 -153.0984 147.45363 -153.25555 149.15625 -154.09375 C 151.37285 -155.18498 152.51488 -156.44269 153.03125 -158.34375 C 153.61611 -160.49699 153.03025 -161.77867 150.375 -164.28125 C 149.09849 -165.48437 148.06177 -166.71555 148.0625 -167.03125 C 148.06312 -167.34696 148.813 -168.38295 149.75 -169.3125 C 151.25988 -170.81036 152.125 -172.36601 152.125 -173.65625 C 152.125 -174.56438 151.35692 -176.41729 150.65625 -177.25 L 149.875 -178.1875 L 150.65625 -178.1875 C 151.09139 -178.1875 152.00189 -178.51954 152.65625 -178.90625 L 153.84375 -179.59375 L 152.90625 -179.71875 C 152.64844 -179.74865 151.90039 -179.7537 150.9375 -179.75 z M 144.21875 -178.375 C 146.20158 -178.50633 147.74818 -176.93163 148.53125 -173.875 C 149.15326 -171.44707 148.78373 -169.99085 147.3125 -169.09375 C 145.70426 -168.11311 144.38336 -168.29899 143.0625 -169.6875 C 141.81357 -171.0004 141.1875 -172.71293 141.1875 -174.71875 C 141.1875 -176.63942 141.87685 -177.77925 143.34375 -178.21875 C 143.64415 -178.30875 143.93549 -178.35624 144.21875 -178.375 z M 158.5 -171.5 C 158.223 -171.5 158 -171.277 158 -171 L 158 -168 L 155 -168 C 154.723 -168 154.5 -167.777 154.5 -167.5 L 154.5 -166.5 C 154.5 -166.223 154.723 -166 155 -166 L 158 -166 L 158 -163 C 158 -162.723 158.223 -162.5 158.5 -162.5 L 159.5 -162.5 C 159.777 -162.5 160 -162.723 160 -163 L 160 -166 L 163 -166 C 163.277 -166 163.5 -166.223 163.5 -166.5 L 163.5 -167.5 C 163.5 -167.777 163.277 -168 163 -168 L 160 -168 L 160 -171 C 160 -171.277 159.777 -171.5 159.5 -171.5 L 158.5 -171.5 z M 145.65625 -162.84375 C 146.67802 -162.84175 147.35755 -162.51981 148.40625 -161.75 C 149.99397 -160.5845 150.875 -159.32506 150.875 -158.1875 C 150.875 -157.19324 150.06794 -155.85706 149.09375 -155.21875 C 148.0085 -154.50767 143.97599 -154.2753 142.59375 -154.84375 C 140.23024 -155.81575 139.3125 -156.93412 139.3125 -158.84375 C 139.3125 -160.34721 141.18746 -162.07608 143.3125 -162.53125 C 144.31614 -162.74623 145.04319 -162.84477 145.65625 -162.84375 z "
       style="opacity:0.15;color:#000000;fill:#ae1c09;fill-opacity:1;fill-rule:nonzero;stroke:none;stroke-width:1;marker:none;visibility:visible;display:inline;overflow:visible;enable-background:accumulate"
       id="path4031"
       d="m 150.9375,-180.78125 c -0.97588,0.004 -2.16528,0.0269 -3.375,0.0625 -2.39964,0.0707 -3.98574,0.18761 -5.28125,0.53125 -1.29551,0.34364 -2.28387,0.96429 -3.1875,1.8125 -1.40003,1.31416 -2.0625,3.07841 -2.0625,5.1875 0,3.7462 2.92854,6.5594 6.75,6.625 -0.0724,0.61125 0.0417,1.21299 0.28125,1.8125 l -0.4375,0.0625 c -1.12481,0.14054 -2.32048,0.45504 -3.40625,0.84375 -1.08577,0.38871 -2.03445,0.83159 -2.71875,1.40625 -0.64876,0.5448 -1.20772,1.27542 -1.625,2.03125 -0.41728,0.75583 -0.71764,1.48946 -0.71875,2.3125 -0.003,2.00755 1.01709,3.74762 2.6875,4.78125 1.67041,1.03363 3.91212,1.45793 6.59375,1.34375 2.34765,-0.1 3.42497,-0.3198 5.1875,-1.1875 2.37222,-1.16784 3.81929,-2.74531 4.40625,-4.90625 0.32879,-1.21049 0.31776,-2.40618 -0.1875,-3.53125 -0.50526,-1.12507 -1.38602,-2.15194 -2.75,-3.4375 -0.61192,-0.57674 -1.17836,-1.16838 -1.5625,-1.625 -0.14851,-0.17653 -0.2582,-0.28637 -0.34375,-0.40625 0.0547,-0.0873 0.10106,-0.16361 0.1875,-0.28125 0.26603,-0.36207 0.66355,-0.82322 1.09375,-1.25 1.62339,-1.61046 2.6875,-3.31175 2.6875,-5.0625 0,-0.74451 -0.25291,-1.46489 -0.5625,-2.21875 -0.23361,-0.56883 -0.55169,-1.05293 -0.875,-1.53125 0.0687,-0.0236 0.14749,-0.006 0.21875,-0.0312 0.4242,-0.15315 0.85383,-0.35962 1.25,-0.59375 l 0,0.0312 1.1875,-0.6875 a 1.0303004,1.0303004 0 0 0 -0.40625,-1.9375 l -0.9375,-0.125 c -0.47115,-0.0546 -1.12521,-0.035 -2.09375,-0.0312 z m -6.65625,3.4375 c 0.70286,-0.0465 1.25392,0.17087 1.8125,0.75 0.55858,0.57913 1.07588,1.55719 1.4375,2.96875 0.28654,1.11849 0.32268,1.93788 0.1875,2.46875 -0.13518,0.53087 -0.3807,0.84798 -0.9375,1.1875 -0.67238,0.40999 -1.15465,0.49458 -1.5625,0.4375 -0.40785,-0.0571 -0.8482,-0.28836 -1.40625,-0.875 -1.05909,-1.11333 -1.59375,-2.52105 -1.59375,-4.3125 0,-0.83709 0.15288,-1.41907 0.375,-1.78125 0.22212,-0.36218 0.48985,-0.55654 1.03125,-0.71875 0.22042,-0.066 0.4409,-0.11074 0.65625,-0.125 z m 14.21875,4.8125 c -0.82991,0 -1.53125,0.70134 -1.53125,1.53125 l 0,1.96875 -1.96875,0 c -0.82991,0 -1.53125,0.70134 -1.53125,1.53125 l 0,1 c 0,0.82991 0.70134,1.53125 1.53125,1.53125 l 1.96875,0 0,1.96875 c 0,0.82991 0.70134,1.53125 1.53125,1.53125 l 1,0 c 0.82991,0 1.53125,-0.70134 1.53125,-1.53125 l 0,-1.96875 1.96875,0 c 0.82991,0 1.53125,-0.70134 1.53125,-1.53125 l 0,-1 c 0,-0.82991 -0.70134,-1.53125 -1.53125,-1.53125 l -1.96875,0 0,-1.96875 c 0,-0.82991 -0.70134,-1.53125 -1.53125,-1.53125 l -1,0 z m -12.84375,10.71875 c 0.80627,0.002 1.13698,0.18098 2.125,0.90625 1.44888,1.06358 2.0625,2.11311 2.0625,2.71875 0,0.43677 -0.67141,1.67369 -1.3125,2.09375 -0.0482,0.0316 -0.44925,0.21269 -0.9375,0.3125 -0.48825,0.0998 -1.07128,0.15197 -1.6875,0.1875 -1.23243,0.0711 -2.58671,-0.0561 -2.90625,-0.1875 -1.0966,-0.45098 -1.75949,-0.92946 -2.125,-1.375 -0.36551,-0.44554 -0.53125,-0.89772 -0.53125,-1.6875 0,-0.32348 0.28035,-0.92052 0.875,-1.46875 0.59465,-0.54823 1.4505,-1.03412 2.3125,-1.21875 0.96705,-0.20714 1.62369,-0.28208 2.125,-0.28125 z" />
    <path
       inkscape:connector-curvature="0"
       style="opacity:0.3;color:#000000;fill:#ae1c09;fill-opacity:1;fill-rule:nonzero;stroke:none;stroke-width:1;marker:none;visibility:visible;display:inline;overflow:visible;enable-background:accumulate"
       d="m 25.937504,12.249566 c -0.96289,0.004 -2.14062,0.0271 -3.34375,0.0625 -4.75246,0.13999 -6.12164,0.50467 -7.78125,2.0625 -1.20543,1.1315 -1.75,2.52385 -1.75,4.4375 0,3.28249 2.42693,5.625 5.84375,5.625 0.94456,0 1.01102,0.0698 0.84375,0.90625 -0.10638,0.53186 -0.01,1.24983 0.28125,1.8125 l 0.5,0.96875 -1.78125,0.21875 c -2.05411,0.25665 -4.61084,1.17458 -5.59375,2 -1.0156,0.85286 -1.96743,2.58046 -1.96875,3.5625 -0.005,3.3759 3.13405,5.31024 8.21875,5.09375 2.31037,-0.0984 3.04738,-0.25555 4.75,-1.09375 2.2166,-1.09123 3.35863,-2.34894 3.875,-4.25 0.58486,-2.15324 -0.001,-3.43492 -2.65625,-5.9375 -1.27651,-1.20312 -2.31323,-2.4343 -2.3125,-2.75 6.2e-4,-0.31571 0.7505,-1.3517 1.6875,-2.28125 1.50988,-1.49786 2.375,-3.05351 2.375,-4.34375 0,-0.90813 -0.76808,-2.76104 -1.46875,-3.59375 l -0.78125,-0.9375 0.78125,0 c 0.43514,0 1.34564,-0.33204 2,-0.71875 l 1.1875,-0.6875 -0.9375,-0.125 c -0.25781,-0.0299 -1.00586,-0.0349 -1.96875,-0.0312 z m -6.71875,1.375 c 1.98283,-0.13133 3.52943,1.44337 4.3125,4.5 0.62201,2.42793 0.25248,3.88415 -1.21875,4.78125 -1.60824,0.98064 -2.92914,0.79476 -4.25,-0.59375 -1.24893,-1.3129 -1.875,-3.02543 -1.875,-5.03125 0,-1.92067 0.68935,-3.0605 2.15625,-3.5 0.3004,-0.09 0.59174,-0.13749 0.875,-0.15625 z m 14.28125,6.875 c -0.277,0 -0.5,0.223 -0.5,0.5 l 0,3 -3,0 c -0.277,0 -0.5,0.223 -0.5,0.5 l 0,1 c 0,0.277 0.223,0.5 0.5,0.5 l 3,0 0,3 c 0,0.277 0.223,0.5 0.5,0.5 l 1,0 c 0.277,0 0.5,-0.223 0.5,-0.5 l 0,-3 3,0 c 0.277,0 0.5,-0.223 0.5,-0.5 l 0,-1 c 0,-0.277 -0.223,-0.5 -0.5,-0.5 l -3,0 0,-3 c 0,-0.277 -0.223,-0.5 -0.5,-0.5 l -1,0 z m -12.84375,8.65625 c 1.02177,0.002 1.7013,0.32394 2.75,1.09375 1.58772,1.1655 2.46875,2.42494 2.46875,3.5625 0,0.99426 -0.80706,2.33044 -1.78125,2.96875 -1.08525,0.71108 -5.11776,0.94345 -6.5,0.375 -2.36351,-0.972 -3.28125,-2.09037 -3.28125,-4 0,-1.50346 1.87496,-3.23233 4,-3.6875 1.00364,-0.21498 1.73069,-0.31352 2.34375,-0.3125 z"
       id="path3706-3" />
    <path
       inkscape:connector-curvature="0"
       style="color:#000000;fill:url(#linearGradient3501-1-1-2);fill-opacity:1;fill-rule:nonzero;stroke:none;stroke-width:1;marker:none;visibility:visible;display:inline;overflow:visible;enable-background:accumulate"
       d="m 25.937504,11.249996 c -0.96289,0.004 -2.14062,0.0271 -3.34375,0.0625 -4.75246,0.13999 -6.12164,0.50467 -7.78125,2.0625 -1.20543,1.1315 -1.75,2.52385 -1.75,4.4375 0,3.28249 2.42693,5.625 5.84375,5.625 0.94456,0 1.01102,0.0698 0.84375,0.90625 -0.10638,0.53186 -0.01,1.24983 0.28125,1.8125 l 0.5,0.96875 -1.78125,0.21875 c -2.05411,0.25665 -4.61084,1.17458 -5.59375,2 -1.0156,0.85286 -1.96743,2.58046 -1.96875,3.5625 -0.005,3.3759 3.13405,5.31024 8.21875,5.09375 2.31037,-0.0984 3.04738,-0.25555 4.75,-1.09375 2.2166,-1.09123 3.35863,-2.34894 3.875,-4.25 0.58486,-2.15324 -0.001,-3.43492 -2.65625,-5.9375 -1.27651,-1.20312 -2.31323,-2.4343 -2.3125,-2.75 6.2e-4,-0.31571 0.7505,-1.3517 1.6875,-2.28125 1.50988,-1.49786 2.375,-3.05351 2.375,-4.34375 0,-0.90813 -0.76808,-2.76104 -1.46875,-3.59375 l -0.78125,-0.9375 0.78125,0 c 0.43514,0 1.34564,-0.33204 2,-0.71875 l 1.1875,-0.6875 -0.9375,-0.125 c -0.25781,-0.0299 -1.00586,-0.03495 -1.96875,-0.03125 z m -6.71875,1.375 c 1.98283,-0.13133 3.52943,1.44337 4.3125,4.5 0.62201,2.42793 0.25248,3.88415 -1.21875,4.78125 -1.60824,0.98064 -2.92914,0.79476 -4.25,-0.59375 -1.24893,-1.3129 -1.875,-3.02543 -1.875,-5.03125 0,-1.92067 0.68935,-3.0605 2.15625,-3.5 0.3004,-0.09 0.59174,-0.13749 0.875,-0.15625 z m 14.28125,6.875 c -0.277,0 -0.5,0.223 -0.5,0.5 l 0,3 -3,0 c -0.277,0 -0.5,0.223 -0.5,0.5 l 0,1 c 0,0.277 0.223,0.5 0.5,0.5 l 3,0 0,3 c 0,0.277 0.223,0.5 0.5,0.5 l 1,0 c 0.277,0 0.5,-0.223 0.5,-0.5 l 0,-3 3,0 c 0.277,0 0.5,-0.223 0.5,-0.5 l 0,-1 c 0,-0.277 -0.223,-0.5 -0.5,-0.5 l -3,0 0,-3 c 0,-0.277 -0.223,-0.5 -0.5,-0.5 l -1,0 z m -12.84375,8.65625 c 1.02177,0.002 1.7013,0.32394 2.75,1.09375 1.58772,1.1655 2.46875,2.42494 2.46875,3.5625 0,0.99426 -0.80706,2.33044 -1.78125,2.96875 -1.08525,0.71108 -5.11776,0.94345 -6.5,0.375 -2.36351,-0.972 -3.28125,-2.09037 -3.28125,-4 0,-1.50346 1.87496,-3.23233 4,-3.6875 1.00364,-0.21498 1.73069,-0.31352 2.34375,-0.3125 z"
       id="path3706" />
  </g>
</svg>
