<?xml version="1.0" encoding="UTF-8" standalone="no"?>
<!-- Created with Inkscape (http://www.inkscape.org/) -->

<svg
   xmlns:dc="http://purl.org/dc/elements/1.1/"
   xmlns:cc="http://creativecommons.org/ns#"
   xmlns:rdf="http://www.w3.org/1999/02/22-rdf-syntax-ns#"
   xmlns:svg="http://www.w3.org/2000/svg"
   xmlns="http://www.w3.org/2000/svg"
   xmlns:xlink="http://www.w3.org/1999/xlink"
   xmlns:sodipodi="http://sodipodi.sourceforge.net/DTD/sodipodi-0.dtd"
   xmlns:inkscape="http://www.inkscape.org/namespaces/inkscape"
   width="48px"
   height="48px"
   id="svg4906"
   version="1.1"
   inkscape:version="0.48.4 r9939"
   sodipodi:docname="facebook.svg">
  <defs
     id="defs4908">
    <linearGradient
       inkscape:collect="always"
       xlink:href="#linearGradient3924-1-693"
       id="linearGradient3154-5"
       gradientUnits="userSpaceOnUse"
       gradientTransform="translate(4e-6,1.000006)"
       x1="23.99999"
       y1="4.999989"
       x2="23.99999"
       y2="43" />
    <linearGradient
       id="linearGradient3924-1-693">
      <stop
         id="stop3926-3-8"
         style="stop-color:#ffffff;stop-opacity:1"
         offset="0" />
      <stop
         id="stop3928-91-38"
         style="stop-color:#ffffff;stop-opacity:0.23529412"
         offset="0.06316455" />
      <stop
         id="stop3930-6-9"
         style="stop-color:#ffffff;stop-opacity:0.15686275"
         offset="0.95056331" />
      <stop
         id="stop3932-6-7"
         style="stop-color:#ffffff;stop-opacity:0.39215687"
         offset="1" />
    </linearGradient>
    <linearGradient
       inkscape:collect="always"
       xlink:href="#linearGradient5803-4-0-6"
       id="linearGradient3148-1-3-41"
       gradientUnits="userSpaceOnUse"
       gradientTransform="matrix(0.71090703,0,0,0.71090703,-91.334988,2.139766)"
       x1="167.98311"
       y1="8.50811"
       x2="167.98311"
       y2="54.780239" />
    <linearGradient
       id="linearGradient5803-4-0-6">
      <stop
         id="stop5805-6-5-8"
         style="stop-color:#ffffff;stop-opacity:1;"
         offset="0" />
      <stop
         id="stop5807-5-1-5"
         style="stop-color:#ecf3fe;stop-opacity:1;"
         offset="1" />
    </linearGradient>
    <radialGradient
       inkscape:collect="always"
       xlink:href="#linearGradient2867-449-88-871-390-598-476-591-434-148-57-177-8-3-3-6-4-8-8-8-02"
       id="radialGradient3157-9"
       gradientUnits="userSpaceOnUse"
       gradientTransform="matrix(0,9.4975523,-11.65996,0,140.93055,-79.160974)"
       cx="6.7304144"
       cy="9.9571075"
       fx="6.2001843"
       fy="9.9571075"
       r="12.671875" />
    <linearGradient
       id="linearGradient2867-449-88-871-390-598-476-591-434-148-57-177-8-3-3-6-4-8-8-8-02">
      <stop
         id="stop3750-1-0-7-6-6-1-3-9-8"
         style="stop-color:#2a81c2;stop-opacity:1;"
         offset="0" />
      <stop
         id="stop3752-3-7-4-0-32-8-923-0-9"
         style="stop-color:#4c80ce;stop-opacity:1;"
         offset="0.26238" />
      <stop
         id="stop3754-1-8-5-2-7-6-7-1-35"
         style="stop-color:#30427c;stop-opacity:1;"
         offset="0.704952" />
      <stop
         id="stop3756-1-6-2-6-6-1-96-6-7"
         style="stop-color:#363b6e;stop-opacity:1;"
         offset="1" />
    </linearGradient>
    <radialGradient
       cx="4.9929786"
       cy="43.5"
       r="2.5"
       fx="4.9929786"
       fy="43.5"
       id="radialGradient3013-6"
       xlink:href="#linearGradient3688-166-749-81"
       gradientUnits="userSpaceOnUse"
       gradientTransform="matrix(2.003784,0,0,1.4,27.98813,-17.4)" />
    <linearGradient
       id="linearGradient3688-166-749-81">
      <stop
         id="stop2883-79"
         style="stop-color:#181818;stop-opacity:1"
         offset="0" />
      <stop
         id="stop2885-13"
         style="stop-color:#181818;stop-opacity:0"
         offset="1" />
    </linearGradient>
    <radialGradient
       cx="4.9929786"
       cy="43.5"
       r="2.5"
       fx="4.9929786"
       fy="43.5"
       id="radialGradient3015-01"
       xlink:href="#linearGradient3688-464-309-86"
       gradientUnits="userSpaceOnUse"
       gradientTransform="matrix(2.003784,0,0,1.4,-20.01187,-104.4)" />
    <linearGradient
       id="linearGradient3688-464-309-86">
      <stop
         id="stop2889-03"
         style="stop-color:#181818;stop-opacity:1"
         offset="0" />
      <stop
         id="stop2891-6"
         style="stop-color:#181818;stop-opacity:0"
         offset="1" />
    </linearGradient>
    <linearGradient
       id="linearGradient3702-501-757-1">
      <stop
         id="stop2895-5"
         style="stop-color:#181818;stop-opacity:0"
         offset="0" />
      <stop
         id="stop2897-26"
         style="stop-color:#181818;stop-opacity:1"
         offset="0.5" />
      <stop
         id="stop2899-89"
         style="stop-color:#181818;stop-opacity:0"
         offset="1" />
    </linearGradient>
    <linearGradient
       y2="39.999443"
       x2="25.058096"
       y1="47.027729"
       x1="25.058096"
       gradientUnits="userSpaceOnUse"
       id="linearGradient4904"
       xlink:href="#linearGradient3702-501-757-1"
       inkscape:collect="always" />
  </defs>
  <sodipodi:namedview
     id="base"
     pagecolor="#ffffff"
     bordercolor="#666666"
     borderopacity="1.0"
     inkscape:pageopacity="0.0"
     inkscape:pageshadow="2"
     inkscape:zoom="7"
     inkscape:cx="24"
     inkscape:cy="24"
     inkscape:current-layer="layer1"
     showgrid="true"
     inkscape:grid-bbox="true"
     inkscape:document-units="px"
     inkscape:window-width="1280"
     inkscape:window-height="747"
     inkscape:window-x="0"
     inkscape:window-y="28"
     inkscape:window-maximized="1" />
  <metadata
     id="metadata4911">
    <rdf:RDF>
      <cc:Work
         rdf:about="">
        <dc:format>image/svg+xml</dc:format>
        <dc:type
           rdf:resource="http://purl.org/dc/dcmitype/StillImage" />
        <dc:title></dc:title>
      </cc:Work>
    </rdf:RDF>
  </metadata>
  <g
     id="layer1"
     inkscape:label="Layer 1"
     inkscape:groupmode="layer">
    <g
       style="opacity:0.6"
       id="g3712-5-6"
       transform="matrix(1.1578952,0,0,0.6428571,-3.789476,16.035716)">
      <rect
         style="fill:url(#radialGradient3013-6);fill-opacity:1;stroke:none"
         id="rect2801-3-58"
         y="40"
         x="38"
         height="7"
         width="5" />
      <rect
         style="fill:url(#radialGradient3015-01);fill-opacity:1;stroke:none"
         id="rect3696-6-8"
         transform="scale(-1,-1)"
         y="-47"
         x="-10"
         height="7"
         width="5" />
      <rect
         style="fill:url(#linearGradient4904);fill-opacity:1;stroke:none"
         id="rect3700-4-0"
         y="40"
         x="10"
         height="7.0000005"
         width="28" />
    </g>
    <rect
       style="color:#000000;fill:url(#radialGradient3157-9);fill-opacity:1;fill-rule:nonzero;stroke:none;stroke-width:0.99999994;marker:none;visibility:visible;display:inline;overflow:visible;enable-background:accumulate"
       id="rect5505-21-8"
       y="5.4999962"
       x="4.5000124"
       ry="2"
       rx="2"
       height="39"
       width="39" />
    <rect
       style="opacity:0.45;color:#000000;fill:none;stroke:#00152e;stroke-width:1;stroke-linecap:round;stroke-linejoin:round;stroke-miterlimit:4;stroke-opacity:1;stroke-dasharray:none;stroke-dashoffset:0;marker:none;visibility:visible;display:inline;overflow:visible;enable-background:accumulate"
       id="rect5505-21-3-2-73"
       y="5.4999962"
       x="4.5000124"
       ry="2"
       rx="2"
       height="39"
       width="39" />
    <path
       inkscape:connector-curvature="0"
       style="opacity:0.15;color:#000000;fill:#042658;fill-opacity:1;fill-rule:nonzero;stroke:none;stroke-width:1;marker:none;visibility:visible;display:inline;overflow:visible;enable-background:accumulate"
       d="m 38,9.749996 -4.5,0.0312 c -2.09815,0.0229 -3.841034,0.34021 -5.28125,1.09375 -1.440216,0.75355 -2.513772,1.93394 -3.25,3.4375 -0.860502,1.75736 -1.119996,3.46777 -1.125,6.8125 l 0,1.65625 -3.84375,0 a 1.2642279,1.2642279 0 0 0 -1.25,1.25 l 0,6 a 1.2642279,1.2642279 0 0 0 1.25,1.25 l 3.75,-0.0312 0.09375,13.250004 8.40625,0 0,-13.218754 4.28125,-0.0312 a 1.2642279,1.2642279 0 0 0 1.25,-1.15625 l 0.46875,-6 A 1.2642279,1.2642279 0 0 0 37,22.749996 l -4.71875,0 0.0625,-1.84375 c 0.03366,-1.12207 0.120676,-1.71647 0.1875,-1.96875 0.06682,-0.25227 0.07131,-0.16487 0.25,-0.40625 0.233873,-0.31586 0.201055,-0.3137 0.5,-0.40625 0.298945,-0.0926 0.971408,-0.18217 2.15625,-0.21875 l 2.59375,-0.0625 a 1.2642279,1.2642279 0 0 0 1.21875,-1.25 l 0,-2.6875 0,-2.90625 a 1.2642279,1.2642279 0 0 0 -1.25,-1.25 z"
       id="path3976-3" />
    <path
       inkscape:connector-curvature="0"
       style="opacity:0.3;color:#000000;fill:#042658;fill-opacity:1;fill-rule:nonzero;stroke:none;stroke-width:1;marker:none;visibility:visible;display:inline;overflow:visible;enable-background:accumulate"
       d="m 38,10.999996 -4.5,0.0312 c -3.953786,0.0432 -6.114076,1.20481 -7.40625,3.84375 -0.77453,1.58179 -0.99508,2.96125 -1,6.25 l 0,2.90625 -5.09375,0 0,6 5,-0.0312 0.09375,14.500008 5.90625,0 0,-14.468748 5.53125,-0.0312 0.46875,-6 -6,0 0.09375,-3.125 c 0.06986,-2.32871 0.31287,-2.6299 0.65625,-3.09375 0.63705,-0.86037 1.22718,-1.05001 3.65625,-1.125 L 38,16.593746 l 0,-2.6875 0,-2.90625 z"
       id="path3813-6-6" />
    <path
       style="color:#000000;fill:url(#linearGradient3148-1-3-41);fill-opacity:1;fill-rule:nonzero;stroke:none;stroke-width:1;marker:none;visibility:visible;display:inline;overflow:visible;enable-background:accumulate"
       d="m 33.496948,10.031246 c -3.953786,0.0432 -6.114076,1.20481 -7.40625,3.84375 -0.77453,1.58179 -0.99508,2.96125 -1,6.25 l -5e-4,2.90625 -5.090198,0 0,6 5,-0.0312 0.0907,15.000004 5.909302,0 -5e-4,-14.968754 5.528198,-0.0312 0.472302,-6 -6,0 0.09375,-3.125 c 0.06986,-2.32871 0.309818,-2.6299 0.653198,-3.09375 0.63705,-0.86037 1.22718,-1.05001 3.65625,-1.125 l 2.5968,-0.0625 0,-2.6875 0,-2.90635 z"
       id="path3813-2"
       inkscape:connector-curvature="0"
       sodipodi:nodetypes="cscccccccccccscccccc" />
    <rect
       style="opacity:0.4;fill:none;stroke:url(#linearGradient3154-5);stroke-width:1;stroke-linecap:round;stroke-linejoin:round;stroke-miterlimit:4;stroke-opacity:1;stroke-dasharray:none;stroke-dashoffset:0"
       id="rect6741-47"
       y="6.4999962"
       x="5.5000124"
       ry="1"
       rx="1"
       height="37"
       width="37" />
  </g>
</svg>
