<?xml version="1.0" encoding="UTF-8" standalone="no"?>
<!-- Created with Inkscape (http://www.inkscape.org/) -->

<svg
   xmlns:dc="http://purl.org/dc/elements/1.1/"
   xmlns:cc="http://creativecommons.org/ns#"
   xmlns:rdf="http://www.w3.org/1999/02/22-rdf-syntax-ns#"
   xmlns:svg="http://www.w3.org/2000/svg"
   xmlns="http://www.w3.org/2000/svg"
   xmlns:xlink="http://www.w3.org/1999/xlink"
   xmlns:sodipodi="http://sodipodi.sourceforge.net/DTD/sodipodi-0.dtd"
   xmlns:inkscape="http://www.inkscape.org/namespaces/inkscape"
   width="48px"
   height="48px"
   id="svg5291"
   version="1.1"
   inkscape:version="0.48.4 r9939"
   sodipodi:docname="iCloud.svg">
  <defs
     id="defs5293">
    <linearGradient
       inkscape:collect="always"
       xlink:href="#linearGradient5803-4-8-3"
       id="linearGradient3501-1-2"
       gradientUnits="userSpaceOnUse"
       gradientTransform="matrix(0.71090703,0,0,0.71090703,-91.33498,2.858516)"
       x1="167.98311"
       y1="8.50811"
       x2="167.98311"
       y2="54.780239" />
    <linearGradient
       id="linearGradient5803-4-8-3">
      <stop
         offset="0"
         style="stop-color:#ffffff;stop-opacity:1;"
         id="stop5805-6-2-1" />
      <stop
         offset="1"
         style="stop-color:#ecf3fe;stop-opacity:1;"
         id="stop5807-5-2-66" />
    </linearGradient>
    <linearGradient
       inkscape:collect="always"
       xlink:href="#linearGradient3924-1-5-9"
       id="linearGradient3507-3"
       gradientUnits="userSpaceOnUse"
       gradientTransform="translate(4e-6,1.000006)"
       x1="23.99999"
       y1="4.999989"
       x2="23.99999"
       y2="43" />
    <linearGradient
       id="linearGradient3924-1-5-9">
      <stop
         offset="0"
         style="stop-color:#ffffff;stop-opacity:1"
         id="stop3926-3-6-4" />
      <stop
         offset="0.06316455"
         style="stop-color:#ffffff;stop-opacity:0.23529412"
         id="stop3928-91-3-6" />
      <stop
         offset="0.95056331"
         style="stop-color:#ffffff;stop-opacity:0.15686275"
         id="stop3930-6-6-1" />
      <stop
         offset="1"
         style="stop-color:#ffffff;stop-opacity:0.39215687"
         id="stop3932-6-0-7" />
    </linearGradient>
    <linearGradient
       gradientTransform="translate(-125,132)"
       inkscape:collect="always"
       xlink:href="#linearGradient6016"
       id="linearGradient6022"
       x1="143.433"
       y1="-126.85847"
       x2="143.433"
       y2="-87.425797"
       gradientUnits="userSpaceOnUse" />
    <linearGradient
       inkscape:collect="always"
       id="linearGradient6016">
      <stop
         style="stop-color:#5656d0;stop-opacity:1"
         offset="0"
         id="stop6018" />
      <stop
         style="stop-color:#54c6fa;stop-opacity:1"
         offset="1"
         id="stop6020" />
    </linearGradient>
    <radialGradient
       gradientTransform="matrix(2.003784,0,0,1.4,27.98813,-17.4)"
       gradientUnits="userSpaceOnUse"
       xlink:href="#linearGradient3688-166-749-7-1"
       id="radialGradient3013-5-7"
       fy="43.5"
       fx="4.9929786"
       r="2.5"
       cy="43.5"
       cx="4.9929786" />
    <linearGradient
       id="linearGradient3688-166-749-7-1">
      <stop
         offset="0"
         style="stop-color:#181818;stop-opacity:1"
         id="stop2883-2-5" />
      <stop
         offset="1"
         style="stop-color:#181818;stop-opacity:0"
         id="stop2885-1-7" />
    </linearGradient>
    <radialGradient
       gradientTransform="matrix(2.003784,0,0,1.4,-20.01187,-104.4)"
       gradientUnits="userSpaceOnUse"
       xlink:href="#linearGradient3688-464-309-6-3"
       id="radialGradient3015-0-1"
       fy="43.5"
       fx="4.9929786"
       r="2.5"
       cy="43.5"
       cx="4.9929786" />
    <linearGradient
       id="linearGradient3688-464-309-6-3">
      <stop
         offset="0"
         style="stop-color:#181818;stop-opacity:1"
         id="stop2889-6-4" />
      <stop
         offset="1"
         style="stop-color:#181818;stop-opacity:0"
         id="stop2891-0-1" />
    </linearGradient>
    <linearGradient
       id="linearGradient3702-501-757-5-0">
      <stop
         offset="0"
         style="stop-color:#181818;stop-opacity:0"
         id="stop2895-1-6" />
      <stop
         offset="0.5"
         style="stop-color:#181818;stop-opacity:1"
         id="stop2897-3-8" />
      <stop
         offset="1"
         style="stop-color:#181818;stop-opacity:0"
         id="stop2899-0-7" />
    </linearGradient>
    <linearGradient
       y2="39.999443"
       x2="25.058096"
       y1="47.027729"
       x1="25.058096"
       gradientUnits="userSpaceOnUse"
       id="linearGradient5289"
       xlink:href="#linearGradient3702-501-757-5-0"
       inkscape:collect="always" />
  </defs>
  <sodipodi:namedview
     id="base"
     pagecolor="#ffffff"
     bordercolor="#666666"
     borderopacity="1.0"
     inkscape:pageopacity="0.0"
     inkscape:pageshadow="2"
     inkscape:zoom="7"
     inkscape:cx="24"
     inkscape:cy="24"
     inkscape:current-layer="layer1"
     showgrid="true"
     inkscape:grid-bbox="true"
     inkscape:document-units="px"
     inkscape:window-width="1280"
     inkscape:window-height="747"
     inkscape:window-x="0"
     inkscape:window-y="28"
     inkscape:window-maximized="1" />
  <metadata
     id="metadata5296">
    <rdf:RDF>
      <cc:Work
         rdf:about="">
        <dc:format>image/svg+xml</dc:format>
        <dc:type
           rdf:resource="http://purl.org/dc/dcmitype/StillImage" />
        <dc:title></dc:title>
      </cc:Work>
    </rdf:RDF>
  </metadata>
  <g
     id="layer1"
     inkscape:label="Layer 1"
     inkscape:groupmode="layer">
    <g
       style="opacity:0.4"
       id="g3712-5-2-9"
       transform="matrix(1.1578952,0,0,0.6428571,-3.789476,16.035716)">
      <rect
         style="fill:url(#radialGradient3013-5-7);fill-opacity:1;stroke:none"
         id="rect2801-3-3-3"
         y="40"
         x="38"
         height="7"
         width="5" />
      <rect
         style="fill:url(#radialGradient3015-0-1);fill-opacity:1;stroke:none"
         id="rect3696-6-5-1"
         transform="scale(-1,-1)"
         y="-47"
         x="-10"
         height="7"
         width="5" />
      <rect
         style="fill:url(#linearGradient5289);fill-opacity:1;stroke:none"
         id="rect3700-4-7-5"
         y="40"
         x="10"
         height="7.0000005"
         width="28" />
    </g>
    <rect
       style="color:#000000;fill:url(#linearGradient6022);fill-opacity:1;fill-rule:nonzero;stroke:none;stroke-width:0.99999994;marker:none;visibility:visible;display:inline;overflow:visible;enable-background:accumulate"
       id="rect5505-21-1-5"
       y="5.4999971"
       x="4.5000367"
       ry="2"
       rx="2"
       height="39"
       width="39" />
    <rect
       style="opacity:0.35;fill:none;stroke:url(#linearGradient3507-3);stroke-width:1;stroke-linecap:round;stroke-linejoin:round;stroke-miterlimit:4;stroke-opacity:1;stroke-dasharray:none;stroke-dashoffset:0"
       id="rect6741-4-2"
       y="6.4999971"
       x="5.5000367"
       ry="1"
       rx="1"
       height="37"
       width="37" />
    <rect
       style="opacity:0.4;color:#000000;fill:none;stroke:#001a41;stroke-width:1;stroke-linecap:round;stroke-linejoin:round;stroke-miterlimit:4;stroke-opacity:1;stroke-dasharray:none;stroke-dashoffset:0;marker:none;visibility:visible;display:inline;overflow:visible;enable-background:accumulate"
       id="rect5505-21-3-2-5-5"
       y="5.4999971"
       x="4.5000367"
       ry="2"
       rx="2"
       height="39"
       width="39" />
    <path
       sodipodi:type="inkscape:offset"
       inkscape:radius="0.95710707"
       inkscape:original="M 152.625 -118.78125 C 151.72843 -118.95707 150.3722 -118.91527 149.59375 -118.71875 C 149.42295 -118.67563 149.17658 -118.6416 149.0625 -118.625 C 148.94843 -118.6084 148.8625 -118.5827 148.875 -118.5625 C 148.8875 -118.5427 148.8605 -118.51875 148.8125 -118.53125 C 148.7645 -118.54375 148.7173 -118.55525 148.6875 -118.53125 C 148.65773 -118.50725 148.55245 -118.455 148.46875 -118.4375 C 148.38503 -118.4201 148.30515 -118.392 148.28125 -118.375 C 148.25733 -118.358 148.13889 -118.31185 148.03125 -118.28125 C 147.75662 -118.20307 147.0073 -117.85974 146.5625 -117.59375 C 145.81585 -117.14726 144.92793 -116.41471 144.40625 -115.8125 C 144.20015 -115.57456 144.24022 -115.57693 143.59375 -115.71875 C 142.87126 -115.87724 141.48917 -115.77996 140.75 -115.53125 C 138.85949 -114.89516 137.6178 -113.37278 137.375 -111.40625 L 137.3125 -110.96875 L 136.84375 -110.78125 C 136.19852 -110.50611 136.00313 -110.38406 135.46875 -110.03125 C 134.81314 -109.59841 134.36114 -109.2354 133.875 -108.6875 C 133.57981 -108.35481 133.57164 -108.31135 133.3125 -107.90625 C 132.43079 -106.52787 132.04489 -104.67844 132.21875 -102.6875 C 132.40455 -100.5598 133.40727 -98.83109 135.15625 -97.65625 C 136.13767 -96.99699 137.4157 -96.50341 138.65625 -96.28125 C 138.95114 -96.22845 140.53738 -96.1905 148.96875 -96.1875 L 158.90625 -96.1875 L 159.4375 -96.3125 C 162.19511 -96.89474 164.28802 -98.420921 165.1875 -100.5 C 165.59151 -101.43384 165.72575 -102.16441 165.71875 -103.375 C 165.71605 -103.84143 165.67845 -104.3831 165.65625 -104.5625 C 165.39302 -106.68825 164.64743 -108.20759 163.25 -109.4375 C 162.47702 -110.11782 161.45595 -110.69711 160.5 -111 C 159.75512 -111.23593 159.8041 -111.17471 159.75 -111.59375 C 159.59214 -112.81546 158.85876 -114.478 157.96875 -115.59375 C 157.45194 -116.24164 156.36902 -117.1986 156.25 -117.125 C 156.2203 -117.1066 156.2299 -117.12375 156.25 -117.15625 C 156.27107 -117.19039 156.2123 -117.217 156.125 -117.25 C 156.05105 -117.2779 156 -117.32505 156 -117.34375 C 156 -117.36245 155.9697 -117.375 155.9375 -117.375 C 155.9053 -117.375 155.8525 -117.42455 155.8125 -117.46875 C 155.77251 -117.51293 155.6575 -117.5795 155.5625 -117.625 C 155.46747 -117.67056 155.40651 -117.7321 155.40625 -117.75 C 155.40595 -117.7679 155.36815 -117.78125 155.34375 -117.78125 C 155.31936 -117.78125 155.24545 -117.8196 155.15625 -117.875 C 154.64861 -118.19024 153.46142 -118.6172 152.625 -118.78125 z M 150.4375 -117.1875 C 151.24832 -117.25187 152.0892 -117.17225 152.9375 -116.96875 C 155.56707 -116.33793 157.54764 -114.1914 158.125 -111.34375 C 158.1638 -111.15239 158.19325 -110.74113 158.21875 -110.40625 C 158.24425 -110.07138 158.27325 -109.7778 158.28125 -109.75 C 158.28913 -109.7215 158.42719 -109.67175 158.59375 -109.65625 C 159.02314 -109.61618 159.72803 -109.47301 160.125 -109.34375 C 160.59403 -109.19104 161.31476 -108.83371 161.78125 -108.5 C 162.22799 -108.18042 162.88835 -107.46741 163.15625 -107.0625 C 163.94302 -105.87338 164.28549 -104.3296 164.0625 -102.875 C 164.0258 -102.6358 164.002 -102.4109 164 -102.375 C 163.998 -102.33917 163.98675 -102.30515 163.96875 -102.28125 C 163.95075 -102.25733 163.92295 -102.13278 163.90625 -102.03125 C 163.88945 -101.92971 163.8343 -101.85725 163.8125 -101.84375 C 163.7907 -101.83025 163.78125 -101.77235 163.78125 -101.71875 C 163.78125 -101.66517 163.7691 -101.5852 163.75 -101.5625 C 163.73086 -101.53978 163.6823 -101.39351 163.625 -101.25 C 163.53062 -101.01376 163.1855 -100.4285 163.125 -100.375 C 163.11149 -100.36304 163.0692 -100.26389 163 -100.15625 C 162.80345 -99.850441 161.99613 -99.10875 161.59375 -98.84375 C 160.8248 -98.33736 160.12985 -98.03341 159.25 -97.8125 C 159.11046 -97.7775 156.29949 -97.756 149.1875 -97.75 C 143.75665 -97.7458 139.2978 -97.742 139.25 -97.75 C 138.02297 -97.94355 136.82208 -98.43286 136.03125 -99.09375 C 135.60582 -99.44929 135.45538 -99.60546 135.1875 -99.9375 C 134.73166 -100.50253 134.42211 -101.04073 134.21875 -101.59375 C 134.16125 -101.75008 134.11425 -101.92095 134.09375 -101.96875 C 133.97575 -102.24405 133.83915 -102.86851 133.78125 -103.40625 C 133.66051 -104.5283 133.97212 -105.85453 134.59375 -106.8125 C 135.33143 -107.94931 136.34633 -108.7714 137.5625 -109.25 C 137.9092 -109.38644 138.72366 -109.625 138.84375 -109.625 C 138.99826 -109.625 139.0444 -109.71682 139 -110.15625 C 138.89072 -111.23771 139.20679 -112.38349 139.8125 -113.0625 C 140.29111 -113.59905 141.15076 -114.04618 141.90625 -114.15625 C 142.74692 -114.27874 143.71778 -114.04705 144.4375 -113.5625 C 144.56549 -113.47634 144.6702 -113.40625 144.6875 -113.40625 C 144.70484 -113.40625 144.82684 -113.57531 144.9375 -113.75 C 145.70717 -114.96499 146.88725 -116.02604 148.125 -116.59375 C 148.83911 -116.92129 149.62668 -117.12313 150.4375 -117.1875 z "
       style="opacity:0.15;color:#000000;fill:#094bae;fill-opacity:1;fill-rule:nonzero;stroke:none;stroke-width:1;marker:none;visibility:visible;display:inline;overflow:visible;enable-background:accumulate"
       id="path6139"
       d="m 152.8125,-119.71875 c -1.10354,-0.21641 -2.43448,-0.19071 -3.4375,0.0625 -0.0749,0.0189 -0.31356,0.0757 -0.4375,0.0937 -0.0928,0.0135 -0.18895,0.0226 -0.3125,0.0625 -0.0618,0.0199 -0.12486,0.0184 -0.28125,0.125 -0.007,0.005 -0.0235,0.026 -0.0312,0.0312 -0.0108,0.004 -0.0204,-0.005 -0.0312,0 -0.0716,0.0323 -0.11773,0.006 -0.1875,0.0625 0.15009,-0.121 0.11954,-0.06 0.125,-0.0625 -0.0574,0.0138 -0.1333,0.0129 -0.1875,0.0312 -0.0442,0.015 -0.1256,0.0644 -0.1875,0.0937 -0.0203,0.008 -0.0416,0.0253 -0.0625,0.0312 -0.0154,0.007 0.003,-0.0154 -0.0625,0.0312 -0.52818,0.15978 -1.13641,0.43914 -1.65625,0.75 -0.77566,0.46384 -1.54609,1.1275 -2.15625,1.78125 -0.0662,-0.008 0.0277,-0.005 -0.0937,-0.0312 -1.05209,-0.23079 -2.36555,-0.1209 -3.375,0.21875 -2.16114,0.72715 -3.60811,2.54737 -3.9375,4.78125 -6.2e-4,0.004 -0.0306,-0.004 -0.0312,0 -0.67504,0.28785 -0.99205,0.45651 -1.53125,0.8125 -0.69215,0.45696 -1.23893,0.92003 -1.78125,1.53125 -0.31683,0.35708 -0.40893,0.48838 -0.65625,0.875 -1.02281,1.59897 -1.43901,3.67936 -1.25,5.84375 0.20785,2.38024 1.40583,4.396001 3.375,5.71875 1.11713,0.750422 2.5046,1.285835 3.875,1.53125 0.40135,0.07186 0.75516,0.07721 2.25,0.09375 1.49484,0.01654 4.00165,0.02975 8.21875,0.03125 l 9.9375,0 A 0.95720278,0.95720278 0 0 0 159.125,-95.25 l 0.5,-0.125 c 0.01,-0.0021 0.0213,0.0021 0.0312,0 2.97863,-0.6368 5.3632,-2.339078 6.40625,-4.75 0.44556,-1.02989 0.63242,-1.96643 0.625,-3.25 -0.003,-0.51357 -0.0589,-1.03079 -0.0937,-1.3125 -0.28348,-2.2893 -1.15461,-4.09212 -2.71875,-5.46875 -0.8845,-0.77847 -1.9899,-1.40025 -3.09375,-1.75 -0.17373,-0.055 -0.0816,-6.1e-4 -0.15625,-0.0312 -0.23441,-1.43444 -0.93528,-3.03275 -1.90625,-4.25 -0.31838,-0.39913 -0.73974,-0.81409 -1.125,-1.15625 -0.19263,-0.17108 -0.35623,-0.31353 -0.53125,-0.4375 -0.0708,-0.0501 -0.16036,-0.10803 -0.25,-0.15625 -0.0122,-0.008 -0.0517,-0.0242 -0.0625,-0.0312 -0.004,-0.003 0.004,-0.0288 0,-0.0312 -0.0736,-0.0482 -0.0834,-0.0435 -0.125,-0.0625 0.0141,0.0113 0.0452,0.0464 0.0625,0.0625 -0.0445,-0.0204 -0.11153,-0.0119 -0.1875,-0.0312 0.0747,0.0303 0.2189,0.0938 0.21875,0.0937 -3e-5,-2e-5 0.0234,0.0243 0.0312,0.0312 0.0568,0.0716 0.21875,0.1317 0.21875,0.5625 0,-0.41414 -0.27782,-0.55379 -0.46875,-0.6875 -0.01,-0.007 -0.0216,-0.025 -0.0312,-0.0312 -0.0308,-0.0201 -0.0364,-0.11159 -0.0625,-0.125 0.006,0.007 0.0573,0.0271 0.0625,0.0312 -0.11267,-0.11032 -0.18308,-0.1779 -0.25,-0.21875 -0.0484,-0.0296 -0.11071,-0.0386 -0.15625,-0.0625 -0.004,-0.002 0.004,-0.0293 0,-0.0312 -0.11999,-0.11398 -0.20554,-0.15383 -0.28125,-0.1875 -0.0207,-0.009 -0.0437,0.008 -0.0625,0 -0.002,-0.001 -0.0202,-0.0264 -0.0312,-0.0312 -0.008,-0.005 -0.02,0.007 -0.0312,0 -0.74675,-0.46372 -1.8674,-0.83976 -2.84375,-1.03125 z m 3.28125,1.3125 c 0.0169,0.0157 0.0325,0.0252 0.0625,0.0625 0.009,0.0107 0.0208,0.0481 0.0312,0.0625 -0.01,-0.002 -0.0217,0.002 -0.0312,0 0.0231,0.009 0.0465,0.021 0.0625,0.0312 0.0119,0.0182 0.0167,0.0356 0.0312,0.0625 0.019,0.0352 0.0405,0.0593 0.0625,0.125 0.0616,0.002 0.12518,4e-5 0.125,0 -0.0258,-0.005 -0.092,0.0362 -0.125,0.0312 0.008,0.0272 0.0243,0.058 0.0312,0.0937 0.006,0.0316 0.0281,0.0857 0.0312,0.125 -0.006,-0.11011 -0.0911,-0.13211 -0.125,-0.21875 -0.0902,-0.009 -0.18319,0.0227 -0.3125,0.0625 -0.0771,0.0238 -0.0982,-0.024 -0.1875,0.0312 0.0148,-0.009 0.0199,-0.0106 0.0625,-0.0312 0.0213,-0.0103 0.0543,-0.0482 0.0937,-0.0625 0.006,-0.002 0.0209,0.003 0.0312,0 0.0536,-0.0153 0.15687,-0.0314 0.15625,-0.0312 -3.4e-4,5e-5 0.0738,-0.003 0.15625,0 -0.0341,-0.0796 -0.0513,-0.16182 -0.0937,-0.21875 -0.0249,-0.0334 -0.0387,-0.0997 -0.0625,-0.125 z m 1,0.90625 c 0.0111,0.0202 0.0313,0.0626 0.0312,0.0625 -8e-5,-2.2e-4 0.0625,0.21903 0.0625,0.21875 -3e-5,-2.8e-4 -3e-5,0.18783 0,0.1875 3e-5,-3.3e-4 -0.0252,0.0632 -0.0312,0.0937 -0.0484,0.24397 -0.0809,0.25813 -0.0937,0.28125 0.12502,-0.20257 0.11934,-0.57606 0.0312,-0.84375 z m -6.59375,1.28125 c 0.69671,-0.0553 1.4549,0.004 2.21875,0.1875 2.25665,0.54136 3.95748,2.35331 4.46875,4.875 0.004,0.0221 0.0367,0.4741 0.0625,0.8125 0.0132,0.17371 0.0503,0.34202 0.0625,0.46875 0.006,0.0634 -0.005,0.10958 0,0.15625 0.003,0.0233 0.0277,0.069 0.0312,0.0937 0.004,0.0248 -0.0104,-0.0198 0.0312,0.125 l -0.0312,0 c 0.0871,0.31504 0.22993,0.42995 0.3125,0.5 0.0826,0.07 0.13921,0.0991 0.1875,0.125 0.0966,0.0517 0.18292,0.0724 0.25,0.0937 0.13416,0.0427 0.25319,0.0483 0.40625,0.0625 0.31587,0.0295 1.06611,0.19085 1.34375,0.28125 0.32556,0.106 1.02497,0.46835 1.375,0.71875 0.26185,0.18731 0.97117,0.955 1.125,1.1875 0.64695,0.97779 0.96663,2.29074 0.78125,3.5 -0.0205,0.13339 -0.0506,0.27534 -0.0625,0.375 -0.005,0.0419 0.003,0.0676 0,0.0937 -0.001,0.006 -0.0292,0.0249 -0.0312,0.0312 -0.0175,0.0539 -0.0218,0.0859 -0.0312,0.125 -0.0188,0.0781 -0.0193,0.14591 -0.0312,0.21875 0.0131,-0.0795 0.0302,-0.1311 0.0625,-0.1875 0.007,-0.0125 0.0613,-0.0516 0.0625,-0.0625 0.004,-0.0383 -0.0407,-0.0581 0.21875,-0.21875 -0.15966,0.0989 -0.092,0.13558 -0.15625,0.21875 -0.0747,0.0966 -0.17567,0.17987 -0.1875,0.25 -0.009,0.0506 -0.11738,0.15327 -0.125,0.1875 -0.009,0.0404 0.004,0.061 0,0.0937 -0.003,0.023 -0.0297,0.0419 -0.0312,0.0625 -0.006,0.0164 0.006,0.047 0,0.0625 -0.002,0.0128 0,0.0352 0,0.0625 -0.017,0.0452 -0.0473,0.087 -0.0625,0.125 9e-4,-0.002 -0.1249,0.21283 -0.21875,0.375 -0.0469,0.0811 -0.0939,0.13901 -0.125,0.1875 0.002,-0.008 0.001,0.0191 0.0937,-0.0625 -0.15225,0.13478 -0.10985,0.0926 -0.125,0.125 -0.0156,0.0334 -0.0851,0.14041 -0.0937,0.15625 -0.0171,0.0312 -0.0228,0.0464 -0.0312,0.0625 -0.017,0.0323 -0.0522,0.0465 -0.0625,0.0625 0.0337,-0.0524 -0.21837,0.26765 -0.46875,0.5 -0.25038,0.232351 -0.55205,0.462627 -0.65625,0.53125 -0.69465,0.45746 -1.23706,0.706848 -2.03125,0.90625 -0.0924,0.0035 -0.24385,-0.0035 -0.4375,0 -0.38731,0.0069 -0.9785,0.02601 -1.78125,0.03125 -1.60549,0.01048 -4.06986,-0.003 -7.625,0 -2.71545,0.0021 -5.20093,0.03078 -7,0.03125 -0.89953,2.37e-4 -1.61649,-0.03055 -2.125,-0.03125 -0.25426,-3.51e-4 -0.45878,6.43e-4 -0.59375,0 -0.054,-2.57e-4 -0.0928,2.92e-4 -0.125,0 -1.05119,-0.178929 -2.09824,-0.632558 -2.6875,-1.125 -0.4048,-0.3383 -0.46874,-0.37761 -0.71875,-0.6875 -0.4023,-0.49867 -0.6483,-0.95972 -0.8125,-1.40625 -0.0189,-0.0514 -0.0419,-0.12211 -0.0625,-0.1875 -0.0206,-0.0654 -0.0251,-0.0587 -0.0937,-0.21875 -0.0169,-0.0394 -0.20081,-0.6994 -0.25,-1.15625 -0.0934,-0.86812 0.20594,-2.03913 0.6875,-2.78125 0.63417,-0.9773 1.46252,-1.68547 2.5,-2.09375 0.11258,-0.0443 0.41315,-0.11633 0.65625,-0.1875 0.1104,-0.0323 0.20375,-0.074 0.28125,-0.0937 0.13342,0 0.354,-0.0412 0.59375,-0.1875 0.23975,-0.14629 0.40721,-0.40431 0.46875,-0.59375 0.12307,-0.37888 0.0574,-0.55316 0.0312,-0.8125 -0.0839,-0.83052 0.23398,-1.78419 0.59375,-2.1875 0.27547,-0.30882 1.00794,-0.70956 1.5,-0.78125 0.56623,-0.0825 1.3688,0.0967 1.875,0.4375 0.0646,0.0435 0.12643,0.086 0.1875,0.125 0.0305,0.0195 0.0479,0.037 0.0937,0.0625 0.0229,0.0127 0.0429,0.0403 0.0937,0.0625 0.0254,0.0111 0.0719,0.015 0.125,0.0312 0.0266,0.008 0.0497,0.0228 0.0937,0.0312 0.0441,0.008 0.18696,0.0312 0.1875,0.0312 5.4e-4,0 0.37426,-0.0934 0.375,-0.0937 7.4e-4,-3.3e-4 0.1208,-0.0695 0.15625,-0.0937 0.0709,-0.0485 0.0996,-0.0696 0.125,-0.0937 0.0508,-0.0484 0.073,-0.069 0.0937,-0.0937 0.0415,-0.0494 0.0937,-0.0819 0.125,-0.125 0.0625,-0.0861 0.12177,-0.20874 0.1875,-0.3125 0.6678,-1.05418 1.74473,-1.99334 2.78125,-2.46875 0.60716,-0.27848 1.26654,-0.44425 1.96875,-0.5 z"
       transform="translate(-125,132.71875)" />
    <path
       style="opacity:0.3;color:#000000;fill:#094bae;fill-opacity:1;fill-rule:nonzero;stroke:none;stroke-width:1;marker:none;visibility:visible;display:inline;overflow:visible;enable-background:accumulate"
       d="m 13.670774,36.449726 c -1.24055,-0.22216 -2.51955,-0.72952 -3.50097,-1.38878 -1.74898,-1.17484 -2.76857,-2.91522 -2.95437,-5.04292 -0.17386,-1.99094 0.21286,-3.83164 1.09457,-5.21002 0.25914,-0.4051 0.27955,-0.43226 0.57474,-0.76495 0.48614,-0.5479 0.93388,-0.93249 1.58949,-1.36533 0.53438,-0.35281 0.72472,-0.45414 1.36995,-0.72928 l 0.47839,-0.204 0.053,-0.4297 c 0.2428,-1.96653 1.49218,-3.49076 3.38269,-4.12685 0.73917,-0.24871 2.10438,-0.33297 2.82687,-0.17448 0.64647,0.14182 0.60988,0.14594 0.81598,-0.092 0.52168,-0.60221 1.42169,-1.34636 2.16834,-1.79285 0.4448,-0.26599 1.19882,-0.62669 1.47345,-0.70487 0.10764,-0.0306 0.21527,-0.0696 0.23919,-0.0866 0.0239,-0.017 0.11199,-0.0452 0.19571,-0.0626 0.0837,-0.0175 0.17658,-0.0514 0.20635,-0.0754 0.0298,-0.024 0.0934,-0.0333 0.1414,-0.0208 0.048,0.0125 0.0771,0.006 0.0646,-0.0138 -0.0125,-0.0202 0.0707,-0.0502 0.18477,-0.0668 0.11408,-0.0166 0.34716,-0.0654 0.51796,-0.10852 0.77845,-0.19652 2.13947,-0.21332 3.03604,-0.0375 0.83642,0.16405 2.00525,0.58086 2.51289,0.8961 0.0892,0.0554 0.18218,0.10074 0.20657,0.10074 0.0244,0 0.0446,0.0147 0.0449,0.0326 2.6e-4,0.0179 0.0782,0.0698 0.17323,0.11536 0.095,0.0455 0.20545,0.11891 0.24544,0.16309 0.04,0.0442 0.099,0.0803 0.1312,0.0803 0.0322,0 0.0585,0.0153 0.0585,0.034 0,0.0187 0.0605,0.0568 0.13445,0.0847 0.0873,0.033 0.12308,0.0691 0.10201,0.10324 -0.0201,0.0325 -0.0141,0.0412 0.0156,0.0228 0.11902,-0.0736 1.19249,0.89608 1.7093,1.54397 0.89001,1.11575 1.63012,2.76669 1.78798,3.9884 0.0541,0.41904 0.007,0.38062 0.75188,0.61655 0.95595,0.30289 1.97522,0.88253 2.7482,1.56285 1.39743,1.22991 2.14845,2.74747 2.41168,4.87322 0.0222,0.1794 0.0426,0.70781 0.0453,1.17424 0.007,1.21059 -0.13068,1.95384 -0.53469,2.88768 -0.89948,2.07908 -2.98534,3.59699 -5.74295,4.17923 l -0.51628,0.109 -9.94773,-0.004 c -8.43137,-0.003 -10.00076,-0.0134 -10.29565,-0.0662 z m 20.59465,-1.53603 c 0.87985,-0.22091 1.56367,-0.52255 2.33262,-1.02894 0.40238,-0.264999 1.19117,-1.016729 1.38772,-1.32254 0.0692,-0.10764 0.13685,-0.20549 0.15036,-0.21745 0.0605,-0.0535 0.38212,-0.65532 0.4765,-0.89156 0.0573,-0.14351 0.1199,-0.27953 0.13904,-0.30225 0.0191,-0.0227 0.0348,-0.0852 0.0348,-0.13878 0,-0.0536 0.0179,-0.1085 0.0397,-0.122 0.0218,-0.0135 0.0534,-0.10761 0.0702,-0.20915 0.0167,-0.10153 0.0451,-0.20417 0.0631,-0.22809 0.018,-0.0239 0.0343,-0.0729 0.0363,-0.10873 0.002,-0.0359 0.0336,-0.26094 0.0703,-0.50014 0.22299,-1.4546 -0.10752,-3.00448 -0.89429,-4.1936 -0.2679,-0.40491 -0.95499,-1.10146 -1.40173,-1.42104 -0.46649,-0.33371 -1.18591,-0.70778 -1.65494,-0.86049 -0.39697,-0.12926 -1.08824,-0.27091 -1.51763,-0.31098 -0.16656,-0.0155 -0.30251,-0.0498 -0.31039,-0.0783 -0.008,-0.0278 -0.0349,-0.32459 -0.0604,-0.65946 -0.0255,-0.33488 -0.0781,-0.76543 -0.1169,-0.95679 -0.57736,-2.84765 -2.54457,-4.98144 -5.17414,-5.61226 -1.6966,-0.407 -3.37745,-0.27356 -4.80568,0.38152 -1.23775,0.56771 -2.43656,1.63234 -3.20623,2.84733 -0.11066,0.17469 -0.21539,0.31762 -0.23273,0.31762 -0.0173,0 -0.13624,-0.0705 -0.26423,-0.15666 -0.71972,-0.48455 -1.67981,-0.70732 -2.52048,-0.58483 -0.75549,0.11007 -1.62343,0.56484 -2.10204,1.10139 -0.60571,0.67901 -0.92756,1.82041 -0.81828,2.90187 0.0444,0.43943 0.0237,0.52189 -0.13081,0.52189 -0.12009,0 -0.94587,0.24136 -1.29257,0.3778 -1.21617,0.4786 -2.23573,1.32156 -2.97341,2.45837 -0.62163,0.95797 -0.93718,2.26836 -0.81644,3.39041 0.0579,0.53774 0.19553,1.17417 0.31353,1.44947 0.0205,0.0478 0.0843,0.21488 0.1418,0.37121 0.20336,0.55302 0.51764,1.08606 0.97348,1.651091 0.26788,0.33204 0.41265,0.4756 0.83808,0.83114 0.79083,0.660889 1.96952,1.159989 3.19655,1.353539 0.0478,0.008 4.5304,0.0102 9.96125,0.006 7.11199,-0.006 9.92848,-0.0215 10.06802,-0.0565 z"
       id="path6035-4"
       inkscape:connector-curvature="0"
       sodipodi:nodetypes="csscsssccsscsccccsccsccscccsscccsccscsscccccccccccssccccsscccsssssscccsssscccsccccc" />
    <path
       style="color:#000000;fill:url(#linearGradient3501-1-2);fill-opacity:1;fill-rule:nonzero;stroke:none;stroke-width:1;marker:none;visibility:visible;display:inline;overflow:visible;enable-background:accumulate"
       d="m 13.670774,35.449277 c -1.24055,-0.22216 -2.51955,-0.72952 -3.50097,-1.38878 -1.74898,-1.17484 -2.76857,-2.915221 -2.95437,-5.042921 -0.17386,-1.99094 0.21286,-3.83164 1.09457,-5.21002 0.25914,-0.4051 0.27955,-0.43226 0.57474,-0.76495 0.48614,-0.5479 0.93388,-0.93249 1.58949,-1.36533 0.53438,-0.35281 0.72472,-0.45414 1.36995,-0.72928 l 0.47839,-0.204 0.053,-0.4297 c 0.2428,-1.96653 1.49218,-3.49076 3.38269,-4.12685 0.73917,-0.24871 2.10438,-0.33297 2.82687,-0.17448 0.64647,0.14182 0.60988,0.14594 0.81598,-0.092 0.52168,-0.60221 1.42169,-1.34636 2.16834,-1.79285 0.4448,-0.26599 1.19882,-0.62669 1.47345,-0.70487 0.10764,-0.0306 0.21527,-0.0696 0.23919,-0.0866 0.0239,-0.017 0.11199,-0.0452 0.19571,-0.0626 0.0837,-0.0175 0.17658,-0.0514 0.20635,-0.0754 0.0298,-0.024 0.0934,-0.0333 0.1414,-0.0208 0.048,0.0125 0.0771,0.006 0.0646,-0.0138 -0.0125,-0.0202 0.0707,-0.0502 0.18477,-0.0668 0.11408,-0.0166 0.34716,-0.0654 0.51796,-0.10852 0.77845,-0.19652 2.13947,-0.21332 3.03604,-0.0375 0.83642,0.16405 2.00525,0.58086 2.51289,0.8961 0.0892,0.0554 0.18218,0.10074 0.20657,0.10074 0.0244,0 0.0446,0.0147 0.0449,0.0326 2.6e-4,0.0179 0.0782,0.0698 0.17323,0.11536 0.095,0.0455 0.20545,0.11891 0.24544,0.16309 0.04,0.0442 0.099,0.0803 0.1312,0.0803 0.0322,0 0.0585,0.0153 0.0585,0.034 0,0.0187 0.0605,0.0568 0.13445,0.0847 0.0873,0.033 0.12308,0.0691 0.10201,0.10324 -0.0201,0.0325 -0.0141,0.0412 0.0156,0.0228 0.11902,-0.0736 1.19249,0.89608 1.7093,1.54397 0.89001,1.11575 1.63012,2.76669 1.78798,3.9884 0.0541,0.41904 0.007,0.38062 0.75188,0.61655 0.95595,0.30289 1.97522,0.88253 2.7482,1.56285 1.39743,1.22991 2.14845,2.74747 2.41168,4.87322 0.0222,0.1794 0.0426,0.70781 0.0453,1.17424 0.007,1.21059 -0.13068,1.95384 -0.53469,2.88768 -0.89948,2.079082 -2.98534,3.596992 -5.74295,4.179232 l -0.51628,0.109 -9.94773,-0.004 c -8.43137,-0.003 -10.00076,-0.0134 -10.29565,-0.0662 z m 20.59465,-1.53603 c 0.87985,-0.22091 1.56367,-0.52255 2.33262,-1.02894 0.40238,-0.265001 1.19117,-1.016731 1.38772,-1.322541 0.0692,-0.10764 0.13685,-0.20549 0.15036,-0.21745 0.0605,-0.0535 0.38212,-0.65532 0.4765,-0.89156 0.0573,-0.14351 0.1199,-0.27953 0.13904,-0.30225 0.0191,-0.0227 0.0348,-0.0852 0.0348,-0.13878 0,-0.0536 0.0179,-0.1085 0.0397,-0.122 0.0218,-0.0135 0.0534,-0.10761 0.0702,-0.20915 0.0167,-0.10153 0.0451,-0.20417 0.0631,-0.22809 0.018,-0.0239 0.0343,-0.0729 0.0363,-0.10873 0.002,-0.0359 0.0336,-0.26094 0.0703,-0.50014 0.22299,-1.4546 -0.10752,-3.00448 -0.89429,-4.1936 -0.2679,-0.40491 -0.95499,-1.10146 -1.40173,-1.42104 -0.46649,-0.33371 -1.18591,-0.70778 -1.65494,-0.86049 -0.39697,-0.12926 -1.08824,-0.27091 -1.51763,-0.31098 -0.16656,-0.0155 -0.30251,-0.0498 -0.31039,-0.0783 -0.008,-0.0278 -0.0349,-0.32459 -0.0604,-0.65946 -0.0255,-0.33488 -0.0781,-0.76543 -0.1169,-0.95679 -0.57736,-2.84765 -2.54457,-4.98144 -5.17414,-5.61226 -1.6966,-0.407 -3.37745,-0.27356 -4.80568,0.38152 -1.23775,0.56771 -2.43656,1.63234 -3.20623,2.84733 -0.11066,0.17469 -0.21539,0.31762 -0.23273,0.31762 -0.0173,0 -0.13624,-0.0705 -0.26423,-0.15666 -0.71972,-0.48455 -1.67981,-0.70732 -2.52048,-0.58483 -0.75549,0.11007 -1.62343,0.56484 -2.10204,1.10139 -0.60571,0.67901 -0.92756,1.82041 -0.81828,2.90187 0.0444,0.43943 0.0237,0.52189 -0.13081,0.52189 -0.12009,0 -0.94587,0.24136 -1.29257,0.3778 -1.21617,0.4786 -2.23573,1.32156 -2.97341,2.45837 -0.62163,0.95797 -0.93718,2.26836 -0.81644,3.39041 0.0579,0.53774 0.19553,1.17417 0.31353,1.44947 0.0205,0.0478 0.0843,0.21488 0.1418,0.37121 0.20336,0.55302 0.51764,1.08606 0.97348,1.65109 0.26788,0.33204 0.41265,0.4756 0.83808,0.83114 0.79083,0.660891 1.96952,1.159991 3.19655,1.353541 0.0478,0.008 4.5304,0.0102 9.96125,0.006 7.11199,-0.006 9.92848,-0.0215 10.06802,-0.0565 z"
       id="path6035"
       inkscape:connector-curvature="0"
       sodipodi:nodetypes="csscsssccsscsccccsccsccscccsscccsccscsscccccccccccssccccsscccsssssscccsssscccsccccc" />
  </g>
</svg>
