<?xml version="1.0" encoding="UTF-8" standalone="no"?>
<!-- Created with Inkscape (http://www.inkscape.org/) -->

<svg
   xmlns:dc="http://purl.org/dc/elements/1.1/"
   xmlns:cc="http://creativecommons.org/ns#"
   xmlns:rdf="http://www.w3.org/1999/02/22-rdf-syntax-ns#"
   xmlns:svg="http://www.w3.org/2000/svg"
   xmlns="http://www.w3.org/2000/svg"
   xmlns:xlink="http://www.w3.org/1999/xlink"
   xmlns:sodipodi="http://sodipodi.sourceforge.net/DTD/sodipodi-0.dtd"
   xmlns:inkscape="http://www.inkscape.org/namespaces/inkscape"
   width="48px"
   height="48px"
   id="svg4249"
   version="1.1"
   inkscape:version="0.48.4 r9939"
   sodipodi:docname="twitter.svg">
  <defs
     id="defs4251">
    <radialGradient
       inkscape:collect="always"
       xlink:href="#linearGradient3688-166-749-8-0"
       id="radialGradient3714"
       gradientUnits="userSpaceOnUse"
       gradientTransform="matrix(2.003784,0,0,1.4,27.98813,-17.4)"
       cx="4.9929786"
       cy="43.5"
       fx="4.9929786"
       fy="43.5"
       r="2.5" />
    <linearGradient
       id="linearGradient3688-166-749-8-0">
      <stop
         offset="0"
         style="stop-color:#181818;stop-opacity:1"
         id="stop2883-3-0" />
      <stop
         offset="1"
         style="stop-color:#181818;stop-opacity:0"
         id="stop2885-6-6" />
    </linearGradient>
    <radialGradient
       inkscape:collect="always"
       xlink:href="#linearGradient3688-464-309-68-8"
       id="radialGradient3716"
       gradientUnits="userSpaceOnUse"
       gradientTransform="matrix(2.003784,0,0,1.4,-20.01187,-104.4)"
       cx="4.9929786"
       cy="43.5"
       fx="4.9929786"
       fy="43.5"
       r="2.5" />
    <linearGradient
       id="linearGradient3688-464-309-68-8">
      <stop
         offset="0"
         style="stop-color:#181818;stop-opacity:1"
         id="stop2889-0-7" />
      <stop
         offset="1"
         style="stop-color:#181818;stop-opacity:0"
         id="stop2891-9-4" />
    </linearGradient>
    <linearGradient
       inkscape:collect="always"
       xlink:href="#linearGradient3702-501-757-3-7"
       id="linearGradient3718"
       gradientUnits="userSpaceOnUse"
       x1="25.058096"
       y1="47.027729"
       x2="25.058096"
       y2="39.999443" />
    <linearGradient
       id="linearGradient3702-501-757-3-7">
      <stop
         offset="0"
         style="stop-color:#181818;stop-opacity:0"
         id="stop2895-0-7" />
      <stop
         offset="0.5"
         style="stop-color:#181818;stop-opacity:1"
         id="stop2897-2-7" />
      <stop
         offset="1"
         style="stop-color:#181818;stop-opacity:0"
         id="stop2899-8-5" />
    </linearGradient>
    <radialGradient
       inkscape:collect="always"
       xlink:href="#linearGradient2867-449-88-871-390-598-476-591-434-148-57-177-8-3-3-6-4-8-8-8-5-6"
       id="radialGradient3712"
       gradientUnits="userSpaceOnUse"
       gradientTransform="matrix(0,9.4975523,-11.65996,0,207.93055,-271.16097)"
       cx="6.7304144"
       cy="9.9571075"
       fx="6.2001843"
       fy="9.9571075"
       r="12.671875" />
    <linearGradient
       id="linearGradient2867-449-88-871-390-598-476-591-434-148-57-177-8-3-3-6-4-8-8-8-5-6">
      <stop
         offset="0"
         style="stop-color:#7df9ff;stop-opacity:1"
         id="stop3750-1-0-7-6-6-1-3-9-5-1" />
      <stop
         offset="0.26238"
         style="stop-color:#52cefc;stop-opacity:1"
         id="stop3752-3-7-4-0-32-8-923-0-1-3" />
      <stop
         offset="0.704952"
         style="stop-color:#0883cd;stop-opacity:1;"
         id="stop3754-1-8-5-2-7-6-7-1-3-5" />
      <stop
         offset="1"
         style="stop-color:#1f63ac;stop-opacity:1"
         id="stop3756-1-6-2-6-6-1-96-6-2-3" />
    </linearGradient>
    <linearGradient
       inkscape:collect="always"
       xlink:href="#linearGradient3924-1-4-1"
       id="linearGradient3710"
       gradientUnits="userSpaceOnUse"
       gradientTransform="translate(67,-190.99999)"
       x1="23.99999"
       y1="4.999989"
       x2="23.99999"
       y2="43" />
    <linearGradient
       id="linearGradient3924-1-4-1">
      <stop
         offset="0"
         style="stop-color:#ffffff;stop-opacity:1"
         id="stop3926-3-5-2" />
      <stop
         offset="0.06316455"
         style="stop-color:#ffffff;stop-opacity:0.23529412"
         id="stop3928-91-2-2" />
      <stop
         offset="0.95056331"
         style="stop-color:#ffffff;stop-opacity:0.15686275"
         id="stop3930-6-2-7" />
      <stop
         offset="1"
         style="stop-color:#ffffff;stop-opacity:0.39215687"
         id="stop3932-6-2-0" />
    </linearGradient>
    <linearGradient
       id="linearGradient5803-4-6-0">
      <stop
         offset="0"
         style="stop-color:#ffffff;stop-opacity:1"
         id="stop5805-6-4-3" />
      <stop
         offset="1"
         style="stop-color:#ecf9fe;stop-opacity:1"
         id="stop5807-5-0-5" />
    </linearGradient>
    <linearGradient
       y2="44.65802"
       x2="126.37433"
       y1="17.754505"
       x1="126.37433"
       gradientTransform="matrix(0.71090703,0,0,0.71090703,13.11753,-189.86023)"
       gradientUnits="userSpaceOnUse"
       id="linearGradient4247"
       xlink:href="#linearGradient5803-4-6-0"
       inkscape:collect="always" />
  </defs>
  <sodipodi:namedview
     id="base"
     pagecolor="#ffffff"
     bordercolor="#666666"
     borderopacity="1.0"
     inkscape:pageopacity="0.0"
     inkscape:pageshadow="2"
     inkscape:zoom="7"
     inkscape:cx="24"
     inkscape:cy="24"
     inkscape:current-layer="layer1"
     showgrid="true"
     inkscape:grid-bbox="true"
     inkscape:document-units="px"
     inkscape:window-width="1280"
     inkscape:window-height="747"
     inkscape:window-x="0"
     inkscape:window-y="28"
     inkscape:window-maximized="1" />
  <metadata
     id="metadata4254">
    <rdf:RDF>
      <cc:Work
         rdf:about="">
        <dc:format>image/svg+xml</dc:format>
        <dc:type
           rdf:resource="http://purl.org/dc/dcmitype/StillImage" />
        <dc:title></dc:title>
      </cc:Work>
    </rdf:RDF>
  </metadata>
  <g
     id="layer1"
     inkscape:label="Layer 1"
     inkscape:groupmode="layer">
    <g
       transform="translate(-66.999996,192)"
       id="g4242">
      <g
         style="opacity:0.5"
         id="g3712-5-7-9"
         transform="matrix(1.1578952,0,0,0.6428571,63.21052,-175.96428)">
        <rect
           style="fill:url(#radialGradient3714);fill-opacity:1;stroke:none"
           id="rect2801-3-8-9"
           y="40"
           x="38"
           height="7"
           width="5" />
        <rect
           style="fill:url(#radialGradient3716);fill-opacity:1;stroke:none"
           id="rect3696-6-3-2"
           transform="scale(-1,-1)"
           y="-47"
           x="-10"
           height="7"
           width="5" />
        <rect
           style="fill:url(#linearGradient3718);fill-opacity:1;stroke:none"
           id="rect3700-4-1-7"
           y="40"
           x="10"
           height="7.0000005"
           width="28" />
      </g>
      <rect
         style="color:#000000;fill:url(#radialGradient3712);fill-opacity:1;fill-rule:nonzero;stroke:none;stroke-width:0.99999994;marker:none;visibility:visible;display:inline;overflow:visible;enable-background:accumulate"
         id="rect5505-21-4-3"
         y="-186.5"
         x="71.500023"
         ry="2"
         rx="2"
         height="39"
         width="39" />
      <rect
         style="opacity:0.5;fill:none;stroke:url(#linearGradient3710);stroke-width:1;stroke-linecap:round;stroke-linejoin:round;stroke-miterlimit:4;stroke-opacity:1;stroke-dasharray:none;stroke-dashoffset:0"
         id="rect6741-0-0"
         y="-185.5"
         x="72.500023"
         ry="1"
         rx="1"
         height="37"
         width="37" />
      <rect
         style="opacity:0.3;color:#000000;fill:none;stroke:#000000;stroke-width:1;stroke-linecap:round;stroke-linejoin:round;stroke-miterlimit:4;stroke-opacity:1;stroke-dasharray:none;stroke-dashoffset:0;marker:none;visibility:visible;display:inline;overflow:visible;enable-background:accumulate"
         id="rect5505-21-3-2-6-7"
         y="-186.5"
         x="71.500023"
         ry="2"
         rx="2"
         height="39"
         width="39" />
      <path
         style="opacity:0.15;color:#000000;fill:#0981ae;fill-opacity:1;fill-rule:nonzero;stroke:none;stroke-width:1;marker:none;visibility:visible;display:inline;overflow:visible;enable-background:accumulate"
         id="path4045-2"
         d="m 95.5625,-176.5 c -0.30525,0 -0.56385,0.0194 -0.78125,0.0312 -0.1087,0.006 -0.21009,0.0166 -0.3125,0.0312 -0.0512,0.007 -0.10184,0.006 -0.1875,0.0312 -0.009,0.003 -0.0521,0.0305 -0.0625,0.0312 -0.007,5.1e-4 -0.0239,0.031 -0.0312,0.0312 -0.20105,0.001 -0.30979,-0.0122 -0.59375,0.125 -0.44916,0.21703 -0.76967,0.37214 -1,0.5 -0.11516,0.0639 -0.2185,0.12222 -0.3125,0.1875 -0.0282,0.0196 -0.0601,0.0662 -0.0937,0.0937 -0.0224,0.0108 -0.0403,0.0507 -0.0625,0.0625 -0.0857,0.0457 -0.17859,0.0848 -0.28125,0.1875 0.003,-0.003 -0.11387,0.0988 -0.21875,0.1875 -0.2006,0.16972 -0.37738,0.36091 -0.5625,0.625 -0.0508,0.0725 -0.11706,0.1326 -0.15625,0.1875 -0.0392,0.0549 -0.11992,0.12312 -0.0312,0.0312 -0.2226,0.23063 -0.1635,0.24596 -0.21875,0.34375 -0.0553,0.0978 -0.13341,0.20513 -0.1875,0.3125 -0.0375,0.0743 -0.0374,0.1419 -0.0625,0.1875 0.0182,-0.0205 0.10493,-0.0833 0.15625,-0.125 -0.0891,0.0654 -0.15044,0.13032 -0.1875,0.1875 -0.0185,0.0286 -0.0796,0.0702 -0.0937,0.0937 -0.059,0.0982 -0.10306,0.17894 -0.125,0.25 -0.0236,0.0764 -0.0219,0.14632 -0.0312,0.21875 -0.006,0.0109 -0.0254,0.0205 -0.0312,0.0312 -0.0947,0.17492 -0.15625,0.35353 -0.15625,0.5625 0,-0.002 0.0379,-0.0122 0.0312,0 -0.0689,0.1524 -0.0793,0.23105 -0.0937,0.3125 -0.0175,0.0987 -0.0519,0.19849 -0.0625,0.3125 -0.0196,0.21051 -0.0305,0.47102 -0.0312,0.75 -0.22853,-0.0266 -0.41796,-0.0251 -0.625,-0.0625 -0.43175,-0.0779 -0.845,-0.15746 -1.03125,-0.1875 0.0334,0.0126 0.11231,-0.062 0.34375,0.3125 -0.31444,-0.50875 -0.49105,-0.40426 -0.625,-0.4375 -0.0561,-0.0139 -0.10462,-0.0243 -0.15625,-0.0312 -0.0599,-0.0345 -0.14056,-0.0765 -0.1875,-0.0937 -0.16265,-0.0597 -0.26015,-0.0926 -0.375,-0.0937 -0.0128,4e-5 -0.01,0 -0.0312,0 -0.1948,-0.0902 -0.3856,-0.19043 -0.78125,-0.34375 -0.0439,-0.017 -0.0672,-0.0185 -0.0937,-0.0312 0.0107,0.008 0.0442,0.0464 0.0625,0.0625 0.0183,0.0161 0.0323,0.0279 0.0625,0.0625 0.0302,0.0346 0.0499,0.0725 0.0937,0.15625 0.0219,0.0419 0.0431,0.0899 0.0625,0.15625 0.0194,0.0663 0.0625,0.25093 0.0625,0.25 -0.001,-0.31929 -0.16729,-0.44717 -0.28125,-0.5625 -0.0253,-0.0256 -0.0414,-0.10689 -0.0625,-0.125 -0.0429,-0.0325 -0.0384,-0.0352 -0.0312,-0.0312 -0.0946,-0.0738 -0.18231,-0.12857 -0.25,-0.15625 -0.0447,-0.0183 -0.0833,-0.0193 -0.125,-0.0312 -0.0384,-0.0227 -0.0915,-0.0787 -0.125,-0.0937 -0.0773,-0.0347 -0.12499,-0.0171 -0.1875,-0.0312 -0.006,-0.002 -0.0205,-0.0261 -0.0312,-0.0312 -0.0251,-0.012 -0.0509,-0.009 -0.0937,-0.0312 -0.12248,-0.0644 -0.27325,-0.18339 -0.4375,-0.28125 -0.16425,-0.0979 -0.3331,-0.17952 -0.4375,-0.25 -0.0321,-0.0217 -0.0457,-0.019 -0.0625,-0.0312 0.019,0.0199 0.049,0.0566 0.0937,0.125 0.0223,0.0342 0.0648,0.0839 0.0937,0.15625 0.0145,0.0362 0.0191,0.0713 0.0312,0.125 0.0121,0.0537 0.0312,0.18813 0.0312,0.1875 0,-0.33058 -0.20329,-0.63434 -0.40625,-0.78125 -0.0547,-0.0396 -0.10124,-0.0369 -0.15625,-0.0625 -0.0213,-0.018 -0.0442,-0.0805 -0.0625,-0.0937 -0.14372,-0.10393 -0.24751,-0.1257 -0.34375,-0.15625 0.17738,0.0563 -0.0223,-0.0507 0,-0.0312 -0.16046,-0.13932 -0.3468,-0.27972 -0.46875,-0.375 -0.0438,-0.0343 -0.44834,-0.38554 -0.78125,-0.71875 -0.33291,-0.3332 -0.72604,-0.77103 -0.6875,-0.71875 -0.0567,-0.0769 -0.10761,-0.13734 -0.1875,-0.21875 -0.0399,-0.0407 -0.0751,-0.0986 -0.15625,-0.15625 -0.0811,-0.0576 -0.19237,-0.1875 -0.5625,-0.1875 -0.61873,0 -0.69441,0.24321 -0.84375,0.40625 -0.057,0.0622 -0.0693,0.23619 -0.125,0.3125 -0.006,0.005 -0.0257,-0.005 -0.0312,0 -0.085,0.0828 -0.0876,0.14863 -0.125,0.21875 0.0178,-0.0392 0.0867,-0.10377 0.125,-0.15625 -0.0586,0.0951 -0.13947,0.16034 -0.15625,0.34375 0.005,-0.0527 -0.0106,-0.0955 0.0312,-0.1875 -0.0231,0.0434 -0.0796,0.0884 -0.0937,0.125 -0.0689,0.17856 -0.0932,0.29385 -0.0937,0.40625 -4e-5,0.008 0,0.023 0,0.0312 -0.0152,0.0525 -0.0788,0.13562 -0.0937,0.1875 -0.0438,0.1525 -0.0977,0.30031 -0.125,0.46875 -0.0546,0.33689 -0.0925,0.72512 -0.0937,1.09375 -0.002,0.72758 0.0514,1.33968 0.375,1.96876 0.008,0.0767 0.0541,0.15564 0.0937,0.25 0.0235,0.0559 -0.01,0.0948 0.0312,0.15625 0.0104,0.0492 0.0126,0.1022 0.0312,0.15625 0.006,0.0172 0.0243,0.0442 0.0312,0.0625 a 0.89394412,0.89394412 0 0 0 -0.625,1 l 0.0622,0.46875 c 0.001,0.0107 -0.001,0.0205 0,0.0312 0.0312,0.29598 0.0649,0.5839 0.125,0.84375 0.0311,0.13463 0.0837,0.25363 0.125,0.375 0.0101,0.0295 0.0574,0.0971 0.0625,0.125 0.002,0.008 0.0294,0.0224 0.0312,0.0312 0.009,0.0435 0.0497,0.11991 0.0937,0.1875 -0.007,-0.0176 -0.0599,-0.0498 -0.0625,-0.0625 0.01,0.0593 0.004,0.11179 0.0312,0.1875 0.0296,0.0832 0.0395,0.177 0.15625,0.3125 0.0205,0.0337 0.0455,0.12767 0.0625,0.15625 0.0573,0.0965 0.10905,0.158 0.15625,0.21875 -0.002,-0.004 0.008,-0.008 0,-0.0312 0.0486,0.13801 0.11568,0.31673 0.15625,0.375 0.0633,0.0908 0.11767,0.16947 0.1875,0.25 0.13966,0.16105 0.32082,0.32461 0.5,0.5 0.10324,0.10105 0.20711,0.18531 0.3125,0.28125 -0.18665,0.24185 -0.24638,0.43469 -0.25,0.53125 -0.004,0.11273 0.0214,0.19014 0.0312,0.25 0.0196,0.11971 0.0317,0.18963 0.0625,0.28125 0.0308,0.0916 0.0681,0.17415 0.125,0.28125 0.008,0.0148 0.0222,0.0464 0.0312,0.0625 0.0237,0.0421 0.0381,0.0898 0.0937,0.15625 0.0239,0.0756 0.006,0.1385 0.0937,0.25 0.008,0.01 0.0226,0.0217 0.0312,0.0312 0.0144,0.0159 0.0457,0.0159 0.0625,0.0312 0.16112,0.14716 0.39466,0.30345 0.59375,0.3125 -0.26395,-0.0108 -0.39476,-0.13375 -0.46875,-0.1875 -0.0687,-0.0499 -0.10295,-0.0999 -0.125,-0.125 l -0.0312,0 c 0.0537,0.12342 0.10137,0.22992 0.15625,0.3125 0.0346,0.0521 0.0787,0.13401 0.125,0.1875 0.0115,0.015 0.0345,0.025 0.0625,0.0625 0.0187,0.0171 0.006,0.009 0.0312,0.0312 0.0541,0.0723 0.13921,0.18131 0.21875,0.28125 0.19858,0.24952 0.30577,0.38456 0.46875,0.53125 0.0321,0.0289 0.11064,0.0331 0.15625,0.0625 0.053,0.0695 0.0626,0.0955 0.0937,0.125 0.0623,0.059 0.10453,0.0863 0.15625,0.125 0.10345,0.0775 0.21889,0.17587 0.34375,0.25 0.083,0.0493 0.1618,0.0752 0.1875,0.0937 -0.0153,-0.0143 -0.0475,-0.0323 -0.0937,-0.0937 -0.009,-0.0118 -0.0206,-0.0466 -0.0312,-0.0625 -0.0172,-0.0257 -0.0412,-0.0491 -0.0625,-0.0937 -0.0138,-0.0289 -0.0488,-0.0517 -0.0625,-0.0937 -0.004,-5.6e-4 0.004,-0.0306 0,-0.0312 -0.0163,-0.0576 -0.0313,-0.21968 -0.0312,-0.21875 0.004,0.15884 0.0749,0.18021 0.125,0.28125 0.0138,0.0277 0.0472,0.0385 0.0625,0.0625 0.0635,0.0993 0.10229,0.26634 0.15625,0.3125 0.11442,0.0979 0.20372,0.15572 0.28125,0.1875 0.034,0.0139 0.0616,0.021 0.0937,0.0312 0.028,0.0179 0.0666,0.048 0.0937,0.0625 -0.0618,0.0276 -0.13965,0.0428 -0.1875,0.0625 0.0172,-0.007 -0.0435,0 0.0937,0 -0.15691,0 -0.24674,0.12399 -0.375,0.1875 -0.009,0.004 -0.0227,-0.005 -0.0312,0 -0.0778,0.006 -0.15727,0.006 -0.25,0.0312 -0.0214,0.006 -0.0688,0.057 -0.0937,0.0625 -0.12746,0 -0.2421,0.0298 -0.375,0.0625 -0.0665,0.0163 -0.12182,0.0155 -0.21875,0.0625 -0.0232,0.0113 -0.0654,0.079 -0.0937,0.0937 -0.0241,0.003 -0.0165,-0.006 -0.0312,0 -0.19333,0.0266 -0.50846,0.0785 -0.78125,0.125 -0.14286,0.0243 -0.81173,0.0604 -1.3125,0.0625 -0.27476,0.001 -0.52243,0.0263 -0.71875,0.0312 -0.0982,0.002 -0.19935,-0.006 -0.28125,0 -0.041,0.003 -0.0513,0.0179 -0.125,0.0312 -0.0368,0.007 -0.0812,-0.0108 -0.1875,0.0312 -0.0266,0.0105 -0.0541,0.0411 -0.0937,0.0625 -0.0397,0.0214 -0.15582,0.0934 -0.15625,0.0937 -4.3e-4,3.6e-4 -0.21854,0.24963 -0.21875,0.25 -2.1e-4,3.7e-4 -0.12501,0.46837 -0.125,0.46875 0.006,0.29446 0.10869,0.39368 0.15625,0.46875 0.0476,0.0751 0.0954,0.0928 0.125,0.125 0.0592,0.0645 0.0836,0.12183 0.125,0.15625 0.0828,0.0688 0.16564,0.0998 0.25,0.15625 0.0844,0.0564 0.15575,0.13697 0.25,0.1875 0.0141,0.008 0.0477,-0.008 0.0625,0 0.0346,0.0177 0.0777,0.0434 0.125,0.0625 0.0179,0.0121 0.0441,-0.0107 0.0625,0 0.16531,0.0961 0.32439,0.21875 0.46875,0.21875 -0.25415,0 -0.23157,-0.0568 -0.25,-0.0625 0.0112,0.004 0.0505,0.0443 0.0937,0.0625 0.0864,0.0364 0.20982,0.0642 0.34375,0.125 0.26785,0.12164 0.58365,0.27342 0.71875,0.34375 0.0462,0.0241 0.1146,0.0117 0.15625,0.0312 0.005,0.005 -0.005,0.0266 0,0.0312 0.13548,0.12451 0.25601,0.15532 0.34375,0.1875 0.17547,0.0644 0.28135,0.0937 0.40625,0.0937 0.16993,0.0728 0.30435,0.13006 0.5,0.1875 0.25731,0.0755 0.56195,0.15609 0.84375,0.21875 0.15643,0.0348 0.43246,0.0956 0.53125,0.125 0.29562,0.0879 0.49937,0.12402 0.75,0.125 0.0367,1.4e-4 0.10147,-0.003 0.125,0 0.0197,0.004 0.078,0.0275 0.0937,0.0312 0.0537,0.0127 0.0925,0.0268 0.125,0.0312 0.065,0.009 0.12687,-0.004 0.1875,0 0.12126,0.008 0.23908,0.0274 0.40625,0.0312 0.33434,0.008 0.76817,0.003 1.21875,0 0.90116,-0.007 1.83436,-0.038 2.34375,-0.0937 0.16601,-0.0182 0.33188,-0.027 0.46875,-0.0625 0.0684,-0.0177 0.11327,-0.0344 0.1875,-0.0625 0.0119,-0.005 0.0508,-0.0285 0.0625,-0.0312 0.22318,-0.007 0.31255,-0.0599 0.46875,-0.0937 0.17632,-0.0382 0.36188,-0.0721 0.5625,-0.125 0.5949,-0.15702 0.9033,-0.28524 1.21875,-0.4375 l 0,-0.0312 c 0.0312,-0.0151 0.0936,-0.0153 0.125,-0.0312 -0.17515,0.0891 -6.2e-4,0.0625 -0.125,0.0625 0.1249,0 0.23078,-0.0294 0.40625,-0.0937 0.0564,-0.0207 0.14338,-0.0762 0.21875,-0.125 0.008,-0.005 0.0228,0.006 0.0312,0 0.0596,-0.0221 0.12815,-0.0367 0.1875,-0.0625 0.13676,-0.0594 0.2871,-0.14354 0.4375,-0.21875 0.1504,-0.0752 0.27973,-0.14628 0.40625,-0.21875 0.056,-0.032 0.10074,-0.0883 0.15625,-0.125 0.01,-0.002 0.0209,0.002 0.0312,0 0.0437,-0.0101 0.0723,-0.0122 0.125,-0.0312 0.0852,-0.0307 0.20819,-0.0672 0.34375,-0.1875 0.005,-0.004 -0.005,-0.0263 0,-0.0312 0.002,-0.002 0.0289,0.002 0.0312,0 0.0861,-0.0441 0.16083,-0.10311 0.25,-0.15625 0.19489,-0.11613 0.37152,-0.19606 0.59375,-0.40625 -0.10571,0.1 0.0903,-0.0548 0.15625,-0.0937 0.13252,-0.0783 0.21575,-0.1781 0.3125,-0.28125 0.005,-0.006 0.0265,-0.0259 0.0312,-0.0312 0.0119,-0.0133 0.0791,-0.0208 0.0937,-0.0312 0.0984,-0.0701 0.18124,-0.16157 0.28125,-0.25 0.20002,-0.17685 0.45148,-0.42279 0.78125,-0.75 0.43637,-0.43298 0.63927,-0.65209 1.21875,-1.34375 0.0319,-0.0381 0.18733,-0.16679 0.3125,-0.3125 0.10819,-0.12593 0.16724,-0.26454 0.21875,-0.375 0.003,-0.007 -0.003,-0.0252 0,-0.0312 0.0281,-0.0315 0.10531,-0.0312 0.125,-0.0625 0.0544,-0.0864 0.0394,-0.1429 0.0625,-0.21875 0.003,-0.01 -0.003,-0.0214 0,-0.0312 0.005,-0.005 0.0269,0.005 0.0312,0 0.001,-0.002 -0.002,-0.0297 0,-0.0312 0.14982,-0.18153 0.2523,-0.32283 0.375,-0.53125 0.14395,-0.24452 0.28381,-0.52356 0.4375,-0.8125 0.15369,-0.28894 0.29307,-0.57291 0.40625,-0.8125 0.0566,-0.1198 0.11516,-0.2409 0.15625,-0.34375 0.0205,-0.0514 0.0434,-0.0941 0.0625,-0.15625 0.0191,-0.0622 0.0625,-0.099 0.0625,-0.3125 0,0.34879 -0.0722,0.22723 0.0937,-0.0937 0.0893,-0.1728 0.0753,-0.2364 0.0937,-0.34375 0.01,-0.0127 0.0548,-0.0198 0.0625,-0.0312 0.0993,-0.14634 0.10389,-0.23312 0.125,-0.3125 0.028,-0.10513 0.0268,-0.17229 0.0312,-0.25 0.007,-0.0145 0.0251,-0.0181 0.0312,-0.0312 9.8e-4,-0.0282 0,-0.0654 0,-0.0937 0.0113,-0.0297 0.0541,-0.0676 0.0625,-0.0937 0.0359,-0.11239 0.0461,-0.18024 0.0625,-0.28125 0.0129,-0.0799 0.094,-0.47225 0.15625,-0.75 0.17906,-0.79901 0.30231,-1.6401 0.34375,-2.75 l 0.0312,-0.46875 c 0.10169,-0.0835 0.19687,-0.17359 0.3125,-0.28125 0.19486,-0.18144 0.41305,-0.40914 0.625,-0.625 0.21195,-0.21586 0.4339,-0.41361 0.59375,-0.59375 0.0799,-0.0901 0.15463,-0.16654 0.21875,-0.25001 0.0321,-0.0417 0.0546,-0.092 0.0937,-0.15625 0.007,-0.0121 0.0201,-0.0835 0.0312,-0.0937 0.03,-0.0276 0.0687,-0.13759 0.0937,-0.25 -0.0233,0.0783 -0.0506,0.19719 -0.0625,0.21875 0.0251,-0.0317 0.0537,-0.0772 0.125,-0.15625 0.0691,-0.0766 0.16335,-0.13075 0.25,-0.40625 0.0433,-0.13774 0.11128,-0.41631 -0.0937,-0.75 -0.20503,-0.33369 -0.60075,-0.4375 -0.78125,-0.4375 -0.0618,0 -0.053,-0.003 -0.0937,0 0.006,-0.0129 0.025,-0.0184 0.0312,-0.0312 0.10846,-0.22541 0.18706,-0.3394 0.25,-0.5625 0.0315,-0.11154 0.0859,-0.25185 0,-0.5625 -0.0859,-0.31064 -0.50169,-0.63883 -0.71875,-0.6875 -0.36972,-0.0829 -0.46381,-0.0127 -0.59375,0.0312 -0.12994,0.0439 -0.25674,0.11002 -0.375,0.1875 l 0,0.0312 c 1.5e-4,10e-4 -0.0312,-3e-5 -0.0312,0 -0.10476,0.0201 -0.1806,0.0361 -0.3125,0.125 -0.0355,0.009 -0.0525,0.0162 -0.0937,0.0312 -0.0718,0.0263 -0.17774,0.0762 -0.28125,0.15625 -0.0136,0.0105 -0.017,0.019 -0.0312,0.0312 -0.009,0.008 -0.0218,-0.009 -0.0312,0 -0.0464,0.0164 -0.12636,0.0266 -0.1875,0.0625 -0.0216,0.0127 -0.038,0.0142 -0.0625,0.0312 -0.0102,0.007 -0.0205,-0.008 -0.0312,0 -0.0241,0.007 -0.0351,-0.008 -0.0625,0 -0.26551,0.0746 -0.56169,0.20936 -0.6875,0.25 -0.0982,0.0317 -0.0417,0.0272 -0.0625,0.0312 -0.10237,-0.0966 -0.21101,-0.17679 -0.3125,-0.25 -0.0388,-0.028 -0.0782,-0.0343 -0.125,-0.0625 -0.0154,-0.0152 -0.0178,-0.0191 -0.0312,-0.0312 -0.0539,-0.0486 -0.0877,-0.0996 -0.125,-0.125 -0.0933,-0.0634 -0.17553,-0.0866 -0.25,-0.125 -0.024,-0.0124 -0.16373,-0.15768 -0.0625,-0.0625 -0.2127,-0.2 -0.29224,-0.19594 -0.40625,-0.25 -0.11402,-0.0541 -0.23087,-0.0824 -0.375,-0.125 -0.028,-0.008 -0.0394,-0.0228 -0.0625,-0.0312 -0.0508,-0.0335 -0.0678,-0.0336 -0.0625,-0.0312 -0.0151,-0.009 -0.0177,-0.0547 -0.0312,-0.0625 -0.12638,-0.0724 -0.20915,-0.0751 -0.28125,-0.0937 -0.1442,-0.0373 -0.26933,-0.0625 -0.40625,-0.0625 -0.007,-0.001 -0.0253,-0.0294 -0.0312,-0.0312 -0.0873,-0.0269 -0.16758,-0.0235 -0.21875,-0.0312 -0.10233,-0.0155 -0.17556,-0.0252 -0.28125,-0.0312 -0.21082,-0.0121 -0.47545,-0.0312 -0.7807,-0.0312 z m 2.21875,0.5 c 0.0353,0.037 0.075,0.0656 0.125,0.15625 0.025,0.0453 0.0414,0.11693 0.0625,0.1875 0.0211,0.0706 0.0625,0.25097 0.0625,0.25 0,-0.2759 -0.15137,-0.48151 -0.25,-0.59375 z m 3.0625,0.46875 c -0.17557,0.18159 -0.34375,0.43636 -0.34375,0.65625 0,-0.27828 0.16263,-0.51653 0.28125,-0.625 0.0257,-0.0235 0.0399,-0.0144 0.0625,-0.0312 z m -8.75,0.21875 c -0.0372,0.0274 -0.076,0.1845 -0.125,0.25 -0.059,0.0787 -0.11409,0.0849 -0.125,0.3125 0.004,-0.0981 0.0391,-0.23042 0.0937,-0.34375 0.0322,-0.0667 0.0368,-0.12426 0.0937,-0.1875 0.0168,-0.0186 0.0437,-0.0145 0.0625,-0.0312 z m 8.0625,0.0625 c -0.13151,0.11041 -0.3125,0.28257 -0.3125,0.65625 0,9.7e-4 0.0397,-0.1745 0.0625,-0.25 0.0228,-0.0755 0.0324,-0.13604 0.0625,-0.1875 0.0603,-0.10291 0.14195,-0.1773 0.1875,-0.21875 z m -20.34375,5.34375 c 0.0665,0.0803 0.18092,0.0964 0.28125,0.15625 a 0.89394412,0.89394412 0 0 0 -0.0625,0 c -0.006,-0.005 -0.0251,0.005 -0.0312,0 -0.0397,-0.0343 -0.13323,-0.0645 -0.15625,-0.0937 -0.0243,-0.031 -0.0155,-0.0374 -0.0312,-0.0625 z m 1.6875,2.1875 c 0.0536,0.0443 0.0363,0.0924 0.25,0.1875 -0.0359,-0.016 -0.0876,-0.0142 -0.1875,-0.0937 -0.025,-0.0199 -0.0628,-0.0941 -0.0625,-0.0937 z m 18.90625,2.40625 c -0.1095,0.19475 -0.27934,0.375 -0.65625,0.375 0.33126,0 0.5275,-0.22844 0.65625,-0.375 z m -2.0625,3.84375 c -0.039,0.0338 -0.0624,0.13812 -0.0937,0.15625 -0.0108,0.006 -0.021,-0.006 -0.0312,0 -0.12655,0.0689 -0.20186,0.125 -0.34375,0.125 0.11404,0 0.1745,-0.11151 0.28125,-0.15625 0.0746,-0.0313 0.12348,-0.0805 0.1875,-0.125 z m -13.25,0.71875 c -0.0136,0.005 -0.0176,0.0256 -0.0312,0.0312 -0.0296,0.006 -0.0659,-0.008 -0.0937,0 0.0572,-0.0252 0.0868,-0.0229 0.125,-0.0312 z m 9.5,2.5625 c 0,0.14477 -0.0402,0.22654 -0.125,0.375 -0.007,0.0123 -0.053,0.0175 -0.0625,0.0312 0.0793,-0.13119 0.1875,-0.22224 0.1875,-0.40625 z"
         inkscape:connector-curvature="0" />
      <path
         style="opacity:0.3;color:#000000;fill:#0981ae;fill-opacity:1;fill-rule:nonzero;stroke:none;stroke-width:1;marker:none;visibility:visible;display:inline;overflow:visible;enable-background:accumulate"
         id="path3937-0-3-8"
         d="m 95.54976,-175.60181 c -0.59033,0 -1.02065,0.0297 -1.04694,0.0722 -0.0245,0.0397 -0.1259,0.0722 -0.22337,0.0722 -0.0975,0 -0.23339,0.0253 -0.30235,0.0587 -0.88207,0.42619 -1.24323,0.62403 -1.24323,0.67464 0,0.0335 -0.0364,0.0609 -0.079,0.0609 -0.0426,0 -0.11912,0.0424 -0.17148,0.0948 -0.0524,0.0524 -0.18822,0.17419 -0.30235,0.27076 -0.11412,0.0966 -0.2884,0.28971 -0.38583,0.4287 -0.0974,0.13899 -0.21256,0.28775 -0.25496,0.33167 -0.0424,0.0439 -0.15706,0.23888 -0.25496,0.43322 -0.0979,0.19434 -0.20036,0.36357 -0.23015,0.3768 -0.0298,0.0132 -0.0541,0.11884 -0.0541,0.23466 0,0.11583 -0.0325,0.21209 -0.0722,0.21209 -0.0397,0 -0.0722,0.0831 -0.0722,0.18502 0,0.10189 -0.0356,0.25055 -0.079,0.33168 -0.0463,0.0866 -0.079,0.54162 -0.0767,1.10108 l 0.005,0.95217 -0.449,-0.0293 c -0.24662,-0.0163 -0.80416,-0.0927 -1.24098,-0.17148 -0.43682,-0.0788 -0.90171,-0.16189 -1.03114,-0.18276 -0.12943,-0.0209 -0.25344,-0.0662 -0.27527,-0.10154 -0.0218,-0.0353 -0.13366,-0.0632 -0.25045,-0.0632 -0.11679,0 -0.21209,-0.0325 -0.21209,-0.0722 0,-0.0397 -0.0667,-0.0722 -0.14666,-0.0722 -0.08,0 -0.20181,-0.0304 -0.27076,-0.0654 -0.14624,-0.0744 -0.35349,-0.16131 -0.82807,-0.34521 -0.18848,-0.073 -0.34281,-0.15524 -0.34296,-0.18502 -1.4e-4,-0.0298 -0.065,-0.0542 -0.1444,-0.0542 -0.0794,0 -0.14441,-0.0325 -0.14441,-0.0722 0,-0.0397 -0.0507,-0.0722 -0.11056,-0.0722 -0.13553,0 -1.47789,-0.79938 -1.47789,-0.87997 0,-0.0324 -0.0487,-0.0587 -0.1083,-0.0587 -0.0596,0 -0.1083,-0.0306 -0.1083,-0.0677 0,-0.037 -0.0629,-0.0868 -0.13764,-0.11055 -0.0747,-0.0237 -0.21279,-0.11012 -0.30686,-0.19179 -0.0941,-0.0817 -0.28203,-0.23493 -0.41742,-0.34071 -0.31621,-0.24704 -1.44187,-1.36838 -1.62906,-1.62229 -0.0789,-0.10705 -0.16994,-0.19404 -0.20307,-0.19404 -0.10056,0 -0.26624,0.19749 -0.26624,0.31814 0,0.0624 -0.0325,0.11507 -0.0722,0.11507 -0.0397,0 -0.0722,0.0734 -0.0722,0.16471 0,0.0913 -0.0285,0.19693 -0.0609,0.23466 -0.1268,0.14735 -0.24831,0.88304 -0.25045,1.50722 -0.002,0.62007 0.10344,1.29795 0.24594,1.57491 0.0355,0.069 0.0654,0.17455 0.0654,0.23466 0,0.0601 0.0325,0.11056 0.0722,0.11056 0.0397,0 0.0722,0.0812 0.0722,0.1805 0,0.0993 0.0241,0.18051 0.0541,0.18051 0.03,0 0.0938,0.0893 0.14214,0.19855 0.0483,0.10921 0.1623,0.29117 0.25271,0.40614 0.25222,0.32076 0.9517,1.02837 1.0695,1.08078 0.0577,0.0257 -0.12139,0.0277 -0.39937,0.005 -0.27798,-0.0232 -0.53764,-0.0721 -0.57536,-0.10831 -0.0377,-0.0362 -0.14332,-0.0654 -0.23466,-0.0654 -0.0913,0 -0.16471,-0.0303 -0.16471,-0.0654 0,-0.0351 -0.0731,-0.0803 -0.16246,-0.10153 -0.0893,-0.0213 -0.24281,-0.0632 -0.33844,-0.0925 l -0.17374,-0.0541 0.0519,0.49865 c 0.0526,0.52359 0.1944,1.14205 0.28204,1.22969 0.0284,0.0284 0.0519,0.11221 0.0519,0.18502 0,0.0728 0.0325,0.13312 0.0722,0.13312 0.0397,0 0.0713,0.0569 0.0722,0.12635 8.8e-4,0.0695 0.0667,0.20759 0.1444,0.30686 0.0777,0.0993 0.14127,0.20546 0.14215,0.23692 0.005,0.16447 1.14747,1.28871 1.48466,1.45983 0.1565,0.0794 0.29588,0.16878 0.30911,0.19856 0.0132,0.0298 0.0863,0.0542 0.16246,0.0542 0.0761,0 0.13989,0.0325 0.13989,0.0722 0,0.0397 0.0628,0.0722 0.13989,0.0722 0.0771,0 0.16048,0.0325 0.18502,0.0722 0.0245,0.0397 0.14034,0.0722 0.25948,0.0722 0.37243,0 0.15869,0.12669 -0.36101,0.21435 -0.36229,0.0611 -0.60955,0.063 -0.91381,0.007 -0.22959,-0.0424 -0.42883,-0.0653 -0.44224,-0.0519 -0.0485,0.0485 0.0693,0.4806 0.13087,0.4806 0.0348,0 0.0632,0.065 0.0632,0.1444 0,0.0794 0.0241,0.14441 0.0542,0.14441 0.03,0 0.0995,0.10559 0.15568,0.23465 0.0562,0.12906 0.12137,0.2509 0.14441,0.27076 0.023,0.0199 0.17139,0.19856 0.32942,0.39711 0.37457,0.47065 0.44412,0.54152 0.537,0.54152 0.0426,0 0.079,0.0249 0.079,0.0564 0,0.0315 0.16099,0.15334 0.35876,0.27076 0.19776,0.11741 0.36022,0.23872 0.36101,0.2685 7.8e-4,0.0298 0.0672,0.0541 0.14666,0.0541 0.0794,0 0.1444,0.0325 0.1444,0.0722 0,0.0397 0.0812,0.0722 0.18051,0.0722 0.0993,0 0.1805,0.0325 0.1805,0.0722 0,0.0397 0.0975,0.0722 0.21661,0.0722 0.11913,0 0.21661,0.0325 0.21661,0.0722 0,0.0397 0.12184,0.0737 0.27075,0.0767 0.14892,0.003 0.37803,0.0447 0.50993,0.0925 l 0.23917,0.0857 -0.32265,0.2324 c -0.17811,0.12791 -0.36074,0.23466 -0.40388,0.23466 -0.0432,0 -0.0767,0.0325 -0.0767,0.0722 0,0.0397 -0.0475,0.0722 -0.10379,0.0722 -0.0563,0 -0.11312,0.0235 -0.12636,0.0542 -0.0332,0.0768 -1.12538,0.59567 -1.25451,0.59567 -0.0575,0 -0.10379,0.0325 -0.10379,0.0722 0,0.0397 -0.0813,0.0722 -0.17825,0.0722 -0.0969,0 -0.19432,0.0325 -0.21886,0.0722 -0.0245,0.0397 -0.13826,0.0722 -0.25271,0.0722 -0.11445,0 -0.22624,0.0277 -0.24819,0.0632 -0.022,0.0355 -0.16221,0.0816 -0.31138,0.10153 -0.14916,0.0199 -0.49819,0.0744 -0.77617,0.12184 -0.27798,0.0474 -0.95217,0.088 -1.4982,0.0902 -0.54602,0.002 -0.99327,0.0234 -0.99278,0.0474 10e-4,0.0593 0.48391,0.37004 0.57537,0.37004 0.0403,0 0.0745,0.0325 0.0745,0.0722 0,0.0397 0.0301,0.0722 0.0677,0.0722 0.0601,0 0.97873,0.40675 1.31994,0.58439 0.069,0.0359 0.17455,0.0654 0.23466,0.0654 0.0601,0 0.11056,0.0325 0.11056,0.0722 0,0.0397 0.0644,0.0722 0.1444,0.0722 0.08,0 0.20181,0.029 0.27076,0.0654 0.14655,0.0774 0.76675,0.2578 1.28159,0.37229 0.19856,0.0441 0.46018,0.10815 0.58213,0.1444 0.12195,0.0363 0.34939,0.0671 0.50541,0.0677 0.15603,5.8e-4 0.33304,0.0326 0.3926,0.0722 0.1153,0.0767 3.22636,0.0471 4.00722,-0.0384 0.23827,-0.0261 0.46318,-0.0766 0.50091,-0.11281 0.0377,-0.0362 0.15144,-0.0676 0.2527,-0.0677 0.10127,-8e-5 0.49369,-0.0809 0.87094,-0.18051 0.63902,-0.16866 0.85368,-0.24244 1.17103,-0.40388 0.069,-0.0351 0.1908,-0.0632 0.27076,-0.0632 0.08,0 0.14666,-0.0325 0.14666,-0.0722 0,-0.0397 0.0437,-0.0722 0.097,-0.0722 0.12064,0 1.15618,-0.5191 1.18908,-0.59567 0.0132,-0.0308 0.0863,-0.0541 0.16246,-0.0541 0.0761,0 0.13989,-0.0325 0.13989,-0.0722 0,-0.0397 0.0316,-0.0722 0.0722,-0.0722 0.0792,0 0.62519,-0.34017 0.77843,-0.48511 0.0511,-0.0483 0.18917,-0.14483 0.30686,-0.21435 0.11768,-0.0695 0.21435,-0.15161 0.21435,-0.18276 0,-0.0311 0.0293,-0.0564 0.0677,-0.0564 0.0836,0 0.42783,-0.302 1.07626,-0.9454 0.42739,-0.42407 0.59055,-0.60539 1.16652,-1.29287 0.0832,-0.0993 0.21405,-0.25556 0.29106,-0.34522 0.077,-0.0897 0.14215,-0.19524 0.14215,-0.23465 0,-0.0394 0.0325,-0.0699 0.0722,-0.0699 0.0397,0 0.0722,-0.0427 0.0722,-0.0948 0,-0.0521 0.0559,-0.15768 0.12635,-0.23466 0.24736,-0.27026 1.31769,-2.29158 1.31769,-2.48872 0,-0.0726 0.0379,-0.1613 0.20533,-0.48511 0.0459,-0.0888 0.0835,-0.2269 0.0835,-0.30686 0,-0.08 0.0325,-0.1444 0.0722,-0.1444 0.0397,0 0.0722,-0.0976 0.0722,-0.21435 0,-0.11679 0.0279,-0.22862 0.0632,-0.25045 0.0353,-0.0218 0.0806,-0.14584 0.10153,-0.27527 0.021,-0.12943 0.0935,-0.47834 0.1602,-0.77618 0.16755,-0.74762 0.25797,-1.53849 0.29784,-2.60604 l 0.0338,-0.90704 0.20983,-0.1241 c 0.29747,-0.17572 1.80506,-1.69238 1.80506,-1.81634 0,-0.0399 0.08,-0.14671 0.27527,-0.36326 0.0525,-0.0582 0.069,-0.10379 0.0384,-0.10379 -0.14515,0 -0.89125,0.25507 -0.89125,0.3046 0,0.0309 -0.11372,0.0564 -0.2527,0.0564 -0.13899,0 -0.25271,0.0276 -0.25271,0.0632 0,0.0355 -0.12184,0.0835 -0.27076,0.10605 -0.14892,0.0225 -0.3926,0.0623 -0.54152,0.088 -0.14891,0.0257 -0.27075,0.0248 -0.27075,-0.002 0,-0.0717 0.1946,-0.25497 0.27075,-0.25497 0.0754,0 0.81228,-0.7574 0.81228,-0.83484 0,-0.0285 0.0583,-0.105 0.13086,-0.16922 0.0725,-0.0642 0.2493,-0.35875 0.3926,-0.65659 0.20718,-0.43056 0.23864,-0.54723 0.15343,-0.56633 -0.0589,-0.0132 -0.18611,0.0274 -0.28204,0.0902 -0.0959,0.0628 -0.22333,0.11507 -0.28429,0.11507 -0.061,0 -0.11056,0.0325 -0.11056,0.0722 0,0.0397 -0.065,0.0722 -0.14441,0.0722 -0.0794,0 -0.1444,0.0325 -0.1444,0.0722 0,0.0397 -0.0812,0.0722 -0.18051,0.0722 -0.0993,0 -0.1805,0.0254 -0.1805,0.0564 0,0.031 -0.15433,0.0982 -0.34296,0.15117 -0.18863,0.053 -0.48417,0.14132 -0.65433,0.1963 -0.4889,0.15796 -0.6766,0.13004 -0.97473,-0.15117 -0.14736,-0.13899 -0.30109,-0.25271 -0.34071,-0.25271 -0.0396,0 -0.07,-0.0279 -0.07,-0.0609 0,-0.033 -0.0893,-0.10611 -0.19855,-0.16246 -0.10921,-0.0563 -0.23911,-0.13815 -0.28656,-0.18276 -0.0474,-0.0446 -0.23426,-0.12483 -0.41516,-0.17825 -0.18089,-0.0534 -0.32716,-0.12238 -0.32716,-0.15343 0,-0.031 -0.11381,-0.0564 -0.25046,-0.0564 -0.13664,0 -0.26652,-0.0325 -0.29106,-0.0722 -0.0263,-0.0425 -0.45661,-0.0722 -1.04693,-0.0722 z"
         inkscape:connector-curvature="0" />
      <path
         style="color:#000000;fill:url(#linearGradient4247);fill-opacity:1;fill-rule:nonzero;stroke:none;stroke-width:1;marker:none;visibility:visible;display:inline;overflow:visible;enable-background:accumulate"
         id="path3937-0-5"
         d="m 95.54976,-176.60184 c -0.59033,0 -1.02065,0.0297 -1.04694,0.0722 -0.0245,0.0397 -0.1259,0.0722 -0.22337,0.0722 -0.0975,0 -0.23339,0.0254 -0.30235,0.0587 -0.88207,0.42619 -1.24323,0.62403 -1.24323,0.67463 0,0.0335 -0.0364,0.0609 -0.079,0.0609 -0.0426,0 -0.11912,0.0424 -0.17148,0.0948 -0.0524,0.0524 -0.18822,0.1742 -0.30235,0.27076 -0.11412,0.0966 -0.2884,0.28971 -0.38583,0.4287 -0.0974,0.13899 -0.21256,0.28775 -0.25496,0.33168 -0.0424,0.0439 -0.15706,0.23887 -0.25496,0.43322 -0.0979,0.19434 -0.20036,0.36356 -0.23015,0.3768 -0.0298,0.0132 -0.0541,0.11883 -0.0541,0.23466 0,0.11582 -0.0325,0.21209 -0.0722,0.21209 -0.0397,0 -0.0722,0.0831 -0.0722,0.18502 0,0.10189 -0.0356,0.25055 -0.079,0.33168 -0.0463,0.0866 -0.079,0.54161 -0.0767,1.10108 l 0.005,0.95217 -0.449,-0.0293 c -0.24662,-0.0163 -0.80416,-0.0927 -1.24098,-0.17148 -0.43682,-0.0788 -0.90171,-0.16189 -1.03114,-0.18276 -0.12943,-0.0209 -0.25344,-0.0662 -0.27527,-0.10154 -0.0218,-0.0353 -0.13366,-0.0632 -0.25045,-0.0632 -0.11679,0 -0.21209,-0.0325 -0.21209,-0.0722 0,-0.0397 -0.0667,-0.0722 -0.14666,-0.0722 -0.08,0 -0.20181,-0.0304 -0.27076,-0.0654 -0.14624,-0.0744 -0.35349,-0.16131 -0.82807,-0.34522 -0.18848,-0.073 -0.34281,-0.15523 -0.34296,-0.18501 -1.4e-4,-0.0298 -0.065,-0.0541 -0.1444,-0.0541 -0.0794,0 -0.14441,-0.0325 -0.14441,-0.0722 0,-0.0397 -0.0507,-0.0722 -0.11056,-0.0722 -0.13553,0 -1.47789,-0.79939 -1.47789,-0.87997 0,-0.0324 -0.0487,-0.0587 -0.1083,-0.0587 -0.0596,0 -0.1083,-0.0307 -0.1083,-0.0677 0,-0.037 -0.0629,-0.0869 -0.13764,-0.11056 -0.0747,-0.0237 -0.21279,-0.11011 -0.30686,-0.19178 -0.0941,-0.0817 -0.28203,-0.23494 -0.41742,-0.34071 -0.31621,-0.24704 -1.44187,-1.36839 -1.62906,-1.62229 -0.0789,-0.10705 -0.16994,-0.19404 -0.20307,-0.19404 -0.10056,0 -0.26624,0.19749 -0.26624,0.31814 0,0.0624 -0.0325,0.11507 -0.0722,0.11507 -0.0397,0 -0.0722,0.0734 -0.0722,0.16471 0,0.0913 -0.0285,0.19693 -0.0609,0.23466 -0.1268,0.14734 -0.24831,0.88303 -0.25045,1.50722 -0.002,0.62007 0.10344,1.29794 0.24594,1.5749 0.0355,0.069 0.0654,0.17456 0.0654,0.23466 0,0.0601 0.0325,0.11056 0.0722,0.11056 0.0397,0 0.0722,0.0812 0.0722,0.18051 0,0.0993 0.0241,0.1805 0.0541,0.1805 0.03,0 0.0938,0.0893 0.14214,0.19856 0.0483,0.1092 0.1623,0.29116 0.25271,0.40613 0.25222,0.32076 0.9517,1.02837 1.0695,1.08078 0.0577,0.0257 -0.12139,0.0277 -0.39937,0.005 -0.27798,-0.0232 -0.53764,-0.0721 -0.57536,-0.1083 -0.0377,-0.0362 -0.14332,-0.0654 -0.23466,-0.0654 -0.0913,0 -0.16471,-0.0303 -0.16471,-0.0654 0,-0.0351 -0.0731,-0.0803 -0.16246,-0.10154 -0.0893,-0.0213 -0.24281,-0.0632 -0.33844,-0.0925 l -0.17374,-0.0541 0.0519,0.49865 c 0.0526,0.52359 0.1944,1.14205 0.28204,1.22969 0.0284,0.0284 0.0519,0.11222 0.0519,0.18502 0,0.0728 0.0325,0.13312 0.0722,0.13312 0.0397,0 0.0713,0.0569 0.0722,0.12636 8.8e-4,0.0695 0.0667,0.20758 0.1444,0.30686 0.0777,0.0993 0.14127,0.20545 0.14215,0.23691 0.005,0.16448 1.14747,1.28872 1.48466,1.45984 0.1565,0.0794 0.29588,0.16877 0.30911,0.19855 0.0132,0.0298 0.0863,0.0541 0.16246,0.0541 0.0761,0 0.13989,0.0325 0.13989,0.0722 0,0.0397 0.0628,0.0722 0.13989,0.0722 0.0771,0 0.16048,0.0325 0.18502,0.0722 0.0245,0.0397 0.14034,0.0722 0.25948,0.0722 0.37243,0 0.15869,0.1267 -0.36101,0.21435 -0.36229,0.0611 -0.60955,0.063 -0.91381,0.007 -0.22959,-0.0424 -0.42883,-0.0653 -0.44224,-0.0519 -0.0485,0.0485 0.0693,0.4806 0.13087,0.4806 0.0348,0 0.0632,0.065 0.0632,0.1444 0,0.0794 0.0241,0.14441 0.0542,0.14441 0.03,0 0.0995,0.10559 0.15568,0.23466 0.0562,0.12906 0.12137,0.2509 0.14441,0.27075 0.023,0.0199 0.17139,0.19856 0.32942,0.39712 0.37457,0.47064 0.44412,0.54151 0.537,0.54151 0.0426,0 0.079,0.0249 0.079,0.0564 0,0.0315 0.16099,0.15335 0.35876,0.27076 0.19776,0.11741 0.36022,0.23872 0.36101,0.2685 7.8e-4,0.0298 0.0672,0.0542 0.14666,0.0542 0.0794,0 0.1444,0.0325 0.1444,0.0722 0,0.0397 0.0812,0.0722 0.18051,0.0722 0.0993,0 0.1805,0.0325 0.1805,0.0722 0,0.0397 0.0975,0.0722 0.21661,0.0722 0.11913,0 0.21661,0.0325 0.21661,0.0722 0,0.0397 0.12184,0.0737 0.27075,0.0767 0.14892,0.003 0.37803,0.0447 0.50993,0.0925 l 0.23917,0.0857 -0.32265,0.2324 c -0.17811,0.12791 -0.36074,0.23466 -0.40388,0.23466 -0.0432,0 -0.0767,0.0325 -0.0767,0.0722 0,0.0397 -0.0475,0.0722 -0.10379,0.0722 -0.0563,0 -0.11312,0.0235 -0.12636,0.0542 -0.0332,0.0768 -1.12538,0.59566 -1.25451,0.59566 -0.0575,0 -0.10379,0.0325 -0.10379,0.0722 0,0.0397 -0.0813,0.0722 -0.17825,0.0722 -0.0969,0 -0.19432,0.0325 -0.21886,0.0722 -0.0245,0.0397 -0.13826,0.0722 -0.25271,0.0722 -0.11445,0 -0.22624,0.0277 -0.24819,0.0632 -0.022,0.0355 -0.16221,0.0816 -0.31138,0.10153 -0.14916,0.0199 -0.49819,0.0744 -0.77617,0.12184 -0.27798,0.0474 -0.95217,0.088 -1.4982,0.0903 -0.54602,0.002 -0.99327,0.0234 -0.99278,0.0474 10e-4,0.0593 0.48391,0.37004 0.57537,0.37004 0.0403,0 0.0745,0.0325 0.0745,0.0722 0,0.0397 0.0301,0.0722 0.0677,0.0722 0.0601,0 0.97873,0.40675 1.31994,0.58439 0.069,0.0359 0.17455,0.0654 0.23466,0.0654 0.0601,0 0.11056,0.0325 0.11056,0.0722 0,0.0397 0.0644,0.0722 0.1444,0.0722 0.08,0 0.20181,0.029 0.27076,0.0654 0.14655,0.0774 0.76675,0.25781 1.28159,0.37229 0.19856,0.0441 0.46018,0.10815 0.58213,0.1444 0.12195,0.0363 0.34939,0.0671 0.50541,0.0677 0.15603,5.8e-4 0.33304,0.0326 0.3926,0.0722 0.1153,0.0767 3.22636,0.0471 4.00722,-0.0384 0.23827,-0.0261 0.46318,-0.0766 0.50091,-0.11281 0.0377,-0.0362 0.15144,-0.0676 0.2527,-0.0677 0.10127,-7e-5 0.49369,-0.0809 0.87094,-0.18051 0.63902,-0.16866 0.85368,-0.24244 1.17103,-0.40388 0.069,-0.0351 0.1908,-0.0632 0.27076,-0.0632 0.08,0 0.14666,-0.0325 0.14666,-0.0722 0,-0.0397 0.0437,-0.0722 0.097,-0.0722 0.12064,0 1.15618,-0.51909 1.18908,-0.59567 0.0132,-0.0308 0.0863,-0.0542 0.16246,-0.0542 0.0761,0 0.13989,-0.0325 0.13989,-0.0722 0,-0.0397 0.0316,-0.0722 0.0722,-0.0722 0.0792,0 0.62519,-0.34016 0.77843,-0.4851 0.0511,-0.0483 0.18917,-0.14483 0.30686,-0.21435 0.11768,-0.0695 0.21435,-0.15162 0.21435,-0.18277 0,-0.0311 0.0293,-0.0564 0.0677,-0.0564 0.0836,0 0.42783,-0.30201 1.07626,-0.9454 0.42739,-0.42407 0.59055,-0.60539 1.16652,-1.29287 0.0832,-0.0993 0.21405,-0.25556 0.29106,-0.34521 0.077,-0.0897 0.14215,-0.19525 0.14215,-0.23466 0,-0.0394 0.0325,-0.0699 0.0722,-0.0699 0.0397,0 0.0722,-0.0427 0.0722,-0.0948 0,-0.0521 0.0559,-0.15768 0.12635,-0.23466 0.24736,-0.27026 1.31769,-2.29157 1.31769,-2.48872 0,-0.0726 0.0379,-0.1613 0.20533,-0.4851 0.0459,-0.0888 0.0835,-0.2269 0.0835,-0.30686 0,-0.08 0.0325,-0.14441 0.0722,-0.14441 0.0397,0 0.0722,-0.0976 0.0722,-0.21435 0,-0.11679 0.0279,-0.22862 0.0632,-0.25045 0.0353,-0.0218 0.0806,-0.14584 0.10153,-0.27527 0.021,-0.12943 0.0935,-0.47834 0.1602,-0.77617 0.16755,-0.74763 0.25797,-1.5385 0.29784,-2.60605 l 0.0338,-0.90704 0.20983,-0.12409 c 0.29747,-0.17572 1.80506,-1.69239 1.80506,-1.81634 0,-0.04 0.08,-0.14671 0.27527,-0.36327 0.0525,-0.0582 0.069,-0.10379 0.0384,-0.10379 -0.14515,0 -0.89125,0.25507 -0.89125,0.30461 0,0.0309 -0.11372,0.0564 -0.2527,0.0564 -0.13899,0 -0.25271,0.0276 -0.25271,0.0632 0,0.0355 -0.12184,0.0835 -0.27076,0.10604 -0.14892,0.0225 -0.3926,0.0623 -0.54152,0.088 -0.14891,0.0257 -0.27075,0.0248 -0.27075,-0.002 0,-0.0717 0.1946,-0.25496 0.27075,-0.25496 0.0754,0 0.81228,-0.75741 0.81228,-0.83484 0,-0.0285 0.0583,-0.105 0.13086,-0.16922 0.0725,-0.0642 0.2493,-0.35876 0.3926,-0.65659 0.20718,-0.43056 0.23864,-0.54723 0.15343,-0.56634 -0.0589,-0.0132 -0.18611,0.0274 -0.28204,0.0903 -0.0959,0.0628 -0.22333,0.11507 -0.28429,0.11507 -0.061,0 -0.11056,0.0325 -0.11056,0.0722 0,0.0397 -0.065,0.0722 -0.14441,0.0722 -0.0794,0 -0.1444,0.0325 -0.1444,0.0722 0,0.0397 -0.0812,0.0722 -0.18051,0.0722 -0.0993,0 -0.1805,0.0254 -0.1805,0.0564 0,0.031 -0.15433,0.0982 -0.34296,0.15118 -0.18863,0.053 -0.48417,0.14132 -0.65433,0.1963 -0.4889,0.15795 -0.6766,0.13003 -0.97473,-0.15118 -0.14736,-0.13899 -0.30109,-0.2527 -0.34071,-0.2527 -0.0396,0 -0.07,-0.0279 -0.07,-0.0609 0,-0.033 -0.0893,-0.10611 -0.19855,-0.16246 -0.10921,-0.0563 -0.23911,-0.13815 -0.28656,-0.18276 -0.0474,-0.0446 -0.23426,-0.12484 -0.41516,-0.17825 -0.18089,-0.0534 -0.32716,-0.12239 -0.32716,-0.15343 0,-0.031 -0.11381,-0.0564 -0.25046,-0.0564 -0.13664,0 -0.26652,-0.0325 -0.29106,-0.0722 -0.0263,-0.0425 -0.45661,-0.0722 -1.04693,-0.0722 z"
         inkscape:connector-curvature="0" />
    </g>
  </g>
</svg>
