<?xml version="1.0" encoding="UTF-8" standalone="no"?>
<!-- Created with Inkscape (http://www.inkscape.org/) -->

<svg
   xmlns:dc="http://purl.org/dc/elements/1.1/"
   xmlns:cc="http://creativecommons.org/ns#"
   xmlns:rdf="http://www.w3.org/1999/02/22-rdf-syntax-ns#"
   xmlns:svg="http://www.w3.org/2000/svg"
   xmlns="http://www.w3.org/2000/svg"
   xmlns:xlink="http://www.w3.org/1999/xlink"
   version="1.1"
   width="48"
   height="48"
   id="svg4058">
  <defs
     id="defs4060">
    <linearGradient
       x1="23.99999"
       y1="4.999989"
       x2="23.99999"
       y2="43"
       id="linearGradient3154-8-7"
       xlink:href="#linearGradient3924-1-69-2"
       gradientUnits="userSpaceOnUse"
       gradientTransform="translate(4e-6,1.0000063)" />
    <linearGradient
       id="linearGradient3924-1-69-2">
      <stop
         id="stop3926-3-69-2"
         style="stop-color:#ffffff;stop-opacity:1"
         offset="0" />
      <stop
         id="stop3928-91-08-6"
         style="stop-color:#ffffff;stop-opacity:0.23529412"
         offset="0.06316455" />
      <stop
         id="stop3930-6-1-7"
         style="stop-color:#ffffff;stop-opacity:0.15686275"
         offset="0.95056331" />
      <stop
         id="stop3932-6-45-1"
         style="stop-color:#ffffff;stop-opacity:0.39215687"
         offset="1" />
    </linearGradient>
    <radialGradient
       cx="6.7304144"
       cy="9.9571075"
       r="12.671875"
       fx="6.2001843"
       fy="9.9571075"
       id="radialGradient3157-16-1"
       xlink:href="#linearGradient2867-449-88-871-390-598-476-591-434-148-57-177-8-3-3-6-4-8-8-8-6-5"
       gradientUnits="userSpaceOnUse"
       gradientTransform="matrix(0,9.4975523,-11.65996,0,140.93055,-79.160984)" />
    <linearGradient
       id="linearGradient2867-449-88-871-390-598-476-591-434-148-57-177-8-3-3-6-4-8-8-8-6-5">
      <stop
         id="stop3750-1-0-7-6-6-1-3-9-9-2"
         style="stop-color:#9e71ef;stop-opacity:1"
         offset="0" />
      <stop
         id="stop3752-3-7-4-0-32-8-923-0-7-7"
         style="stop-color:#9538e6;stop-opacity:1"
         offset="0.26238" />
      <stop
         id="stop3754-1-8-5-2-7-6-7-1-0-0"
         style="stop-color:#430096;stop-opacity:1"
         offset="0.704952" />
      <stop
         id="stop3756-1-6-2-6-6-1-96-6-24-3"
         style="stop-color:#30006a;stop-opacity:1"
         offset="1" />
    </linearGradient>
    <radialGradient
       cx="4.9929786"
       cy="43.5"
       r="2.5"
       fx="4.9929786"
       fy="43.5"
       id="radialGradient3013-55-9"
       xlink:href="#linearGradient3688-166-749-0-3"
       gradientUnits="userSpaceOnUse"
       gradientTransform="matrix(2.003784,0,0,1.4,27.98813,-17.4)" />
    <linearGradient
       id="linearGradient3688-166-749-0-3">
      <stop
         id="stop2883-6-5"
         style="stop-color:#181818;stop-opacity:1"
         offset="0" />
      <stop
         id="stop2885-5-9"
         style="stop-color:#181818;stop-opacity:0"
         offset="1" />
    </linearGradient>
    <radialGradient
       cx="4.9929786"
       cy="43.5"
       r="2.5"
       fx="4.9929786"
       fy="43.5"
       id="radialGradient3015-85-0"
       xlink:href="#linearGradient3688-464-309-69-5"
       gradientUnits="userSpaceOnUse"
       gradientTransform="matrix(2.003784,0,0,1.4,-20.01187,-104.4)" />
    <linearGradient
       id="linearGradient3688-464-309-69-5">
      <stop
         id="stop2889-3-6"
         style="stop-color:#181818;stop-opacity:1"
         offset="0" />
      <stop
         id="stop2891-2-2"
         style="stop-color:#181818;stop-opacity:0"
         offset="1" />
    </linearGradient>
    <linearGradient
       id="linearGradient3702-501-757-0-8">
      <stop
         id="stop2895-31-6"
         style="stop-color:#181818;stop-opacity:0"
         offset="0" />
      <stop
         id="stop2897-0-2"
         style="stop-color:#181818;stop-opacity:1"
         offset="0.5" />
      <stop
         id="stop2899-5-9"
         style="stop-color:#181818;stop-opacity:0"
         offset="1" />
    </linearGradient>
    <linearGradient
       x1="25.058096"
       y1="47.027729"
       x2="25.058096"
       y2="39.999443"
       id="linearGradient4056"
       xlink:href="#linearGradient3702-501-757-0-8"
       gradientUnits="userSpaceOnUse" />
  </defs>
  <metadata
     id="metadata4063">
    <rdf:RDF>
      <cc:Work
         rdf:about="">
        <dc:format>image/svg+xml</dc:format>
        <dc:type
           rdf:resource="http://purl.org/dc/dcmitype/StillImage" />
        <dc:title></dc:title>
      </cc:Work>
    </rdf:RDF>
  </metadata>
  <g
     id="layer1">
    <g
       transform="matrix(1.1578952,0,0,0.6428571,-3.789476,16.035716)"
       id="g3712-5-8-3"
       style="opacity:0.6">
      <rect
         width="5"
         height="7"
         x="38"
         y="40"
         id="rect2801-3-7-2"
         style="fill:url(#radialGradient3013-55-9);fill-opacity:1;stroke:none" />
      <rect
         width="5"
         height="7"
         x="-10"
         y="-47"
         transform="scale(-1,-1)"
         id="rect3696-6-1-2"
         style="fill:url(#radialGradient3015-85-0);fill-opacity:1;stroke:none" />
      <rect
         width="28"
         height="7.0000005"
         x="10"
         y="40"
         id="rect3700-4-2-8"
         style="fill:url(#linearGradient4056);fill-opacity:1;stroke:none" />
    </g>
    <rect
       width="39"
       height="39"
       rx="2"
       ry="2"
       x="4.5000119"
       y="5.4999962"
       id="rect5505-21-2-3"
       style="color:#000000;fill:url(#radialGradient3157-16-1);fill-opacity:1;fill-rule:nonzero;stroke:none;stroke-width:0.99999994;marker:none;visibility:visible;display:inline;overflow:visible;enable-background:accumulate" />
    <rect
       width="39"
       height="39"
       rx="2"
       ry="2"
       x="4.5000119"
       y="5.4999962"
       id="rect5505-21-3-2-4-9"
       style="opacity:0.8;color:#000000;fill:none;stroke:#401a67;stroke-width:1;stroke-linecap:round;stroke-linejoin:round;stroke-miterlimit:4;stroke-opacity:1;stroke-dasharray:none;stroke-dashoffset:0;marker:none;visibility:visible;display:inline;overflow:visible;enable-background:accumulate" />
    <rect
       width="37"
       height="37"
       rx="1"
       ry="1"
       x="5.5000119"
       y="6.4999962"
       id="rect6741-45-4"
       style="opacity:0.4;fill:none;stroke:url(#linearGradient3154-8-7);stroke-width:1;stroke-linecap:round;stroke-linejoin:round;stroke-miterlimit:4;stroke-opacity:1;stroke-dasharray:none;stroke-dashoffset:0" />
    <path
       d="m 12.9375,11.752186 c -0.670913,0.12762 -0.829734,1.02076 -0.375,1.46875 3.235126,5.02857 6.177716,10.23705 9.125,15.4375 -0.04225,3.88571 -0.209131,7.77649 -0.25,11.65625 0.197459,0.71245 0.609254,0.44165 0.774476,-0.12022 0.06672,0.17022 -0.107296,1.18635 0.694274,0.65147 1.061463,-0.22427 2.137938,0.0522 3.1875,0.0312 0.986869,-0.58327 0.364842,-1.95556 0.494434,-2.89178 -0.104502,-3.10824 -0.196081,-6.21726 -0.244434,-9.32697 3.02295,-5.2539 6.010725,-10.53403 9.25,-15.65625 0.473137,-1.76412 -1.823294,-1.02774 -2.769361,-1.0458 -1.407272,-0.52222 -2.5968,0.11397 -3.024243,1.52767 -1.905091,3.2105 -3.858533,6.39213 -5.800146,9.58063 -2.12639,-3.58396 -4.303941,-7.13975 -6.4375,-10.71875 -0.857133,-1.0929 -2.329856,-0.0563 -3.484756,-0.4328 -0.408837,0.0106 -0.717059,-0.20006 -1.140244,-0.16095 z"
       id="path4592-7"
       style="opacity:0.15;color:#000000;fill:#042658;fill-opacity:1;fill-rule:nonzero;stroke:none;stroke-width:1;marker:none;visibility:visible;display:inline;overflow:visible;enable-background:accumulate" />
    <path
       d="m 13.118476,12.564076 0.140426,0.21516 c 1.552782,2.3705 3.793469,6.11785 7.011883,11.7295 l 2.244434,3.91361 -0.0453,2.17423 c -0.03912,1.93456 -0.149337,6.48098 -0.212893,8.71503 -0.01276,0.44843 -0.02296,0.81533 -0.02038,0.81533 0.0026,0 0.235103,-0.0496 0.514114,-0.10871 0.635932,-0.1347 1.951337,-0.13498 2.570571,-0.002 0.258714,0.0555 0.475477,0.0931 0.482407,0.0861 0.0069,-0.007 -0.03029,-1.67461 -0.0838,-3.70751 -0.05351,-2.0329 -0.118383,-4.65828 -0.144948,-5.83418 l -0.04983,-2.13799 2.242172,-3.9136 c 3.183942,-5.55981 5.527619,-9.48002 7.007354,-11.72271 0.07233,-0.10962 0.118732,-0.19932 0.104182,-0.19931 -0.01455,10e-6 -0.280955,0.0489 -0.593383,0.10871 -0.706891,0.13527 -1.645274,0.13501 -2.402974,0 -0.318546,-0.0567 -0.601234,-0.0803 -0.627356,-0.0521 -0.02612,0.0282 -0.438397,0.72067 -0.914987,1.53782 -0.476591,0.81714 -1.672905,2.82287 -2.661164,4.45716 -0.988259,1.6343 -2.201436,3.64002 -2.695136,4.45717 -0.493701,0.81715 -0.922581,1.49296 -0.951225,1.50157 -0.02864,0.009 -0.619075,-0.92087 -1.313595,-2.06551 -2.491883,-4.10687 -4.85642,-8.04104 -5.388012,-8.96643 -0.406377,-0.70742 -0.57438,-0.93962 -0.677177,-0.9331 -0.07529,0.005 -0.350145,0.0436 -0.609241,0.0883 -0.803848,0.13884 -1.923212,0.0979 -2.713247,-0.10192 z"
       id="path4483-7-4"
       style="opacity:0.3;color:#000000;fill:#042658;fill-opacity:1;fill-rule:nonzero;stroke:none;stroke-width:1;marker:none;visibility:visible;display:inline;overflow:visible;enable-background:accumulate" />
    <path
       d="m 13.118476,11.564506 0.140426,0.21516 c 1.552782,2.3705 3.793469,6.11784 7.011883,11.7295 l 2.244434,3.91361 -0.0453,2.17423 c -0.03912,1.93456 -0.149337,6.48098 -0.212893,8.71503 -0.01276,0.44843 -0.02296,0.81533 -0.02038,0.81533 0.0026,0 0.235103,-0.0496 0.514114,-0.10871 0.635932,-0.1347 1.951337,-0.13499 2.570571,-0.002 0.258714,0.0555 0.475477,0.0931 0.482407,0.0861 0.0069,-0.007 -0.03029,-1.67461 -0.0838,-3.70751 -0.05351,-2.0329 -0.118383,-4.65828 -0.144948,-5.83418 l -0.04983,-2.13799 2.242172,-3.91361 c 3.183942,-5.5598 5.527619,-9.48001 7.007354,-11.72271 0.07233,-0.10961 0.118732,-0.19931 0.104182,-0.1993 -0.01455,10e-6 -0.280955,0.0489 -0.593383,0.10871 -0.706891,0.13527 -1.645274,0.13501 -2.402974,0 -0.318546,-0.0568 -0.601234,-0.0803 -0.627356,-0.0521 -0.02612,0.0282 -0.438397,0.72067 -0.914987,1.53781 -0.476591,0.81715 -1.672905,2.82288 -2.661164,4.45717 -0.988259,1.63429 -2.201436,3.64002 -2.695136,4.45717 -0.493701,0.81714 -0.922581,1.49296 -0.951225,1.50157 -0.02864,0.009 -0.619075,-0.92087 -1.313595,-2.06551 -2.491883,-4.10687 -4.85642,-8.04105 -5.388012,-8.96643 -0.406377,-0.70742 -0.57438,-0.93962 -0.677177,-0.9331 -0.07529,0.005 -0.350145,0.0436 -0.609241,0.0883 -0.803848,0.13884 -1.923212,0.0979 -2.713247,-0.10192 z"
       id="path4483-73"
       style="fill:#f1f1f6" />
    <path
       d="m 13.118476,11.564506 0.140426,0.21516 c 1.552782,2.3705 3.793469,6.11784 7.011883,11.7295 l 2.244434,3.91361 -0.0453,2.17423 c -0.03912,1.93456 -0.149337,6.48098 -0.212893,8.71503 -0.01276,0.44843 -0.02296,0.81533 -0.02038,0.81533 0.0026,0 0.235103,-0.0496 0.514114,-0.10871 0.635932,-0.1347 1.951337,-0.13499 2.570571,-0.002 0.258714,0.0555 0.475477,0.0931 0.482407,0.0861 0.0069,-0.007 -0.03029,-1.67461 -0.0838,-3.70751 -0.05351,-2.0329 -0.118383,-4.65828 -0.144948,-5.83418 l -0.04983,-2.13799 2.242172,-3.91361 c 3.183942,-5.5598 5.527619,-9.48001 7.007354,-11.72271 0.07233,-0.10961 0.118732,-0.19931 0.104182,-0.1993 -0.01455,10e-6 -0.280955,0.0489 -0.593383,0.10871 -0.134912,0.0258 -0.281418,0.0429 -0.430316,0.0589 0.262758,-0.008 0.480396,-0.0181 0.597913,-0.0362 l 0.326134,-0.0521 -0.362372,0.17439 c -0.199304,0.0953 -0.672198,0.25966 -1.050876,0.36464 -0.378678,0.10497 -0.722459,0.20001 -0.765509,0.21289 -0.106632,0.0319 -8.531173,14.29765 -8.486282,14.37029 0.01964,0.0318 0.344206,0.16909 0.720213,0.30575 l 0.683975,0.24686 0.04303,2.72232 c 0.02438,1.49685 0.08243,3.99423 0.12683,5.5488 0.0444,1.55458 0.06958,2.96981 0.05662,3.14584 -0.02016,0.27383 -0.0375,0.30359 -0.11777,0.2061 -0.0516,-0.0627 -0.434811,-0.3517 -0.851573,-0.64321 l -0.758714,-0.52997 0,-5.4786 0,-5.4786 -4.208033,-7.13418 c -2.315516,-3.92426 -4.247868,-7.16992 -4.294099,-7.21345 -0.04624,-0.0435 -0.412205,-0.16254 -0.810813,-0.26499 -0.73041,-0.18772 -1.460733,-0.46436 -1.397391,-0.5277 0.01882,-0.0188 0.226076,0.004 0.462024,0.0498 0.566118,0.10979 1.983004,0.0913 2.541128,-0.0317 l 0.362371,-0.0793 c -0.0062,-10e-4 -0.01241,-3.6e-4 -0.01812,0 -0.07529,0.005 -0.350145,0.0436 -0.609241,0.0883 -0.803848,0.13884 -1.923212,0.0979 -2.713247,-0.10192 z m 18.200099,0.0679 c -0.03509,9e-4 -0.05688,0.004 -0.06342,0.0113 -0.02612,0.0282 -0.438397,0.72066 -0.914987,1.53781 -0.476591,0.81715 -1.672905,2.82287 -2.661164,4.45717 -0.988259,1.63429 -2.201436,3.64002 -2.695136,4.45716 -0.493701,0.81715 -0.922581,1.49297 -0.951225,1.50158 -0.02864,0.009 -0.619075,-0.92087 -1.313595,-2.06552 -2.491883,-4.10686 -4.85642,-8.04104 -5.388012,-8.96642 -0.209443,-0.3646 -0.355261,-0.60278 -0.462023,-0.74739 l 0.33973,0.59791 c 0.584556,1.02831 2.752927,4.63813 5.025633,8.36851 1.906905,3.12996 1.832672,2.97213 1.786943,3.82302 -0.0067,0.12552 0.01474,0.24557 0.04983,0.26725 0.03509,0.0217 1.719579,-2.9145 3.743748,-6.52495 2.864217,-5.10882 3.658705,-6.58076 3.582946,-6.63366 -0.06151,-0.043 0.036,-0.0467 0.264984,-0.009 0.119342,0.0196 0.34988,0.0356 0.62509,0.0453 -0.138616,-0.0152 -0.275339,-0.0334 -0.405402,-0.0566 -0.23891,-0.0426 -0.458676,-0.0661 -0.563941,-0.0634 z"
       id="path4481-5"
       style="fill:#dad9e0" />
  </g>
</svg>
