<?xml version="1.0" encoding="UTF-8" standalone="no"?>
<svg
   xmlns:dc="http://purl.org/dc/elements/1.1/"
   xmlns:cc="http://creativecommons.org/ns#"
   xmlns:rdf="http://www.w3.org/1999/02/22-rdf-syntax-ns#"
   xmlns:svg="http://www.w3.org/2000/svg"
   xmlns="http://www.w3.org/2000/svg"
   xmlns:xlink="http://www.w3.org/1999/xlink"
   id="svg4715"
   height="32"
   width="32"
   version="1.1">
  <defs
     id="defs4717">
    <linearGradient
       id="linearGradient4549">
      <stop
         offset="0"
         style="stop-color:#000000;stop-opacity:0.27205881"
         id="stop4551" />
      <stop
         offset="1"
         style="stop-color:#000000;stop-opacity:0.36764705"
         id="stop4553" />
    </linearGradient>
    <linearGradient
       id="linearGradient3924">
      <stop
         offset="0"
         style="stop-color:#ffffff;stop-opacity:1"
         id="stop3926" />
      <stop
         offset="0"
         style="stop-color:#ffffff;stop-opacity:0.23529412"
         id="stop3928" />
      <stop
         offset="1"
         style="stop-color:#ffffff;stop-opacity:0.15686275"
         id="stop3930" />
      <stop
         offset="1"
         style="stop-color:#ffffff;stop-opacity:0.39215687"
         id="stop3932" />
    </linearGradient>
    <radialGradient
       gradientTransform="matrix(2.003784,0,0,1.4,27.98813,-17.4)"
       gradientUnits="userSpaceOnUse"
       xlink:href="#linearGradient3688-166-749"
       id="radialGradient3163"
       fy="43.5"
       fx="4.9929786"
       r="2.5"
       cy="43.5"
       cx="4.9929786" />
    <linearGradient
       id="linearGradient3688-166-749">
      <stop
         offset="0"
         style="stop-color:#181818;stop-opacity:1"
         id="stop2883" />
      <stop
         offset="1"
         style="stop-color:#181818;stop-opacity:0"
         id="stop2885" />
    </linearGradient>
    <radialGradient
       gradientTransform="matrix(2.003784,0,0,1.4,-20.01187,-104.4)"
       gradientUnits="userSpaceOnUse"
       xlink:href="#linearGradient3688-464-309"
       id="radialGradient3165"
       fy="43.5"
       fx="4.9929786"
       r="2.5"
       cy="43.5"
       cx="4.9929786" />
    <linearGradient
       id="linearGradient3688-464-309">
      <stop
         offset="0"
         style="stop-color:#181818;stop-opacity:1"
         id="stop2889" />
      <stop
         offset="1"
         style="stop-color:#181818;stop-opacity:0"
         id="stop2891" />
    </linearGradient>
    <linearGradient
       gradientUnits="userSpaceOnUse"
       xlink:href="#linearGradient3702-501-757"
       id="linearGradient3167"
       y2="39.999443"
       x2="25.058096"
       y1="47.027729"
       x1="25.058096" />
    <linearGradient
       id="linearGradient3702-501-757">
      <stop
         offset="0"
         style="stop-color:#181818;stop-opacity:0"
         id="stop2895" />
      <stop
         offset="0.5"
         style="stop-color:#181818;stop-opacity:1"
         id="stop2897" />
      <stop
         offset="1"
         style="stop-color:#181818;stop-opacity:0"
         id="stop2899" />
    </linearGradient>
    <linearGradient
       gradientTransform="matrix(1.08,0,0,1.08,-30.781639,-2.36)"
       gradientUnits="userSpaceOnUse"
       xlink:href="#linearGradient4549"
       id="linearGradient3024"
       y2="30.093096"
       x2="30.643436"
       y1="3.915791"
       x1="30.643436" />
    <linearGradient
       gradientTransform="matrix(0.67567568,0,0,0.67567565,-0.2162133,-0.2162086)"
       gradientUnits="userSpaceOnUse"
       xlink:href="#linearGradient3924"
       id="linearGradient3027"
       y2="41.759991"
       x2="23.99999"
       y1="6.2399888"
       x1="23.99999" />
    <linearGradient
       id="linearGradient3600-1-6">
      <stop
         id="stop3602-5-1"
         style="stop-color:#f4f4f4;stop-opacity:1"
         offset="0" />
      <stop
         id="stop3604-2-0"
         style="stop-color:#dbdbdb;stop-opacity:1"
         offset="1" />
    </linearGradient>
    <linearGradient
       x1="25.132275"
       y1="0.98520643"
       x2="25.132275"
       y2="47.013336"
       id="linearGradient3016-7-4"
       xlink:href="#linearGradient3600-1-6"
       gradientUnits="userSpaceOnUse"
       gradientTransform="matrix(0.78195308,0,0,0.59467084,-251.37137,115.90096)" />
    <linearGradient
       gradientTransform="matrix(0.67567568,0,0,0.67567565,-0.2162133,-0.2162086)"
       gradientUnits="userSpaceOnUse"
       xlink:href="#linearGradient3924-4"
       id="linearGradient3027-6"
       y2="41.759991"
       x2="23.99999"
       y1="6.2399888"
       x1="23.99999" />
    <linearGradient
       id="linearGradient3924-4">
      <stop
         offset="0"
         style="stop-color:#ffffff;stop-opacity:1"
         id="stop3926-8" />
      <stop
         offset="0"
         style="stop-color:#ffffff;stop-opacity:0.23529412"
         id="stop3928-8" />
      <stop
         offset="1"
         style="stop-color:#ffffff;stop-opacity:0.15686275"
         id="stop3930-8" />
      <stop
         offset="1"
         style="stop-color:#ffffff;stop-opacity:0.39215687"
         id="stop3932-0" />
    </linearGradient>
    <clipPath
       id="clipPath16-2-4"
       clipPathUnits="userSpaceOnUse">
      <path
         id="path18-1-3"
         d="M 0,500 500,500 500,0 0,0 0,500 Z" />
    </clipPath>
  </defs>
  <metadata
     id="metadata4720">
    <rdf:RDF>
      <cc:Work
         rdf:about="">
        <dc:format>image/svg+xml</dc:format>
        <dc:type
           rdf:resource="http://purl.org/dc/dcmitype/StillImage" />
        <dc:title></dc:title>
      </cc:Work>
    </rdf:RDF>
  </metadata>
  <g
     style="display:inline"
     id="g2036"
     transform="matrix(0.6999997,0,0,0.44444486,-0.8000003,10.111104)">
    <g
       style="opacity:0.4"
       id="g3712"
       transform="matrix(1.052632,0,0,1.285713,-1.263158,-13.42854)">
      <rect
         style="fill:url(#radialGradient3163);fill-opacity:1;stroke:none"
         id="rect2801"
         y="40"
         x="38"
         height="7"
         width="5" />
      <rect
         style="fill:url(#radialGradient3165);fill-opacity:1;stroke:none"
         id="rect3696"
         transform="scale(-1,-1)"
         y="-47"
         x="-10"
         height="7"
         width="5" />
      <rect
         style="fill:url(#linearGradient3167);fill-opacity:1;stroke:none"
         id="rect3700"
         y="40"
         x="10"
         height="7.0000005"
         width="28" />
    </g>
  </g>
  <rect
     style="color:#000000;display:inline;overflow:visible;visibility:visible;fill:url(#linearGradient3016-7-4);fill-opacity:1;fill-rule:nonzero;stroke:none;stroke-width:0.99999994;marker:none;enable-background:accumulate;clip-rule:nonzero;opacity:1;isolation:auto;mix-blend-mode:normal;color-interpolation:sRGB;color-interpolation-filters:linearRGB;solid-color:#000000;solid-opacity:1;stroke-linecap:butt;stroke-linejoin:miter;stroke-miterlimit:4;stroke-dasharray:none;stroke-dashoffset:0;stroke-opacity:1;filter-blend-mode:normal;filter-gaussianBlur-deviation:0;color-rendering:auto;image-rendering:auto;shape-rendering:auto;text-rendering:auto"
     id="rect5505"
     transform="scale(1,-1)"
     y="-29"
     x="3"
     ry="1.6154056"
     rx="1.6154056"
     height="26"
     width="26" />
  <rect
     style="color:#000000;display:inline;overflow:visible;visibility:visible;fill:none;stroke:url(#linearGradient3024);stroke-width:1;stroke-linecap:round;stroke-linejoin:round;stroke-miterlimit:4;stroke-dasharray:none;stroke-dashoffset:0;stroke-opacity:1;marker:none;enable-background:accumulate"
     id="rect5505-6-6"
     y="2.5"
     x="2.5"
     ry="2.1600001"
     rx="2.1600001"
     height="27"
     width="27" />
  <rect
     style="fill:none;stroke:url(#linearGradient3027);stroke-width:0.99999994;stroke-linecap:round;stroke-linejoin:round;stroke-miterlimit:4;stroke-dasharray:none;stroke-dashoffset:0;stroke-opacity:1"
     id="rect6741-7"
     y="3.5"
     x="3.5"
     ry="1.0869563"
     rx="1.0869565"
     height="25"
     width="25" />
  <rect
     style="fill:none;stroke:url(#linearGradient3027-6);stroke-width:0.99999994;stroke-linecap:round;stroke-linejoin:round;stroke-miterlimit:4;stroke-dasharray:none;stroke-dashoffset:0;stroke-opacity:1"
     id="rect6741-7-0"
     y="3.5"
     x="3.5"
     ry="1.0869563"
     rx="1.0869565"
     height="25"
     width="25" />
  <path
     style="opacity:0.5;fill:#ffffff;fill-opacity:1;fill-rule:nonzero;stroke:none"
     d="m 16.064453,9.3378902 c -3.134853,0 -5.930504,1.8414848 -7.2910155,4.5214848 -0.5569559,1.097189 -0.875,2.33432 -0.875,3.644531 0,1.349537 0.3391615,2.622586 0.9277344,3.744141 1.3785411,2.626368 4.1420351,4.421875 7.2382811,4.421875 2.056021,0 3.89457,-0.79288 5.273437,-2.09375 1.584052,-1.494557 2.560547,-3.660685 2.560547,-6.072266 0,-0.528344 -0.04879,-1.044537 -0.138672,-1.544922 l -0.632812,0 -2.472656,0 -4.589844,0 0,3.089844 4.658203,0 c -0.302191,1.069491 -0.937303,1.983744 -1.787109,2.615234 -0.773573,0.574791 -1.724014,0.916016 -2.769531,0.916016 -2.15649,0 -4.048431,-1.438083 -4.707032,-3.427734 -0.160306,-0.484511 -0.25,-1.000144 -0.25,-1.53711 0,-0.587136 0.104828,-1.151036 0.294922,-1.673828 0.698057,-1.919232 2.554745,-3.292969 4.66211,-3.292968 1.17094,0 2.224002,0.425029 3.041015,1.130859 L 21.43164,11.523438 C 20.042778,10.168805 18.167833,9.3378902 16.064453,9.3378902 Z"
     id="path22-9-0" />
  <g
     style="display:inline;enable-background:new"
     transform="matrix(0.06532441,0,0,-0.06532441,-0.4318964,32.835033)"
     id="g12">
    <g
       id="g14"
       clip-path="url(#clipPath16-2-4)">
      <g
         id="g20"
         transform="translate(372.4658,250)">
        <path
           d="m 0,0 c 0,8.088 -0.745,15.988 -2.121,23.648 l -9.703,0 -37.852,0 -70.256,0 0,-47.296 71.299,0 c -4.626,-16.372 -14.354,-30.373 -27.363,-40.04 l 36.789,-29.273 C -14.958,-70.082 0,-36.917 0,0"
           style="fill:#3284ff;fill-opacity:1;fill-rule:nonzero;stroke:none"
           id="path22-9" />
      </g>
      <g
         id="g24"
         transform="translate(254.0713,324.3242)">
        <path
           d="M 0,0 C 17.925,0 34.071,-6.489 46.578,-17.294 L 80.626,17.24 C 59.365,37.977 30.662,50.676 -1.537,50.676 c -47.989,0 -90.779,-28.187 -111.606,-69.213 l 41.798,-31.867 C -60.659,-21.024 -32.26,0 0,0"
           style="fill:#ff3424;fill-opacity:1;fill-rule:nonzero;stroke:none"
           id="path26" />
      </g>
      <g
         id="g28"
         transform="translate(141.7104,192.7031)">
        <path
           d="M 0,0 40.305,32.064 C 37.851,39.481 36.5,47.387 36.5,55.607 c 0,8.988 1.606,17.607 4.516,25.61 L -0.782,113.084 C -9.308,96.288 -14.176,77.354 -14.176,57.297 -14.176,36.638 -9.01,17.169 0,0"
           style="fill:#ffbb00;fill-opacity:1;fill-rule:nonzero;stroke:none"
           id="path30" />
      </g>
      <g
         id="g32"
         transform="translate(182.0156,224.7676)">
        <path
           d="m 0,0 -40.305,-32.064 c 21.103,-40.205 63.426,-67.704 110.824,-67.704 31.474,0 59.616,12.125 80.724,32.039 l -36.789,29.274 C 102.612,-47.254 88.061,-52.47 72.056,-52.47 39.044,-52.47 10.082,-30.458 0,0"
           style="fill:#26b14c;fill-opacity:1;fill-rule:nonzero;stroke:none"
           id="path34" />
      </g>
    </g>
  </g>
</svg>
